<svg width="34" height="22" viewBox="0 0 34 22" fill="none" xmlns="http://www.w3.org/2000/svg">
<path d="M21.5501 2.2486H12.3652V18.7746H21.5501V2.2486Z" fill="#FF5A00"/>
<path d="M12.9766 10.5116C12.9766 7.15401 14.5527 4.17402 16.9712 2.2486C15.1913 0.847051 12.946 0 10.4969 0C4.69529 0 0.000976562 4.7013 0.000976562 10.5116C0.000976562 16.3219 4.69529 21.0232 10.4969 21.0232C12.946 21.0232 15.1913 20.1761 16.9712 18.7746C14.5493 16.8764 12.9766 13.8692 12.9766 10.5116Z" fill="#EB001B"/>
<path d="M33.9409 10.5116C33.9409 16.3219 29.2466 21.0232 23.4449 21.0232C20.9959 21.0232 18.7506 20.1761 16.9707 18.7746C19.4198 16.8458 20.9653 13.8692 20.9653 10.5116C20.9653 7.15401 19.3892 4.17402 16.9707 2.2486C18.7472 0.847051 20.9925 0 23.4415 0C29.2466 0 33.9409 4.73192 33.9409 10.5116Z" fill="#F79E1B"/>
</svg>
