<svg width="28" height="25" viewBox="0 0 28 25" fill="none" xmlns="http://www.w3.org/2000/svg">
<path d="M7.06824 24.9958C6.28249 24.9958 5.91803 24.5144 6.25841 23.9256L9.09919 19.0131L13.3744 11.6437C13.7147 11.0548 14.3146 11.1296 14.7078 11.8086L15.6608 13.4563C16.0533 14.136 16.0968 15.1728 15.7557 15.7624L11.4805 23.1318L11.0218 23.9256C10.6821 24.5144 9.75989 24.9958 8.97413 24.9958H7.06824Z" fill="#041146"/>
<path d="M27.8725 23.9235L14.6477 1.06956C14.3073 0.481366 13.3858 0 12.6 0H10.6948C9.90841 0 9.54395 0.481366 9.88433 1.06956L23.1085 23.9235C23.4488 24.5124 24.3704 24.9937 25.1568 24.9937H27.062C27.8478 24.9937 28.2129 24.5124 27.8725 23.9235Z" fill="#041146"/>
<path d="M21.626 23.76L20.673 22.1129C20.2805 21.4333 19.4018 20.8771 18.721 20.8771H9.25983C8.57906 20.8771 7.70035 21.4333 7.3078 22.1129L6.35487 23.76C5.96166 24.4397 6.19704 24.9958 6.8778 24.9958H21.103C21.7838 24.9958 22.0192 24.4397 21.626 23.76Z" fill="#041146"/>
<path d="M0.938091 25H2.8433C3.62906 25 4.55058 24.518 4.89096 23.9298L12.6937 10.4368C13.0341 9.84794 12.9913 8.81109 12.5981 8.13144L11.6458 6.48371C11.2526 5.80405 10.6527 5.72994 10.3124 6.31813L0.127587 23.9298C-0.212797 24.518 0.151665 25 0.938091 25Z" fill="#041146"/>
</svg>
