<svg width="56" height="56" viewBox="0 0 56 56" fill="none" xmlns="http://www.w3.org/2000/svg">
<rect width="56" height="56" rx="28" fill="#FAFAFA"/>
<path d="M27.9706 16.4044C22.9951 16.4044 19.6471 19.0147 19.6471 22.5368C19.6471 25.0931 21.4436 27.2451 25.0735 27.2451C27.3505 27.2451 28.7574 26.5466 31.1814 26.5466C34.6985 26.5466 38.5172 28.7721 38.5172 33.4804C38.5172 37.5466 35.6593 39.6593 33.5956 40.5784C31.8848 41.3407 29.9902 41.7647 27.9976 41.7647C20.3971 41.7647 14.2328 35.6029 14.2328 28C14.2328 25.2402 15.0441 22.6716 16.4436 20.5172C15.6373 22.3848 15.3407 24.2034 15.3407 26.2819C15.3407 34.25 21.4167 39.598 28.027 39.598C33.0025 39.598 36.3505 36.9877 36.3505 33.4657C36.3505 30.9093 34.5539 28.7574 30.924 28.7574C28.6471 28.7574 27.2402 29.4559 24.8162 29.4559C21.299 29.4559 17.4804 27.2304 17.4804 22.5221C17.4804 18.4559 20.3382 16.3431 22.402 15.424C24.1127 14.6618 26.0074 14.2377 28 14.2377C35.6005 14.2377 41.7647 20.3995 41.7647 28.0025C41.7647 30.7623 40.9534 33.3309 39.5539 35.4853C40.3603 33.6176 40.6569 31.799 40.6569 29.7206C40.6569 21.7525 34.5809 16.4044 27.9706 16.4044ZM39.3824 30.8971C38.2378 27.1936 34.6446 25.3088 31.1838 25.3088C28.6201 25.3088 27.1936 26.0074 25.076 26.0074C21.8676 26.0074 20.8873 24.1471 20.8873 22.5343C20.8873 19.6152 23.8652 17.6397 27.973 17.6397C33.8652 17.6397 39.4216 22.3995 39.4216 29.7181C39.4216 30.1275 39.4093 30.5196 39.3848 30.8971M16.6176 25.1054C17.7623 28.8088 21.3554 30.6936 24.8162 30.6936C27.3799 30.6936 28.8064 29.9951 30.924 29.9951C34.1324 29.9951 35.1127 31.8554 35.1127 33.4681C35.1127 36.3873 32.1348 38.3627 28.027 38.3627C22.1348 38.3627 16.5784 33.6029 16.5784 26.2843C16.5784 25.875 16.5907 25.4828 16.6152 25.1054M28 13C19.7083 13 13 19.723 13 28C13 36.277 19.7157 43 28 43C36.2843 43 43 36.2794 43 28C43 19.7206 36.2843 13 28 13Z" fill="#75A6AC"/>
</svg>
