<svg width="1200" height="40" viewBox="0 0 1200 40" fill="none" xmlns="http://www.w3.org/2000/svg">
<path fill-rule="evenodd" clip-rule="evenodd" d="M1002.84 11.8307C1002.42 11.2608 1000.55 10.6461 995.799 9.50793C986.087 7.17096 979.055 7.5247 970.66 10.7484C966.047 12.5208 961.672 15.0602 959.093 17.4635C956.76 19.6468 954.784 22.4385 953.765 24.964C953.495 25.6193 953.251 26.1609 953.217 26.1429C953.167 26.1345 952.961 25.0306 952.757 23.6634C952.476 21.7853 952.294 21.1245 952.035 20.9141C951.639 20.5743 951.253 20.745 951.016 21.3606C950.88 21.7297 951.627 28.8806 951.981 30.5093C952.176 31.4219 952.571 31.9053 953.157 31.9806C953.624 32.0354 953.653 32.0161 954.126 31.3482C956.212 28.4465 957.911 26.7964 960.008 25.6664L961.131 25.0726L960.811 24.7215C960.564 24.4419 960.297 24.3968 959.624 24.4976C958.916 24.5805 958.515 24.7608 957.431 25.4689C956.71 25.9402 955.818 26.6218 955.451 26.9638C955.09 27.3191 954.735 27.5919 954.687 27.5823C954.502 27.5631 955.689 24.8873 956.485 23.5491C957.417 21.9597 958.569 20.4682 959.952 19.0856C961.395 17.6435 966.352 14.4061 968.692 13.3765C973.646 11.2213 979.141 9.87113 983.537 9.75932C987.286 9.66966 990.514 10.1216 997.038 11.6212C1001.56 12.6493 1002.32 12.754 1002.84 12.415C1003.05 12.2731 1003.06 12.1313 1002.84 11.8325L1002.84 11.8307Z" fill="#717680"/>
<path d="M1027.25 9.142C1027.25 9.68333 1027.19 10.178 1027.06 10.626C1026.94 11.0647 1026.76 11.4753 1026.51 11.858C1026.28 12.2407 1025.99 12.614 1025.66 12.978C1025.43 13.23 1025.19 13.356 1024.96 13.356C1024.84 13.356 1024.71 13.3233 1024.58 13.258C1024.46 13.1833 1024.35 13.09 1024.26 12.978C1024.17 12.8567 1024.13 12.7213 1024.13 12.572C1024.13 12.3947 1024.19 12.222 1024.31 12.054C1024.63 11.6807 1024.91 11.2793 1025.14 10.85C1025.37 10.4207 1025.49 9.93533 1025.49 9.394C1025.49 8.974 1025.4 8.62867 1025.22 8.358C1025.05 8.078 1024.8 7.87267 1024.5 7.742C1024.2 7.602 1023.85 7.532 1023.46 7.532C1023.03 7.532 1022.63 7.58333 1022.27 7.686C1021.92 7.78867 1021.5 7.94733 1021.02 8.162C1020.95 8.19 1020.87 8.218 1020.77 8.246C1020.69 8.274 1020.61 8.288 1020.53 8.288C1020.37 8.288 1020.22 8.22733 1020.09 8.106C1019.97 7.98467 1019.87 7.84 1019.79 7.672C1019.73 7.49467 1019.69 7.336 1019.69 7.196C1019.69 7.028 1019.74 6.88333 1019.82 6.762C1019.91 6.64067 1020.04 6.538 1020.2 6.454C1020.55 6.258 1020.9 6.09933 1021.23 5.978C1021.58 5.84733 1021.94 5.754 1022.31 5.698C1022.69 5.63267 1023.1 5.6 1023.56 5.6C1024.22 5.6 1024.83 5.72133 1025.39 5.964C1025.95 6.20667 1026.4 6.58933 1026.74 7.112C1027.08 7.63467 1027.25 8.31133 1027.25 9.142ZM1022.58 10.136C1022.57 11.2187 1022.53 12.2967 1022.45 13.37C1022.39 14.434 1022.28 15.5167 1022.14 16.618C1022.04 17.3087 1021.7 17.654 1021.11 17.654C1020.81 17.654 1020.61 17.5793 1020.51 17.43C1020.4 17.29 1020.37 17.0987 1020.39 16.856C1020.41 16.716 1020.43 16.576 1020.45 16.436C1020.47 16.296 1020.48 16.1513 1020.49 16.002C1020.57 15.1527 1020.63 14.2333 1020.67 13.244C1020.72 12.2547 1020.76 11.2653 1020.8 10.276C1020.81 9.97733 1020.86 9.758 1020.95 9.618C1021.06 9.478 1021.18 9.38467 1021.33 9.338C1021.48 9.29133 1021.64 9.268 1021.79 9.268C1022.02 9.268 1022.21 9.32867 1022.35 9.45C1022.51 9.562 1022.59 9.79067 1022.58 10.136ZM1034.17 7.308C1034.17 7.84 1034.07 8.35333 1033.86 8.848C1033.67 9.34267 1033.36 9.81867 1032.95 10.276C1032.54 10.7333 1032.01 11.1767 1031.37 11.606C1031.59 11.8487 1031.84 12.0493 1032.1 12.208C1032.37 12.3573 1032.65 12.432 1032.94 12.432C1033.16 12.432 1033.36 12.39 1033.54 12.306C1033.73 12.222 1033.89 12.1053 1034.04 11.956C1034.19 11.8067 1034.33 11.634 1034.46 11.438C1034.58 11.2607 1034.71 11.1113 1034.83 10.99C1034.96 10.8593 1035.1 10.794 1035.25 10.794C1035.35 10.794 1035.46 10.8267 1035.57 10.892C1035.69 10.948 1035.79 11.0367 1035.88 11.158C1035.96 11.2793 1036 11.438 1036 11.634C1036 11.7927 1035.97 11.9607 1035.91 12.138C1035.84 12.306 1035.76 12.4693 1035.65 12.628C1035.32 13.1507 1034.9 13.5473 1034.41 13.818C1033.92 14.0793 1033.39 14.21 1032.81 14.21C1032.21 14.21 1031.65 14.0653 1031.13 13.776C1030.62 13.4867 1030.16 13.0947 1029.76 12.6C1029.37 12.1053 1029.06 11.55 1028.84 10.934C1028.61 10.3087 1028.5 9.66467 1028.5 9.002C1028.5 8.47933 1028.57 7.97067 1028.72 7.476C1028.87 6.98133 1029.09 6.538 1029.37 6.146C1029.65 5.754 1029.99 5.446 1030.39 5.222C1030.79 4.98867 1031.24 4.872 1031.75 4.872C1032.22 4.872 1032.64 4.97 1033.01 5.166C1033.37 5.362 1033.66 5.642 1033.86 6.006C1034.07 6.36067 1034.17 6.79467 1034.17 7.308ZM1030.22 8.834C1030.22 9.07667 1030.25 9.32867 1030.31 9.59C1030.37 9.85133 1030.45 10.0987 1030.54 10.332C1031.23 9.89333 1031.72 9.44533 1032.01 8.988C1032.31 8.53067 1032.46 8.05933 1032.46 7.574C1032.46 7.27533 1032.38 7.03733 1032.22 6.86C1032.07 6.67333 1031.87 6.58 1031.61 6.58C1031.35 6.58 1031.11 6.68733 1030.89 6.902C1030.69 7.10733 1030.52 7.38267 1030.4 7.728C1030.28 8.064 1030.22 8.43267 1030.22 8.834ZM1044.5 11.158C1044.5 11.5033 1044.5 11.8533 1044.51 12.208C1044.52 12.5533 1044.53 12.894 1044.55 13.23C1044.57 13.5753 1044.51 13.818 1044.36 13.958C1044.21 14.098 1044.01 14.168 1043.75 14.168C1043.56 14.168 1043.38 14.1447 1043.21 14.098C1043.04 14.0513 1042.89 13.9347 1042.76 13.748C1042.48 13.3373 1042.2 12.936 1041.91 12.544C1041.62 12.152 1041.32 11.76 1041.01 11.368C1040.71 10.9667 1040.4 10.556 1040.07 10.136C1040 10.024 1039.9 9.898 1039.79 9.758C1039.68 9.618 1039.57 9.478 1039.46 9.338C1039.34 9.198 1039.24 9.07667 1039.15 8.974C1039.14 9.26333 1039.13 9.58533 1039.11 9.94C1039.1 10.2947 1039.08 10.6493 1039.06 11.004C1039.06 11.3307 1039.06 11.6293 1039.05 11.9C1039.04 12.1613 1039.03 12.404 1039.02 12.628C1039.02 12.8427 1039.01 13.0573 1038.99 13.272C1038.98 13.636 1038.9 13.8787 1038.76 14C1038.63 14.1213 1038.43 14.182 1038.17 14.182C1037.89 14.182 1037.67 14.126 1037.51 14.014C1037.36 13.9113 1037.28 13.6873 1037.26 13.342C1037.25 12.978 1037.25 12.642 1037.27 12.334C1037.3 12.026 1037.32 11.6947 1037.34 11.34C1037.36 11.0787 1037.38 10.7753 1037.4 10.43C1037.43 10.0753 1037.45 9.716 1037.47 9.352C1037.49 8.97867 1037.5 8.61933 1037.51 8.274C1037.53 7.92867 1037.54 7.62067 1037.54 7.35C1037.54 6.92067 1037.6 6.61733 1037.72 6.44C1037.85 6.25333 1038.08 6.16 1038.41 6.16C1038.66 6.16 1038.88 6.22067 1039.08 6.342C1039.27 6.454 1039.5 6.66867 1039.76 6.986C1039.98 7.22867 1040.17 7.45267 1040.34 7.658C1040.52 7.86333 1040.69 8.07333 1040.87 8.288C1041.05 8.49333 1041.23 8.722 1041.42 8.974C1041.57 9.16067 1041.72 9.36133 1041.89 9.576C1042.06 9.79067 1042.22 10.0053 1042.38 10.22C1042.55 10.4253 1042.7 10.6167 1042.82 10.794C1042.82 10.4953 1042.82 10.206 1042.83 9.926C1042.84 9.63667 1042.85 9.37067 1042.86 9.128C1042.88 8.876 1042.89 8.67067 1042.9 8.512C1042.98 7.90533 1043.05 7.38267 1043.14 6.944C1043.23 6.496 1043.36 6.15533 1043.52 5.922C1043.68 5.67933 1043.89 5.558 1044.16 5.558C1044.42 5.558 1044.6 5.614 1044.69 5.726C1044.79 5.838 1044.83 6.006 1044.83 6.23C1044.83 6.35133 1044.81 6.524 1044.78 6.748C1044.74 6.96267 1044.7 7.252 1044.65 7.616C1044.61 7.98 1044.58 8.45133 1044.54 9.03C1044.51 9.60867 1044.5 10.318 1044.5 11.158ZM1053.89 10.556C1053.89 11.004 1053.88 11.4333 1053.86 11.844C1053.84 12.2547 1053.81 12.628 1053.76 12.964C1053.71 13.384 1053.6 13.692 1053.44 13.888C1053.28 14.0747 1053.05 14.168 1052.74 14.168C1052.44 14.168 1052.24 14.1213 1052.12 14.028C1052.01 13.9347 1051.96 13.7713 1051.96 13.538C1051.95 13.482 1051.94 13.4167 1051.94 13.342C1051.95 13.2673 1051.96 13.202 1051.97 13.146C1052.01 12.7073 1052.04 12.2733 1052.05 11.844C1052.08 11.4147 1052.1 11.0133 1052.1 10.64C1052.1 10.22 1052.07 9.83267 1052.01 9.478C1051.97 9.12333 1051.87 8.81533 1051.73 8.554C1051.6 8.28333 1051.41 8.07333 1051.14 7.924C1050.89 7.77467 1050.56 7.7 1050.14 7.7C1049.73 7.7 1049.34 7.742 1048.99 7.826C1048.63 7.90067 1048.28 8.00333 1047.92 8.134C1047.74 8.19 1047.57 8.23667 1047.42 8.274C1047.27 8.302 1047.14 8.316 1047.03 8.316C1046.82 8.316 1046.66 8.20867 1046.52 7.994C1046.39 7.77 1046.33 7.52267 1046.33 7.252C1046.33 7.056 1046.39 6.874 1046.51 6.706C1046.63 6.538 1046.81 6.398 1047.04 6.286C1047.53 6.07133 1048.01 5.91267 1048.48 5.81C1048.97 5.698 1049.53 5.642 1050.16 5.642C1050.91 5.642 1051.53 5.75867 1052.01 5.992C1052.5 6.22533 1052.88 6.56133 1053.15 7C1053.42 7.42933 1053.61 7.94733 1053.72 8.554C1053.83 9.15133 1053.89 9.81867 1053.89 10.556ZM1047.66 14.14C1047.4 14.14 1047.2 14.07 1047.07 13.93C1046.94 13.7807 1046.89 13.5753 1046.93 13.314C1046.99 12.9313 1047.03 12.5487 1047.06 12.166C1047.09 11.7833 1047.11 11.3867 1047.1 10.976C1047.1 10.836 1047.09 10.696 1047.08 10.556C1047.08 10.416 1047.07 10.2807 1047.06 10.15C1047.04 9.99133 1047.08 9.828 1047.2 9.66C1047.32 9.492 1047.5 9.408 1047.74 9.408C1048.04 9.408 1048.26 9.47333 1048.4 9.604C1048.55 9.72533 1048.64 9.93067 1048.67 10.22C1048.69 10.416 1048.71 10.6213 1048.72 10.836C1048.73 11.0507 1048.74 11.27 1048.74 11.494C1048.74 11.8113 1048.73 12.1287 1048.71 12.446C1048.69 12.754 1048.66 13.0527 1048.61 13.342C1048.56 13.6407 1048.46 13.8507 1048.29 13.972C1048.13 14.084 1047.92 14.14 1047.66 14.14ZM1056.32 9.184C1056.32 8.95067 1056.32 8.722 1056.32 8.498C1056.32 8.26467 1056.32 8.036 1056.32 7.812C1056.32 7.588 1056.31 7.364 1056.29 7.14C1056.28 6.79467 1056.36 6.524 1056.53 6.328C1056.7 6.12267 1056.91 6.02 1057.17 6.02C1057.45 6.02 1057.67 6.08533 1057.85 6.216C1058.03 6.33733 1058.18 6.50067 1058.28 6.706C1058.73 7.47133 1059.12 8.134 1059.44 8.694C1059.78 9.24467 1060.07 9.71133 1060.31 10.094C1060.55 10.4673 1060.76 10.7707 1060.93 11.004C1061.09 11.228 1061.23 11.3913 1061.35 11.494C1061.47 11.5873 1061.57 11.634 1061.64 11.634C1061.74 11.634 1061.82 11.5733 1061.88 11.452C1061.94 11.3213 1061.99 11.074 1062.02 10.71C1062.05 10.3367 1062.06 9.79067 1062.06 9.072C1062.06 8.736 1062.06 8.43733 1062.05 8.176C1062.05 7.90533 1062.05 7.658 1062.05 7.434C1062.05 7.20067 1062.05 6.98133 1062.06 6.776C1062.08 6.412 1062.16 6.12733 1062.31 5.922C1062.47 5.71667 1062.73 5.614 1063.08 5.614C1063.31 5.614 1063.47 5.66533 1063.59 5.768C1063.7 5.87067 1063.76 6.06667 1063.77 6.356C1063.78 6.51467 1063.78 6.72 1063.78 6.972C1063.78 7.21467 1063.78 7.47133 1063.78 7.742C1063.78 8.00333 1063.78 8.25533 1063.77 8.498C1063.77 8.74067 1063.77 8.946 1063.77 9.114C1063.77 10.0847 1063.73 10.8827 1063.64 11.508C1063.57 12.124 1063.45 12.6047 1063.29 12.95C1063.14 13.286 1062.95 13.5193 1062.72 13.65C1062.49 13.7807 1062.21 13.846 1061.91 13.846C1061.65 13.846 1061.39 13.7807 1061.14 13.65C1060.88 13.51 1060.61 13.2813 1060.31 12.964C1060.01 12.6373 1059.68 12.1987 1059.3 11.648C1058.93 11.088 1058.49 10.388 1057.97 9.548C1057.97 9.772 1057.97 10.0007 1057.96 10.234C1057.96 10.458 1057.96 10.6727 1057.96 10.878C1057.96 11.074 1057.95 11.2513 1057.94 11.41C1057.93 11.858 1057.9 12.2453 1057.86 12.572C1057.83 12.8987 1057.79 13.1833 1057.73 13.426C1057.67 13.6687 1057.57 13.8553 1057.44 13.986C1057.32 14.1167 1057.15 14.182 1056.94 14.182C1056.69 14.182 1056.52 14.1073 1056.4 13.958C1056.29 13.8087 1056.24 13.5987 1056.24 13.328C1056.25 13.1413 1056.26 12.8427 1056.26 12.432C1056.27 12.012 1056.28 11.522 1056.29 10.962C1056.31 10.402 1056.32 9.80933 1056.32 9.184ZM1077.55 11.508C1077.55 11.6947 1077.54 11.9093 1077.51 12.152C1077.49 12.3947 1077.46 12.628 1077.41 12.852C1077.37 13.076 1077.31 13.2767 1077.25 13.454C1077.15 13.6873 1077.03 13.8553 1076.88 13.958C1076.74 14.0607 1076.58 14.112 1076.39 14.112C1076.28 14.112 1076.16 14.0933 1076.03 14.056C1075.9 14.028 1075.79 13.9673 1075.69 13.874C1075.6 13.7713 1075.55 13.6267 1075.55 13.44C1075.55 13.272 1075.59 13.0153 1075.66 12.67C1075.75 12.3247 1075.79 11.9793 1075.79 11.634C1075.79 10.99 1075.65 10.4393 1075.38 9.982C1075.12 9.51533 1074.72 9.12333 1074.17 8.806C1073.62 8.47933 1072.9 8.21333 1072.02 8.008C1072.21 8.68 1072.35 9.34267 1072.44 9.996C1072.54 10.64 1072.58 11.2747 1072.58 11.9C1072.58 12.5347 1072.5 13.09 1072.33 13.566C1072.16 14.042 1071.94 14.4527 1071.66 14.798C1071.38 15.1433 1071.07 15.4233 1070.74 15.638C1070.41 15.8527 1070.08 16.0207 1069.76 16.142C1069.59 16.198 1069.43 16.2353 1069.28 16.254C1069.13 16.282 1069 16.296 1068.87 16.296C1068.6 16.296 1068.41 16.226 1068.29 16.086C1068.16 15.9553 1068.1 15.8013 1068.1 15.624C1068.1 15.484 1068.12 15.3673 1068.16 15.274C1068.2 15.19 1068.27 15.106 1068.38 15.022C1068.5 14.938 1068.65 14.84 1068.86 14.728C1069.23 14.5413 1069.57 14.3127 1069.87 14.042C1070.17 13.7807 1070.4 13.4633 1070.57 13.09C1070.75 12.7073 1070.83 12.25 1070.83 11.718C1070.83 11.298 1070.8 10.8453 1070.74 10.36C1070.68 9.87467 1070.6 9.38 1070.48 8.876C1070.37 8.36267 1070.24 7.86333 1070.08 7.378C1070.05 7.266 1070.02 7.14933 1069.99 7.028C1069.97 6.90667 1069.95 6.79 1069.95 6.678C1069.95 6.342 1070.03 6.09 1070.18 5.922C1070.33 5.74467 1070.55 5.656 1070.82 5.656C1070.86 5.656 1070.9 5.656 1070.95 5.656C1070.99 5.656 1071.03 5.66067 1071.07 5.67C1072.6 5.96867 1073.84 6.36067 1074.8 6.846C1075.75 7.33133 1076.44 7.952 1076.88 8.708C1077.33 9.464 1077.55 10.3973 1077.55 11.508ZM1081.44 8.862C1081.44 9.478 1081.42 10.122 1081.4 10.794C1081.37 11.466 1081.32 12.1473 1081.26 12.838C1081.22 13.3233 1081.11 13.678 1080.92 13.902C1080.74 14.126 1080.51 14.238 1080.22 14.238C1079.96 14.238 1079.77 14.1587 1079.66 14C1079.56 13.832 1079.51 13.6033 1079.52 13.314C1079.55 12.782 1079.57 12.2687 1079.59 11.774C1079.61 11.27 1079.62 10.7753 1079.63 10.29C1079.64 9.79533 1079.65 9.31467 1079.65 8.848C1079.65 8.61467 1079.65 8.344 1079.65 8.036C1079.65 7.728 1079.65 7.42933 1079.65 7.14C1079.65 6.84133 1079.65 6.61733 1079.65 6.468C1079.67 6.19733 1079.73 5.98733 1079.84 5.838C1079.95 5.67933 1080.16 5.6 1080.44 5.6C1080.75 5.6 1080.97 5.66533 1081.1 5.796C1081.23 5.92667 1081.32 6.16 1081.35 6.496C1081.37 6.68267 1081.39 6.91133 1081.4 7.182C1081.42 7.45267 1081.42 7.73267 1081.42 8.022C1081.43 8.31133 1081.44 8.59133 1081.44 8.862ZM1084.77 14.252C1084.5 14.252 1084.23 14.2007 1083.97 14.098C1083.71 13.9953 1083.46 13.818 1083.22 13.566C1083.11 13.4633 1083.02 13.3467 1082.94 13.216C1082.85 13.0853 1082.81 12.95 1082.81 12.81C1082.81 12.642 1082.87 12.4927 1082.98 12.362C1083.09 12.222 1083.23 12.152 1083.39 12.152C1083.46 12.152 1083.54 12.166 1083.64 12.194C1083.73 12.2127 1083.84 12.2547 1083.96 12.32C1084.03 12.3573 1084.1 12.39 1084.17 12.418C1084.24 12.4367 1084.32 12.446 1084.41 12.446C1084.58 12.446 1084.71 12.3853 1084.8 12.264C1084.89 12.1333 1084.95 11.928 1084.98 11.648C1085.02 11.3587 1085.04 10.9667 1085.04 10.472C1085.04 9.61333 1085.04 8.848 1085.05 8.176C1085.07 7.49467 1085.1 6.888 1085.14 6.356C1085.17 5.824 1085.23 5.33867 1085.32 4.9C1085.41 4.396 1085.55 3.98533 1085.72 3.668C1085.91 3.34133 1086.13 3.08467 1086.38 2.898C1086.63 2.702 1086.91 2.548 1087.21 2.436C1087.27 2.41733 1087.34 2.40333 1087.4 2.394C1087.47 2.37533 1087.52 2.366 1087.57 2.366C1087.8 2.366 1088 2.47333 1088.15 2.688C1088.29 2.90267 1088.37 3.12667 1088.37 3.36C1088.37 3.51867 1088.32 3.64933 1088.22 3.752C1088.12 3.85467 1087.99 3.95267 1087.81 4.046C1087.68 4.11133 1087.56 4.19067 1087.46 4.284C1087.36 4.37733 1087.26 4.494 1087.18 4.634C1087.1 4.774 1087.03 4.94667 1086.97 5.152C1086.91 5.348 1086.87 5.59067 1086.83 5.88C1086.79 6.19733 1086.76 6.55667 1086.73 6.958C1086.71 7.35933 1086.7 7.76067 1086.69 8.162C1086.69 8.56333 1086.69 8.92733 1086.69 9.254C1086.69 9.57133 1086.68 9.86533 1086.68 10.136C1086.68 10.4067 1086.68 10.668 1086.68 10.92C1086.68 11.592 1086.62 12.18 1086.51 12.684C1086.4 13.1787 1086.22 13.566 1085.95 13.846C1085.68 14.1167 1085.28 14.252 1084.77 14.252ZM1088.8 6.482C1088.79 6.16467 1088.88 5.94067 1089.07 5.81C1089.26 5.67933 1089.51 5.614 1089.81 5.614C1090.12 5.614 1090.32 5.69333 1090.42 5.852C1090.53 6.00133 1090.58 6.22067 1090.59 6.51C1090.6 6.986 1090.6 7.504 1090.59 8.064C1090.59 8.624 1090.57 9.17 1090.54 9.702C1090.51 10.206 1090.24 10.458 1089.72 10.458C1089.57 10.458 1089.42 10.4393 1089.28 10.402C1089.15 10.3553 1089.04 10.276 1088.95 10.164C1088.88 10.0427 1088.84 9.87 1088.84 9.646C1088.83 9.13267 1088.83 8.60067 1088.83 8.05C1088.83 7.49933 1088.82 6.97667 1088.8 6.482ZM1098.93 10.934C1098.93 11.998 1098.71 12.81 1098.27 13.37C1097.83 13.93 1097.23 14.21 1096.47 14.21C1096.05 14.21 1095.69 14.14 1095.39 14C1095.09 13.8693 1094.82 13.692 1094.59 13.468C1094.37 13.2347 1094.14 12.9733 1093.92 12.684C1093.88 12.628 1093.85 12.5907 1093.82 12.572C1093.8 12.5533 1093.77 12.544 1093.74 12.544C1093.69 12.544 1093.65 12.5627 1093.62 12.6C1093.61 12.628 1093.58 12.6747 1093.54 12.74C1093.44 12.9733 1093.33 13.1973 1093.23 13.412C1093.13 13.6173 1093.03 13.818 1092.92 14.014C1092.76 14.322 1092.55 14.476 1092.29 14.476C1092.2 14.476 1092.07 14.4433 1091.9 14.378C1091.74 14.322 1091.6 14.238 1091.48 14.126C1091.36 14.014 1091.3 13.888 1091.3 13.748C1091.3 13.6733 1091.31 13.594 1091.33 13.51C1091.36 13.426 1091.39 13.342 1091.44 13.258C1091.59 12.978 1091.74 12.6793 1091.9 12.362C1092.06 12.0353 1092.21 11.718 1092.35 11.41C1092.49 11.102 1092.65 10.8687 1092.83 10.71C1093 10.5513 1093.2 10.472 1093.41 10.472C1093.61 10.472 1093.78 10.5187 1093.93 10.612C1094.08 10.7053 1094.23 10.85 1094.38 11.046C1094.59 11.3073 1094.77 11.536 1094.94 11.732C1095.12 11.9187 1095.29 12.0633 1095.47 12.166C1095.66 12.2687 1095.87 12.32 1096.12 12.32C1096.46 12.32 1096.72 12.194 1096.9 11.942C1097.08 11.6807 1097.17 11.2933 1097.17 10.78C1097.17 10.2947 1097.09 9.87 1096.93 9.506C1096.78 9.13267 1096.57 8.82467 1096.31 8.582C1096.06 8.33 1095.78 8.14333 1095.47 8.022C1095.16 7.90067 1094.86 7.84 1094.55 7.84C1094.27 7.84 1094.01 7.87267 1093.78 7.938C1093.55 7.994 1093.33 8.07333 1093.09 8.176C1092.99 8.21333 1092.89 8.24133 1092.8 8.26C1092.7 8.27867 1092.62 8.288 1092.55 8.288C1092.38 8.288 1092.23 8.218 1092.11 8.078C1091.99 7.92867 1091.9 7.76533 1091.85 7.588C1091.79 7.40133 1091.76 7.252 1091.76 7.14C1091.76 6.944 1091.82 6.776 1091.93 6.636C1092.05 6.496 1092.2 6.37933 1092.38 6.286C1092.78 6.08067 1093.14 5.936 1093.47 5.852C1093.81 5.75867 1094.21 5.712 1094.67 5.712C1095.24 5.712 1095.78 5.83333 1096.3 6.076C1096.81 6.30933 1097.26 6.65 1097.66 7.098C1098.05 7.546 1098.36 8.09667 1098.58 8.75C1098.81 9.394 1098.93 10.122 1098.93 10.934ZM1100.96 6.79C1100.98 6.55667 1101.01 6.34667 1101.06 6.16C1101.11 5.97333 1101.2 5.82867 1101.31 5.726C1101.42 5.614 1101.59 5.558 1101.81 5.558C1102.12 5.558 1102.35 5.66067 1102.5 5.866C1102.66 6.07133 1102.73 6.31867 1102.72 6.608C1102.72 6.86933 1102.71 7.14 1102.7 7.42C1102.7 7.69067 1102.7 7.98 1102.7 8.288C1102.7 8.82 1102.69 9.366 1102.68 9.926C1102.67 10.486 1102.67 11.0507 1102.67 11.62C1102.67 12.18 1102.68 12.74 1102.7 13.3C1102.71 13.5893 1102.65 13.8133 1102.51 13.972C1102.38 14.1213 1102.14 14.196 1101.79 14.196C1101.48 14.196 1101.28 14.1353 1101.2 14.014C1101.11 13.8927 1101.06 13.72 1101.03 13.496C1100.99 12.9827 1100.96 12.4693 1100.93 11.956C1100.9 11.4427 1100.89 10.934 1100.88 10.43C1100.87 9.91667 1100.87 9.41267 1100.88 8.918C1100.88 8.50733 1100.89 8.12 1100.9 7.756C1100.92 7.38267 1100.94 7.06067 1100.96 6.79ZM1112.11 11.004C1112.11 11.3587 1112.11 11.7133 1112.12 12.068C1112.13 12.4133 1112.14 12.754 1112.16 13.09C1112.19 13.4447 1112.13 13.6967 1111.98 13.846C1111.83 13.986 1111.63 14.056 1111.38 14.056C1111.18 14.056 1111 14.028 1110.82 13.972C1110.65 13.9067 1110.49 13.79 1110.34 13.622C1110.02 13.2207 1109.71 12.852 1109.42 12.516C1109.14 12.1707 1108.86 11.8207 1108.58 11.466C1108.3 11.1113 1107.99 10.7287 1107.65 10.318C1107.58 10.2247 1107.5 10.122 1107.4 10.01C1107.31 9.898 1107.21 9.78133 1107.11 9.66C1107.02 9.53867 1106.92 9.42667 1106.83 9.324C1106.74 9.22133 1106.65 9.128 1106.58 9.044C1106.57 9.27733 1106.56 9.548 1106.56 9.856C1106.56 10.1547 1106.56 10.4627 1106.55 10.78C1106.54 11.284 1106.53 11.746 1106.52 12.166C1106.52 12.5767 1106.51 12.9407 1106.49 13.258C1106.47 13.622 1106.4 13.8693 1106.27 14C1106.14 14.1307 1105.94 14.196 1105.68 14.196C1105.4 14.196 1105.18 14.14 1105.01 14.028C1104.85 13.916 1104.76 13.6873 1104.74 13.342C1104.73 12.978 1104.74 12.6093 1104.76 12.236C1104.78 11.8533 1104.8 11.4753 1104.81 11.102C1104.83 10.7287 1104.85 10.3787 1104.85 10.052C1104.86 9.72533 1104.87 9.41267 1104.88 9.114C1104.9 8.81533 1104.92 8.51667 1104.92 8.218L1104.95 7.574C1104.96 7.13533 1105.05 6.818 1105.2 6.622C1105.36 6.426 1105.59 6.328 1105.88 6.328C1106.13 6.328 1106.36 6.398 1106.56 6.538C1106.78 6.66867 1107.02 6.89267 1107.29 7.21C1107.49 7.434 1107.67 7.644 1107.84 7.84C1108 8.036 1108.17 8.23667 1108.34 8.442C1108.52 8.64733 1108.71 8.876 1108.91 9.128C1109.08 9.324 1109.26 9.534 1109.43 9.758C1109.61 9.982 1109.79 10.2013 1109.96 10.416C1110.14 10.6307 1110.3 10.8267 1110.44 11.004C1110.44 10.6867 1110.44 10.3787 1110.44 10.08C1110.44 9.772 1110.44 9.48733 1110.44 9.226C1110.45 8.96467 1110.46 8.74067 1110.47 8.554C1110.5 7.89133 1110.54 7.35 1110.61 6.93C1110.67 6.51 1110.78 6.202 1110.92 6.006C1111.06 5.81 1111.25 5.712 1111.5 5.712C1111.75 5.712 1111.92 5.782 1112.04 5.922C1112.16 6.05267 1112.22 6.23 1112.22 6.454C1112.22 6.57533 1112.21 6.73867 1112.2 6.944C1112.2 7.14 1112.18 7.406 1112.16 7.742C1112.14 8.06867 1112.13 8.498 1112.12 9.03C1112.11 9.55267 1112.11 10.2107 1112.11 11.004ZM1126.18 11.508C1126.18 11.6947 1126.17 11.9093 1126.14 12.152C1126.12 12.3947 1126.09 12.628 1126.04 12.852C1126 13.076 1125.94 13.2767 1125.88 13.454C1125.78 13.6873 1125.66 13.8553 1125.51 13.958C1125.37 14.0607 1125.21 14.112 1125.02 14.112C1124.91 14.112 1124.79 14.0933 1124.66 14.056C1124.53 14.028 1124.42 13.9673 1124.32 13.874C1124.23 13.7713 1124.18 13.6267 1124.18 13.44C1124.18 13.272 1124.22 13.0153 1124.29 12.67C1124.38 12.3247 1124.42 11.9793 1124.42 11.634C1124.42 10.99 1124.29 10.4393 1124.01 9.982C1123.75 9.51533 1123.35 9.12333 1122.8 8.806C1122.25 8.47933 1121.53 8.21333 1120.65 8.008C1120.84 8.68 1120.98 9.34267 1121.07 9.996C1121.17 10.64 1121.21 11.2747 1121.21 11.9C1121.21 12.5347 1121.13 13.09 1120.96 13.566C1120.79 14.042 1120.57 14.4527 1120.29 14.798C1120.01 15.1433 1119.7 15.4233 1119.37 15.638C1119.04 15.8527 1118.71 16.0207 1118.39 16.142C1118.22 16.198 1118.06 16.2353 1117.91 16.254C1117.76 16.282 1117.63 16.296 1117.5 16.296C1117.23 16.296 1117.04 16.226 1116.92 16.086C1116.8 15.9553 1116.73 15.8013 1116.73 15.624C1116.73 15.484 1116.75 15.3673 1116.79 15.274C1116.83 15.19 1116.9 15.106 1117.01 15.022C1117.13 14.938 1117.29 14.84 1117.49 14.728C1117.86 14.5413 1118.2 14.3127 1118.5 14.042C1118.8 13.7807 1119.03 13.4633 1119.2 13.09C1119.38 12.7073 1119.46 12.25 1119.46 11.718C1119.46 11.298 1119.43 10.8453 1119.37 10.36C1119.31 9.87467 1119.23 9.38 1119.11 8.876C1119 8.36267 1118.87 7.86333 1118.71 7.378C1118.68 7.266 1118.65 7.14933 1118.62 7.028C1118.6 6.90667 1118.58 6.79 1118.58 6.678C1118.58 6.342 1118.66 6.09 1118.81 5.922C1118.97 5.74467 1119.18 5.656 1119.45 5.656C1119.49 5.656 1119.53 5.656 1119.58 5.656C1119.62 5.656 1119.67 5.66067 1119.7 5.67C1121.23 5.96867 1122.47 6.36067 1123.43 6.846C1124.38 7.33133 1125.07 7.952 1125.51 8.708C1125.96 9.464 1126.18 10.3973 1126.18 11.508ZM1130.07 8.862C1130.07 9.478 1130.06 10.122 1130.03 10.794C1130 11.466 1129.95 12.1473 1129.89 12.838C1129.85 13.3233 1129.74 13.678 1129.55 13.902C1129.37 14.126 1129.14 14.238 1128.85 14.238C1128.59 14.238 1128.4 14.1587 1128.29 14C1128.19 13.832 1128.14 13.6033 1128.15 13.314C1128.18 12.782 1128.2 12.2687 1128.22 11.774C1128.24 11.27 1128.25 10.7753 1128.26 10.29C1128.27 9.79533 1128.28 9.31467 1128.28 8.848C1128.28 8.61467 1128.28 8.344 1128.28 8.036C1128.28 7.728 1128.28 7.42933 1128.28 7.14C1128.28 6.84133 1128.28 6.61733 1128.28 6.468C1128.3 6.19733 1128.36 5.98733 1128.47 5.838C1128.59 5.67933 1128.79 5.6 1129.08 5.6C1129.38 5.6 1129.6 5.66533 1129.73 5.796C1129.86 5.92667 1129.95 6.16 1129.99 6.496C1130 6.68267 1130.02 6.91133 1130.03 7.182C1130.05 7.45267 1130.06 7.73267 1130.06 8.022C1130.06 8.31133 1130.07 8.59133 1130.07 8.862ZM1138.57 11.032C1138.57 11.4707 1138.55 11.9047 1138.51 12.334C1138.47 12.754 1138.42 13.1133 1138.36 13.412C1138.31 13.664 1138.2 13.8553 1138.02 13.986C1137.85 14.1167 1137.64 14.182 1137.39 14.182C1137.12 14.182 1136.92 14.14 1136.78 14.056C1136.64 13.972 1136.57 13.832 1136.57 13.636C1136.57 13.608 1136.57 13.58 1136.57 13.552C1136.58 13.524 1136.58 13.496 1136.58 13.468C1136.64 13.16 1136.68 12.824 1136.72 12.46C1136.76 12.096 1136.78 11.6993 1136.78 11.27C1136.78 10.3927 1136.65 9.69733 1136.41 9.184C1136.18 8.67067 1135.85 8.302 1135.42 8.078C1134.99 7.84467 1134.48 7.728 1133.89 7.728C1133.5 7.728 1133.13 7.76533 1132.77 7.84C1132.68 7.868 1132.59 7.88667 1132.51 7.896C1132.42 7.90533 1132.34 7.91 1132.27 7.91C1132.03 7.91 1131.86 7.84467 1131.74 7.714C1131.61 7.58333 1131.54 7.434 1131.5 7.266C1131.46 7.098 1131.44 6.95333 1131.44 6.832C1131.44 6.68267 1131.48 6.54733 1131.57 6.426C1131.65 6.30467 1131.78 6.19733 1131.96 6.104C1132.24 5.964 1132.56 5.85667 1132.91 5.782C1133.27 5.70733 1133.61 5.67 1133.95 5.67C1134.86 5.67 1135.67 5.852 1136.36 6.216C1137.06 6.57067 1137.6 7.14467 1137.98 7.938C1138.37 8.722 1138.57 9.75333 1138.57 11.032ZM1147.43 11.06C1147.43 12.1053 1147.21 12.894 1146.78 13.426C1146.35 13.9487 1145.79 14.21 1145.09 14.21C1144.72 14.21 1144.37 14.1447 1144.07 14.014C1143.77 13.8833 1143.49 13.734 1143.24 13.566C1142.99 13.398 1142.76 13.2487 1142.57 13.118C1142.38 12.978 1142.21 12.908 1142.06 12.908C1141.93 12.908 1141.81 12.9733 1141.69 13.104C1141.57 13.2253 1141.45 13.3933 1141.34 13.608C1141.23 13.8133 1141.13 14.0467 1141.03 14.308C1140.89 14.672 1140.68 14.854 1140.4 14.854C1140.3 14.854 1140.17 14.826 1140.02 14.77C1139.88 14.7233 1139.75 14.644 1139.64 14.532C1139.53 14.4293 1139.47 14.2987 1139.47 14.14C1139.47 14 1139.51 13.8413 1139.59 13.664C1139.78 13.188 1139.98 12.7447 1140.17 12.334C1140.38 11.914 1140.61 11.5733 1140.86 11.312C1141.12 11.0507 1141.43 10.92 1141.77 10.92C1142.04 10.92 1142.31 10.99 1142.57 11.13C1142.83 11.27 1143.09 11.4333 1143.34 11.62C1143.59 11.8067 1143.83 11.97 1144.07 12.11C1144.31 12.25 1144.54 12.32 1144.75 12.32C1145.05 12.32 1145.28 12.208 1145.42 11.984C1145.58 11.76 1145.66 11.4193 1145.66 10.962C1145.66 10.5047 1145.61 10.08 1145.51 9.688C1145.41 9.296 1145.25 8.95533 1145.05 8.666C1144.85 8.37667 1144.6 8.15267 1144.3 7.994C1144.01 7.83533 1143.66 7.756 1143.25 7.756C1142.97 7.756 1142.7 7.784 1142.47 7.84C1142.24 7.896 1142 7.97533 1141.76 8.078C1141.65 8.11533 1141.56 8.14333 1141.46 8.162C1141.38 8.18067 1141.29 8.19 1141.21 8.19C1141.04 8.19 1140.9 8.12 1140.78 7.98C1140.66 7.84 1140.57 7.68133 1140.51 7.504C1140.45 7.31733 1140.43 7.16333 1140.43 7.042C1140.43 6.83667 1140.48 6.66867 1140.59 6.538C1140.72 6.398 1140.87 6.28133 1141.04 6.188C1141.45 5.992 1141.83 5.852 1142.16 5.768C1142.51 5.684 1142.91 5.642 1143.37 5.642C1144.04 5.642 1144.63 5.77733 1145.13 6.048C1145.63 6.30933 1146.05 6.68267 1146.39 7.168C1146.74 7.65333 1146.99 8.22733 1147.16 8.89C1147.34 9.55267 1147.43 10.276 1147.43 11.06ZM1157.13 11.438C1157.13 11.774 1157.11 12.0867 1157.07 12.376C1157.04 12.656 1156.99 12.9453 1156.93 13.244C1156.88 13.496 1156.78 13.7247 1156.62 13.93C1156.47 14.126 1156.25 14.224 1155.96 14.224C1155.72 14.224 1155.53 14.1773 1155.4 14.084C1155.27 13.9907 1155.21 13.8087 1155.21 13.538C1155.21 13.5007 1155.21 13.4587 1155.21 13.412C1155.21 13.3653 1155.21 13.314 1155.22 13.258C1155.26 12.9967 1155.29 12.7447 1155.31 12.502C1155.33 12.25 1155.35 11.9887 1155.35 11.718C1155.35 11.1487 1155.3 10.6213 1155.19 10.136C1155.09 9.64133 1154.92 9.212 1154.69 8.848C1154.46 8.47467 1154.14 8.18533 1153.74 7.98C1153.35 7.77467 1152.85 7.672 1152.25 7.672C1152.17 7.672 1152.08 7.67667 1151.97 7.686C1151.88 7.686 1151.79 7.69533 1151.71 7.714C1151.63 7.72333 1151.58 7.75133 1151.55 7.798C1151.53 7.83533 1151.53 7.896 1151.53 7.98C1151.52 8.46533 1151.5 8.95067 1151.48 9.436C1151.46 9.912 1151.44 10.3787 1151.41 10.836C1151.39 11.2933 1151.37 11.732 1151.33 12.152C1151.29 12.5627 1151.25 12.9407 1151.2 13.286C1151.16 13.678 1151.04 13.9253 1150.87 14.028C1150.7 14.1307 1150.48 14.182 1150.22 14.182C1149.91 14.182 1149.68 14.1027 1149.55 13.944C1149.42 13.776 1149.38 13.4633 1149.43 13.006C1149.48 12.558 1149.52 12.1053 1149.55 11.648C1149.59 11.1907 1149.62 10.7147 1149.65 10.22C1149.68 9.72533 1149.7 9.20733 1149.71 8.666C1149.71 8.47933 1149.69 8.28333 1149.62 8.078C1149.57 7.87267 1149.51 7.66733 1149.45 7.462C1149.41 7.24733 1149.38 7.04667 1149.38 6.86C1149.4 6.65467 1149.45 6.45867 1149.54 6.272C1149.62 6.08533 1149.73 5.93133 1149.87 5.81C1150.01 5.68867 1150.16 5.628 1150.32 5.628C1150.48 5.628 1150.62 5.642 1150.76 5.67C1150.9 5.68867 1151.02 5.698 1151.12 5.698C1151.28 5.698 1151.46 5.68867 1151.68 5.67C1151.89 5.65133 1152.1 5.642 1152.3 5.642C1153.22 5.642 1153.99 5.796 1154.61 6.104C1155.22 6.40267 1155.71 6.818 1156.08 7.35C1156.45 7.882 1156.71 8.498 1156.87 9.198C1157.04 9.898 1157.13 10.6447 1157.13 11.438ZM1167.38 12.166C1167.38 12.3993 1167.3 12.5767 1167.14 12.698C1166.99 12.81 1166.79 12.866 1166.54 12.866C1166.28 12.866 1166.07 12.81 1165.91 12.698C1165.75 12.5767 1165.67 12.3993 1165.67 12.166C1165.67 11.9513 1165.67 11.662 1165.67 11.298C1165.68 10.934 1165.69 10.5373 1165.69 10.108C1165.7 9.67867 1165.7 9.24933 1165.7 8.82C1165.71 8.38133 1165.72 7.98 1165.72 7.616C1165.72 7.252 1165.72 6.96267 1165.72 6.748C1165.71 6.51467 1165.78 6.342 1165.93 6.23C1166.08 6.10867 1166.29 6.048 1166.56 6.048C1166.82 6.048 1167.02 6.10867 1167.17 6.23C1167.32 6.342 1167.4 6.51467 1167.41 6.748C1167.42 6.944 1167.42 7.21933 1167.42 7.574C1167.43 7.91933 1167.43 8.30667 1167.42 8.736C1167.42 9.156 1167.42 9.58533 1167.41 10.024C1167.41 10.4627 1167.41 10.8733 1167.4 11.256C1167.4 11.6293 1167.39 11.9327 1167.38 12.166ZM1163.83 10.29C1163.61 10.29 1163.44 10.22 1163.32 10.08C1163.21 9.94 1163.15 9.74867 1163.15 9.506C1163.15 9.254 1163.21 9.05333 1163.32 8.904C1163.44 8.74533 1163.61 8.666 1163.83 8.666C1164.07 8.666 1164.4 8.666 1164.82 8.666C1165.24 8.666 1165.69 8.67067 1166.16 8.68C1166.65 8.68 1167.12 8.68467 1167.56 8.694C1168.02 8.70333 1168.41 8.71267 1168.73 8.722C1169.05 8.722 1169.26 8.722 1169.36 8.722C1169.56 8.722 1169.72 8.79667 1169.82 8.946C1169.92 9.086 1169.97 9.27733 1169.97 9.52C1169.97 9.76267 1169.92 9.95867 1169.82 10.108C1169.72 10.248 1169.56 10.318 1169.36 10.318C1169.3 10.318 1169.12 10.318 1168.81 10.318C1168.51 10.318 1168.13 10.318 1167.68 10.318C1167.23 10.3087 1166.76 10.304 1166.26 10.304C1165.78 10.2947 1165.31 10.29 1164.88 10.29C1164.45 10.29 1164.1 10.29 1163.83 10.29ZM1171.88 6.3C1171.92 5.89867 1172.04 5.516 1172.26 5.152C1172.47 4.77867 1172.75 4.44733 1173.1 4.158C1173.44 3.86867 1173.84 3.64467 1174.29 3.486C1174.75 3.318 1175.23 3.234 1175.75 3.234C1176.26 3.234 1176.74 3.31333 1177.2 3.472C1177.67 3.63067 1178.08 3.85933 1178.45 4.158C1178.81 4.44733 1179.1 4.80667 1179.3 5.236C1179.52 5.656 1179.62 6.132 1179.62 6.664C1179.62 7.224 1179.52 7.756 1179.3 8.26C1179.1 8.75467 1178.82 9.226 1178.46 9.674C1178.11 10.122 1177.71 10.5373 1177.29 10.92C1176.86 11.3027 1176.42 11.662 1175.98 11.998C1176.38 11.9887 1176.73 11.9933 1177.06 12.012C1177.39 12.0213 1177.69 12.0447 1177.97 12.082C1178.26 12.11 1178.53 12.1473 1178.78 12.194C1179.04 12.2407 1179.3 12.2873 1179.54 12.334C1179.84 12.3993 1180.06 12.5113 1180.2 12.67C1180.35 12.8193 1180.39 13.0433 1180.34 13.342C1180.29 13.6687 1180.16 13.8927 1179.95 14.014C1179.74 14.1353 1179.5 14.1727 1179.23 14.126C1178.77 14.042 1178.24 13.9533 1177.64 13.86C1177.04 13.7667 1176.39 13.7153 1175.7 13.706C1175.49 13.6967 1175.26 13.7013 1175.03 13.72C1174.8 13.7293 1174.58 13.7433 1174.39 13.762C1174.19 13.7713 1174.04 13.79 1173.93 13.818C1173.79 13.93 1173.65 14.0233 1173.49 14.098C1173.33 14.1727 1173.16 14.21 1172.96 14.21C1172.77 14.21 1172.6 14.1493 1172.46 14.028C1172.32 13.916 1172.22 13.7573 1172.18 13.552C1172.12 13.3373 1172.12 13.146 1172.19 12.978C1172.25 12.8007 1172.38 12.656 1172.57 12.544C1173.18 12.1613 1173.79 11.746 1174.39 11.298C1174.99 10.8407 1175.54 10.3693 1176.04 9.884C1176.53 9.38933 1176.93 8.89 1177.23 8.386C1177.53 7.882 1177.68 7.392 1177.68 6.916C1177.68 6.496 1177.6 6.132 1177.44 5.824C1177.28 5.516 1177.05 5.278 1176.75 5.11C1176.45 4.942 1176.1 4.858 1175.68 4.858C1175.36 4.858 1175.06 4.92333 1174.78 5.054C1174.5 5.18467 1174.26 5.37133 1174.05 5.614C1173.86 5.84733 1173.72 6.12733 1173.63 6.454C1173.6 6.60333 1173.52 6.72933 1173.39 6.832C1173.26 6.93467 1173.05 6.986 1172.75 6.986C1172.48 6.986 1172.26 6.92533 1172.11 6.804C1171.96 6.68267 1171.88 6.51467 1171.88 6.3ZM1182.92 3.878C1182.95 3.74733 1183.01 3.64933 1183.12 3.584C1183.23 3.50933 1183.34 3.472 1183.47 3.472C1183.87 3.444 1184.16 3.50467 1184.35 3.654C1184.53 3.80333 1184.62 3.92933 1184.6 4.032C1184.59 4.116 1184.56 4.31667 1184.5 4.634C1184.45 4.95133 1184.38 5.32933 1184.31 5.768C1184.23 6.20667 1184.15 6.65467 1184.05 7.112C1183.97 7.56933 1183.89 7.98467 1183.8 8.358L1182.85 8.442C1183.34 8.00333 1183.83 7.7 1184.31 7.532C1184.79 7.35467 1185.24 7.266 1185.65 7.266C1186.29 7.266 1186.86 7.41533 1187.34 7.714C1187.84 8.00333 1188.22 8.4 1188.49 8.904C1188.77 9.408 1188.91 9.97733 1188.91 10.612C1188.91 11.2747 1188.76 11.8813 1188.46 12.432C1188.17 12.9827 1187.74 13.426 1187.19 13.762C1186.65 14.0887 1186 14.252 1185.24 14.252C1184.87 14.252 1184.49 14.2193 1184.1 14.154C1183.71 14.0887 1183.35 13.9907 1183 13.86C1182.67 13.7293 1182.36 13.58 1182.09 13.412C1182 13.356 1181.93 13.2813 1181.88 13.188C1181.84 13.0853 1181.81 12.9873 1181.81 12.894C1181.81 12.7727 1181.85 12.6327 1181.91 12.474C1181.99 12.3153 1182.08 12.18 1182.18 12.068C1182.29 11.9467 1182.4 11.886 1182.51 11.886C1182.59 11.886 1182.67 11.9 1182.75 11.928C1182.84 11.956 1182.92 11.9887 1182.99 12.026C1183.21 12.138 1183.44 12.2407 1183.66 12.334C1183.9 12.418 1184.13 12.488 1184.38 12.544C1184.62 12.5907 1184.88 12.614 1185.17 12.614C1185.6 12.614 1185.95 12.516 1186.21 12.32C1186.47 12.124 1186.66 11.8767 1186.77 11.578C1186.89 11.27 1186.95 10.9527 1186.95 10.626C1186.95 10.346 1186.89 10.0753 1186.77 9.814C1186.66 9.55267 1186.48 9.338 1186.22 9.17C1185.97 8.99267 1185.64 8.904 1185.23 8.904C1184.79 8.904 1184.4 8.97867 1184.05 9.128C1183.72 9.268 1183.34 9.51533 1182.91 9.87C1182.8 9.94467 1182.7 9.982 1182.6 9.982C1182.49 9.982 1182.37 9.95867 1182.26 9.912C1182.15 9.856 1182.07 9.76267 1182.01 9.632C1181.95 9.50133 1181.94 9.32867 1181.98 9.114C1182.12 8.47933 1182.24 7.87733 1182.35 7.308C1182.45 6.72933 1182.55 6.16 1182.64 5.6C1182.73 5.03067 1182.83 4.45667 1182.92 3.878ZM1182.39 4.13C1182.39 3.92467 1182.43 3.766 1182.5 3.654C1182.58 3.53267 1182.68 3.44867 1182.79 3.402C1182.91 3.346 1183.01 3.32267 1183.1 3.332C1183.38 3.34133 1183.72 3.346 1184.11 3.346C1184.5 3.346 1184.92 3.34133 1185.37 3.332C1185.82 3.32267 1186.27 3.30867 1186.71 3.29C1187.16 3.262 1187.58 3.22933 1187.97 3.192C1188.16 3.17333 1188.31 3.22933 1188.44 3.36C1188.56 3.49067 1188.62 3.71 1188.62 4.018C1188.62 4.354 1188.55 4.58733 1188.41 4.718C1188.28 4.83933 1188.09 4.914 1187.85 4.942C1187.46 4.97933 1187 5.01667 1186.49 5.054C1185.99 5.082 1185.45 5.10067 1184.89 5.11C1184.34 5.11933 1183.8 5.11933 1183.26 5.11C1183.15 5.10067 1183.03 5.07733 1182.89 5.04C1182.75 4.99333 1182.63 4.9 1182.53 4.76C1182.43 4.62 1182.39 4.41 1182.39 4.13ZM1194.94 14.224C1194.14 14.224 1193.45 14.0793 1192.87 13.79C1192.29 13.4913 1191.81 13.09 1191.43 12.586C1191.05 12.0727 1190.77 11.4893 1190.59 10.836C1190.41 10.1827 1190.32 9.50133 1190.32 8.792C1190.32 8.092 1190.41 7.41067 1190.59 6.748C1190.77 6.076 1191.05 5.46933 1191.43 4.928C1191.8 4.38667 1192.27 3.95733 1192.83 3.64C1193.4 3.31333 1194.06 3.15 1194.82 3.15C1194.97 3.15 1195.14 3.15933 1195.35 3.178C1195.56 3.19667 1195.79 3.22467 1196.02 3.262C1196.26 3.29933 1196.49 3.35533 1196.71 3.43C1197.33 3.83133 1197.84 4.34467 1198.23 4.97C1198.63 5.59533 1198.93 6.272 1199.13 7C1199.32 7.728 1199.42 8.44667 1199.42 9.156C1199.42 9.83733 1199.33 10.4813 1199.16 11.088C1198.98 11.6947 1198.7 12.236 1198.33 12.712C1197.96 13.1787 1197.49 13.5473 1196.93 13.818C1196.37 14.0887 1195.71 14.224 1194.94 14.224ZM1192.2 8.68C1192.2 9.14667 1192.24 9.60867 1192.34 10.066C1192.44 10.514 1192.6 10.9247 1192.81 11.298C1193.03 11.662 1193.31 11.956 1193.65 12.18C1194.01 12.404 1194.43 12.516 1194.93 12.516C1195.45 12.516 1195.9 12.3807 1196.27 12.11C1196.65 11.8393 1196.93 11.452 1197.14 10.948C1197.35 10.444 1197.45 9.842 1197.45 9.142C1197.45 8.582 1197.38 8.02667 1197.25 7.476C1197.12 6.916 1196.93 6.412 1196.66 5.964C1196.4 5.516 1196.08 5.18933 1195.68 4.984C1195.54 4.93733 1195.4 4.90467 1195.26 4.886C1195.12 4.86733 1194.98 4.858 1194.83 4.858C1194.39 4.858 1194.01 4.95133 1193.7 5.138C1193.39 5.32467 1193.14 5.56733 1192.94 5.866C1192.74 6.16467 1192.59 6.49133 1192.48 6.846C1192.38 7.19133 1192.3 7.52733 1192.25 7.854C1192.22 8.17133 1192.2 8.44667 1192.2 8.68ZM1060.56 34.28C1060.24 34.2707 1059.97 34.1773 1059.74 34C1059.51 33.832 1059.4 33.5987 1059.4 33.3C1059.4 33.0853 1059.45 32.88 1059.54 32.684C1059.63 32.488 1059.77 32.3247 1059.96 32.194C1060.16 32.0633 1060.4 31.998 1060.69 31.998C1061.06 31.998 1061.33 32.1053 1061.5 32.32C1061.68 32.5347 1061.77 32.782 1061.77 33.062C1061.77 33.3887 1061.65 33.6733 1061.42 33.916C1061.18 34.1587 1060.9 34.28 1060.56 34.28ZM1063.75 26.79C1063.76 26.5567 1063.8 26.3467 1063.84 26.16C1063.9 25.9733 1063.98 25.8287 1064.1 25.726C1064.21 25.614 1064.38 25.558 1064.6 25.558C1064.91 25.558 1065.14 25.6607 1065.29 25.866C1065.44 26.0713 1065.52 26.3187 1065.51 26.608C1065.5 26.8693 1065.49 27.14 1065.48 27.42C1065.48 27.6907 1065.48 27.98 1065.48 28.288C1065.48 28.82 1065.48 29.366 1065.47 29.926C1065.46 30.486 1065.45 31.0507 1065.45 31.62C1065.45 32.18 1065.46 32.74 1065.48 33.3C1065.49 33.5893 1065.43 33.8133 1065.3 33.972C1065.17 34.1213 1064.93 34.196 1064.57 34.196C1064.26 34.196 1064.07 34.1353 1063.98 34.014C1063.9 33.8927 1063.84 33.72 1063.82 33.496C1063.78 32.9827 1063.75 32.4693 1063.72 31.956C1063.69 31.4427 1063.67 30.934 1063.66 30.43C1063.65 29.9167 1063.65 29.4127 1063.66 28.918C1063.66 28.5073 1063.67 28.12 1063.69 27.756C1063.71 27.3827 1063.73 27.0607 1063.75 26.79ZM1069.89 27.504C1069.9 27.7187 1069.91 27.9707 1069.91 28.26C1069.92 28.5493 1069.92 28.8667 1069.92 29.212C1069.93 29.548 1069.94 29.9027 1069.94 30.276C1069.94 31.1067 1069.92 31.8113 1069.89 32.39C1069.88 32.9687 1069.84 33.4587 1069.78 33.86C1069.74 34.2613 1069.67 34.5973 1069.6 34.868C1069.53 35.148 1069.45 35.3813 1069.35 35.568C1069.25 35.764 1069.14 35.9553 1069.01 36.142C1068.85 36.3567 1068.67 36.5433 1068.45 36.702C1068.24 36.87 1068.01 36.996 1067.78 37.08C1067.55 37.1733 1067.32 37.22 1067.11 37.22C1066.87 37.22 1066.66 37.1547 1066.49 37.024C1066.32 36.8933 1066.24 36.7393 1066.24 36.562C1066.24 36.4033 1066.3 36.2633 1066.41 36.142C1066.52 36.03 1066.64 35.9227 1066.77 35.82C1067.07 35.6147 1067.31 35.3673 1067.49 35.078C1067.66 34.7887 1067.79 34.4293 1067.88 34C1067.97 33.58 1068.03 33.0667 1068.06 32.46C1068.1 31.844 1068.12 31.1067 1068.12 30.248C1068.12 29.7347 1068.11 29.268 1068.1 28.848C1068.09 28.4187 1068.08 28.0267 1068.07 27.672C1068.06 27.3173 1068.06 26.9907 1068.06 26.692C1068.06 26.384 1068.12 26.132 1068.24 25.936C1068.37 25.7307 1068.61 25.628 1068.94 25.628C1069.18 25.628 1069.38 25.684 1069.52 25.796C1069.66 25.908 1069.75 26.076 1069.8 26.3C1069.82 26.4493 1069.84 26.6407 1069.85 26.874C1069.87 27.1073 1069.88 27.3173 1069.89 27.504ZM1078.85 31.2C1078.85 32.1613 1078.65 32.88 1078.26 33.356C1077.87 33.832 1077.33 34.07 1076.66 34.07C1076.19 34.07 1075.74 33.9813 1075.33 33.804C1074.93 33.6173 1074.54 33.3327 1074.17 32.95C1073.8 32.5673 1073.41 32.0727 1073.02 31.466L1074.1 31.2C1073.99 31.4987 1073.85 31.83 1073.68 32.194C1073.51 32.558 1073.34 32.9127 1073.16 33.258C1072.98 33.6033 1072.83 33.8927 1072.69 34.126C1072.59 34.2847 1072.5 34.406 1072.41 34.49C1072.31 34.574 1072.2 34.616 1072.07 34.616C1071.98 34.616 1071.85 34.5787 1071.68 34.504C1071.52 34.4387 1071.37 34.3453 1071.24 34.224C1071.12 34.1027 1071.06 33.9767 1071.06 33.846C1071.06 33.7807 1071.07 33.7107 1071.09 33.636C1071.12 33.5613 1071.15 33.482 1071.2 33.398C1071.36 33.1367 1071.53 32.8287 1071.71 32.474C1071.89 32.11 1072.07 31.746 1072.24 31.382C1072.41 31.018 1072.55 30.6913 1072.67 30.402C1072.73 30.262 1072.83 30.1547 1072.98 30.08C1073.14 29.996 1073.29 29.954 1073.44 29.954C1073.67 29.954 1073.83 30.024 1073.93 30.164C1074.22 30.612 1074.49 30.9853 1074.74 31.284C1075 31.5827 1075.26 31.8067 1075.51 31.956C1075.77 32.1053 1076.05 32.18 1076.33 32.18C1076.59 32.18 1076.78 32.0727 1076.9 31.858C1077.02 31.634 1077.08 31.326 1077.08 30.934C1077.08 30.29 1076.97 29.7393 1076.75 29.282C1076.53 28.8153 1076.25 28.4607 1075.91 28.218C1075.56 27.966 1075.2 27.84 1074.81 27.84C1074.54 27.84 1074.3 27.8773 1074.09 27.952C1073.88 28.0173 1073.67 28.1153 1073.46 28.246C1073.21 28.3673 1073.01 28.428 1072.84 28.428C1072.68 28.428 1072.54 28.3627 1072.41 28.232C1072.28 28.092 1072.19 27.9333 1072.11 27.756C1072.04 27.5787 1072 27.4293 1072 27.308C1072 27.1307 1072.05 26.9767 1072.15 26.846C1072.26 26.7153 1072.38 26.5987 1072.53 26.496C1072.92 26.2253 1073.31 26.0293 1073.68 25.908C1074.05 25.7773 1074.47 25.712 1074.94 25.712C1075.48 25.712 1075.98 25.8473 1076.45 26.118C1076.93 26.3793 1077.34 26.7573 1077.7 27.252C1078.05 27.7373 1078.33 28.316 1078.54 28.988C1078.74 29.6507 1078.85 30.388 1078.85 31.2ZM1086.44 28.862C1086.44 29.478 1086.43 30.122 1086.4 30.794C1086.37 31.466 1086.33 32.1473 1086.26 32.838C1086.22 33.3233 1086.11 33.678 1085.92 33.902C1085.75 34.126 1085.51 34.238 1085.22 34.238C1084.96 34.238 1084.78 34.1587 1084.66 34C1084.56 33.832 1084.52 33.6033 1084.52 33.314C1084.55 32.782 1084.58 32.2687 1084.59 31.774C1084.61 31.27 1084.63 30.7753 1084.64 30.29C1084.65 29.7953 1084.65 29.3147 1084.65 28.848C1084.65 28.6147 1084.65 28.344 1084.65 28.036C1084.65 27.728 1084.65 27.4293 1084.65 27.14C1084.65 26.8413 1084.65 26.6173 1084.65 26.468C1084.67 26.1973 1084.73 25.9873 1084.85 25.838C1084.96 25.6793 1085.16 25.6 1085.45 25.6C1085.76 25.6 1085.98 25.6653 1086.11 25.796C1086.24 25.9267 1086.32 26.16 1086.36 26.496C1086.38 26.6827 1086.39 26.9113 1086.4 27.182C1086.42 27.4527 1086.43 27.7327 1086.43 28.022C1086.44 28.3113 1086.44 28.5913 1086.44 28.862ZM1090.84 27.588C1090.83 27.7187 1090.82 27.9007 1090.81 28.134C1090.81 28.358 1090.81 28.6193 1090.8 28.918C1090.79 29.2073 1090.78 29.52 1090.77 29.856C1090.77 30.192 1090.76 30.5373 1090.76 30.892C1090.76 31.2467 1090.75 31.5967 1090.74 31.942C1090.73 32.6327 1090.7 33.23 1090.66 33.734C1090.62 34.2287 1090.56 34.6533 1090.49 35.008C1090.41 35.3627 1090.32 35.68 1090.2 35.96C1089.98 36.4453 1089.68 36.828 1089.3 37.108C1088.93 37.3973 1088.52 37.542 1088.07 37.542C1087.83 37.542 1087.63 37.4767 1087.47 37.346C1087.29 37.2153 1087.2 37.0427 1087.2 36.828C1087.2 36.688 1087.26 36.5713 1087.37 36.478C1087.48 36.3847 1087.61 36.2913 1087.76 36.198C1087.92 36.1047 1088.06 35.988 1088.18 35.848C1088.31 35.708 1088.42 35.5447 1088.5 35.358C1088.6 35.1247 1088.68 34.84 1088.74 34.504C1088.8 34.168 1088.85 33.7853 1088.88 33.356C1088.92 32.9173 1088.94 32.4367 1088.94 31.914C1088.94 31.4847 1088.95 31.0553 1088.95 30.626C1088.96 30.1967 1088.96 29.7813 1088.96 29.38C1088.97 28.9693 1088.98 28.5867 1088.99 28.232C1089 27.8773 1089.01 27.56 1089.02 27.28C1089.04 27 1089.06 26.7667 1089.08 26.58C1089.11 26.2813 1089.19 26.0433 1089.31 25.866C1089.44 25.6887 1089.65 25.6 1089.94 25.6C1090.2 25.6 1090.4 25.6513 1090.53 25.754C1090.67 25.8473 1090.76 25.9733 1090.81 26.132C1090.86 26.2907 1090.88 26.4633 1090.87 26.65C1090.87 26.7993 1090.86 26.9533 1090.85 27.112C1090.85 27.2613 1090.85 27.42 1090.84 27.588ZM1099.33 31.032C1099.33 31.4707 1099.31 31.9047 1099.27 32.334C1099.24 32.754 1099.19 33.1133 1099.12 33.412C1099.07 33.664 1098.96 33.8553 1098.78 33.986C1098.62 34.1167 1098.41 34.182 1098.15 34.182C1097.88 34.182 1097.68 34.14 1097.54 34.056C1097.4 33.972 1097.33 33.832 1097.33 33.636C1097.33 33.608 1097.33 33.58 1097.33 33.552C1097.34 33.524 1097.34 33.496 1097.34 33.468C1097.4 33.16 1097.44 32.824 1097.48 32.46C1097.52 32.096 1097.54 31.6993 1097.54 31.27C1097.54 30.3927 1097.42 29.6973 1097.17 29.184C1096.94 28.6707 1096.61 28.302 1096.18 28.078C1095.75 27.8447 1095.24 27.728 1094.65 27.728C1094.26 27.728 1093.89 27.7653 1093.53 27.84C1093.44 27.868 1093.35 27.8867 1093.27 27.896C1093.18 27.9053 1093.1 27.91 1093.03 27.91C1092.8 27.91 1092.62 27.8447 1092.5 27.714C1092.38 27.5833 1092.3 27.434 1092.26 27.266C1092.22 27.098 1092.2 26.9533 1092.2 26.832C1092.2 26.6827 1092.25 26.5473 1092.33 26.426C1092.41 26.3047 1092.54 26.1973 1092.72 26.104C1093 25.964 1093.32 25.8567 1093.67 25.782C1094.03 25.7073 1094.37 25.67 1094.71 25.67C1095.62 25.67 1096.43 25.852 1097.12 26.216C1097.82 26.5707 1098.36 27.1447 1098.74 27.938C1099.13 28.722 1099.33 29.7533 1099.33 31.032ZM1102.37 27.994C1102.34 28.0033 1102.31 28.008 1102.27 28.008C1102.24 28.008 1102.22 28.008 1102.2 28.008C1102.07 28.008 1101.95 27.9613 1101.85 27.868C1101.76 27.7747 1101.68 27.658 1101.63 27.518C1101.57 27.378 1101.53 27.238 1101.49 27.098C1101.46 26.958 1101.45 26.8413 1101.45 26.748C1101.45 26.4213 1101.62 26.1927 1101.98 26.062C1102.34 25.9407 1102.75 25.8427 1103.2 25.768C1103.64 25.684 1104.1 25.642 1104.57 25.642C1106.26 25.642 1107.48 26.0527 1108.22 26.874C1108.98 27.686 1109.36 28.8993 1109.36 30.514C1109.36 30.8407 1109.34 31.1673 1109.31 31.494C1109.29 31.8207 1109.25 32.138 1109.2 32.446C1109.16 32.7447 1109.09 33.0293 1109.02 33.3C1108.95 33.5427 1108.84 33.7433 1108.71 33.902C1108.59 34.0607 1108.41 34.14 1108.18 34.14C1107.86 34.14 1107.63 34.0887 1107.48 33.986C1107.34 33.8833 1107.27 33.72 1107.27 33.496C1107.27 33.44 1107.27 33.384 1107.28 33.328C1107.3 33.2627 1107.32 33.1927 1107.33 33.118C1107.37 32.8753 1107.41 32.614 1107.45 32.334C1107.49 32.0447 1107.52 31.7553 1107.55 31.466C1107.58 31.1673 1107.59 30.8827 1107.59 30.612C1107.59 29.9493 1107.48 29.3987 1107.27 28.96C1107.06 28.5213 1106.74 28.1947 1106.29 27.98C1105.84 27.7653 1105.25 27.658 1104.51 27.658C1104.15 27.658 1103.79 27.686 1103.45 27.742C1103.11 27.7887 1102.75 27.8727 1102.37 27.994ZM1103.87 26.608C1103.87 26.8413 1103.86 27.098 1103.84 27.378C1103.83 27.6487 1103.82 27.9193 1103.81 28.19C1103.8 28.4607 1103.79 28.7033 1103.78 28.918C1103.77 29.2167 1103.77 29.5153 1103.76 29.814C1103.75 30.1127 1103.74 30.416 1103.73 30.724C1103.72 31.0227 1103.71 31.3307 1103.7 31.648C1103.7 31.7787 1103.69 31.9513 1103.67 32.166C1103.66 32.3713 1103.65 32.5813 1103.63 32.796C1103.62 33.0013 1103.61 33.1787 1103.6 33.328C1103.59 33.72 1103.52 33.972 1103.39 34.084C1103.26 34.2053 1103.07 34.266 1102.8 34.266C1102.6 34.266 1102.42 34.2427 1102.26 34.196C1102.1 34.1587 1101.98 34.0653 1101.91 33.916C1101.83 33.7573 1101.8 33.524 1101.81 33.216C1101.83 32.9453 1101.84 32.6513 1101.85 32.334C1101.87 32.0167 1101.88 31.6993 1101.89 31.382C1101.9 31.0647 1101.91 30.7707 1101.92 30.5C1101.93 30.2667 1101.94 30.0333 1101.94 29.8C1101.95 29.5667 1101.95 29.3287 1101.96 29.086C1101.97 28.8433 1101.98 28.6007 1101.99 28.358C1102 28.0593 1102.01 27.8213 1102.01 27.644C1102.02 27.4573 1102.02 27.2753 1102.02 27.098C1102.03 26.9113 1102.04 26.6733 1102.06 26.384C1102.07 26.0853 1102.16 25.8753 1102.31 25.754C1102.47 25.6233 1102.68 25.558 1102.94 25.558C1103.28 25.558 1103.52 25.642 1103.67 25.81C1103.82 25.978 1103.89 26.244 1103.87 26.608ZM1118.13 30.934C1118.13 31.998 1117.91 32.81 1117.47 33.37C1117.03 33.93 1116.43 34.21 1115.66 34.21C1115.24 34.21 1114.88 34.14 1114.58 34C1114.28 33.8693 1114.02 33.692 1113.79 33.468C1113.56 33.2347 1113.34 32.9733 1113.11 32.684C1113.08 32.628 1113.04 32.5907 1113.02 32.572C1113 32.5533 1112.97 32.544 1112.93 32.544C1112.88 32.544 1112.85 32.5627 1112.82 32.6C1112.8 32.628 1112.77 32.6747 1112.74 32.74C1112.63 32.9733 1112.53 33.1973 1112.43 33.412C1112.32 33.6173 1112.22 33.818 1112.12 34.014C1111.95 34.322 1111.74 34.476 1111.49 34.476C1111.4 34.476 1111.27 34.4433 1111.1 34.378C1110.94 34.322 1110.8 34.238 1110.68 34.126C1110.56 34.014 1110.5 33.888 1110.5 33.748C1110.5 33.6733 1110.5 33.594 1110.52 33.51C1110.55 33.426 1110.59 33.342 1110.64 33.258C1110.78 32.978 1110.94 32.6793 1111.1 32.362C1111.26 32.0353 1111.41 31.718 1111.55 31.41C1111.69 31.102 1111.84 30.8687 1112.02 30.71C1112.2 30.5513 1112.39 30.472 1112.61 30.472C1112.81 30.472 1112.98 30.5187 1113.13 30.612C1113.28 30.7053 1113.43 30.85 1113.58 31.046C1113.78 31.3073 1113.97 31.536 1114.14 31.732C1114.31 31.9187 1114.49 32.0633 1114.67 32.166C1114.85 32.2687 1115.07 32.32 1115.31 32.32C1115.66 32.32 1115.92 32.194 1116.1 31.942C1116.27 31.6807 1116.36 31.2933 1116.36 30.78C1116.36 30.2947 1116.28 29.87 1116.12 29.506C1115.97 29.1327 1115.77 28.8247 1115.51 28.582C1115.26 28.33 1114.98 28.1433 1114.67 28.022C1114.36 27.9007 1114.05 27.84 1113.74 27.84C1113.46 27.84 1113.21 27.8727 1112.97 27.938C1112.75 27.994 1112.52 28.0733 1112.29 28.176C1112.18 28.2133 1112.09 28.2413 1111.99 28.26C1111.9 28.2787 1111.82 28.288 1111.74 28.288C1111.57 28.288 1111.43 28.218 1111.31 28.078C1111.19 27.9287 1111.1 27.7653 1111.04 27.588C1110.99 27.4013 1110.96 27.252 1110.96 27.14C1110.96 26.944 1111.01 26.776 1111.13 26.636C1111.25 26.496 1111.4 26.3793 1111.57 26.286C1111.97 26.0807 1112.34 25.936 1112.67 25.852C1113 25.7587 1113.4 25.712 1113.87 25.712C1114.44 25.712 1114.98 25.8333 1115.49 26.076C1116.01 26.3093 1116.46 26.65 1116.85 27.098C1117.24 27.546 1117.55 28.0967 1117.78 28.75C1118.01 29.394 1118.13 30.122 1118.13 30.934ZM1130.89 31.2C1130.89 31.5827 1130.88 31.9653 1130.84 32.348C1130.8 32.7307 1130.74 33.09 1130.67 33.426C1130.62 33.6687 1130.53 33.8553 1130.38 33.986C1130.23 34.1073 1130.03 34.168 1129.77 34.168C1129.5 34.168 1129.29 34.1027 1129.14 33.972C1128.99 33.8413 1128.92 33.6453 1128.92 33.384C1128.92 33.3373 1128.92 33.286 1128.92 33.23C1128.93 33.1647 1128.94 33.0993 1128.95 33.034C1128.98 32.8193 1129 32.5673 1129.03 32.278C1129.07 31.9793 1129.09 31.6807 1129.09 31.382C1129.09 30.8127 1129.03 30.3087 1128.91 29.87C1128.79 29.422 1128.62 29.044 1128.37 28.736C1128.13 28.4187 1127.83 28.1807 1127.46 28.022C1127.1 27.8633 1126.67 27.784 1126.16 27.784C1125.92 27.784 1125.7 27.8027 1125.49 27.84C1125.29 27.868 1125.07 27.9147 1124.83 27.98C1124.7 28.008 1124.58 28.036 1124.45 28.064C1124.33 28.0827 1124.22 28.092 1124.12 28.092C1123.95 28.092 1123.81 28.036 1123.7 27.924C1123.59 27.8027 1123.51 27.6627 1123.46 27.504C1123.41 27.3453 1123.39 27.2053 1123.39 27.084C1123.39 26.888 1123.45 26.706 1123.57 26.538C1123.7 26.3607 1123.92 26.216 1124.22 26.104C1124.52 25.992 1124.86 25.9033 1125.21 25.838C1125.56 25.7727 1125.96 25.74 1126.4 25.74C1127.22 25.74 1127.92 25.8753 1128.49 26.146C1129.06 26.4073 1129.52 26.7807 1129.87 27.266C1130.24 27.7513 1130.5 28.33 1130.66 29.002C1130.81 29.6647 1130.89 30.3973 1130.89 31.2ZM1139.67 30.808C1139.67 31.8627 1139.44 32.67 1138.99 33.23C1138.53 33.79 1137.92 34.07 1137.17 34.07C1136.76 34.07 1136.36 33.958 1135.99 33.734C1135.63 33.51 1135.28 33.1833 1134.94 32.754C1134.61 32.3153 1134.31 31.7833 1134.03 31.158L1135.02 31.046C1134.87 31.3447 1134.71 31.676 1134.53 32.04C1134.37 32.3947 1134.21 32.74 1134.06 33.076C1133.91 33.4027 1133.78 33.692 1133.67 33.944C1133.6 34.1027 1133.52 34.224 1133.41 34.308C1133.31 34.392 1133.2 34.434 1133.08 34.434C1133 34.434 1132.92 34.42 1132.84 34.392C1132.77 34.364 1132.68 34.3267 1132.57 34.28C1132.4 34.1773 1132.27 34.0793 1132.18 33.986C1132.11 33.8927 1132.07 33.7807 1132.07 33.65C1132.07 33.5847 1132.08 33.5147 1132.1 33.44C1132.12 33.3653 1132.14 33.2907 1132.18 33.216C1132.3 32.936 1132.45 32.6187 1132.62 32.264C1132.78 31.9 1132.96 31.5267 1133.15 31.144C1133.34 30.7613 1133.53 30.4067 1133.71 30.08C1133.77 29.9587 1133.88 29.8607 1134.02 29.786C1134.16 29.7113 1134.31 29.674 1134.46 29.674C1134.59 29.674 1134.7 29.702 1134.8 29.758C1134.9 29.8047 1134.98 29.884 1135.04 29.996C1135.22 30.3973 1135.4 30.766 1135.58 31.102C1135.77 31.4287 1135.97 31.69 1136.19 31.886C1136.41 32.082 1136.66 32.18 1136.93 32.18C1137.14 32.18 1137.32 32.1193 1137.46 31.998C1137.61 31.8767 1137.72 31.7087 1137.8 31.494C1137.87 31.2793 1137.91 31.0273 1137.91 30.738C1137.91 30.01 1137.78 29.4267 1137.53 28.988C1137.28 28.5493 1136.95 28.232 1136.55 28.036C1136.15 27.84 1135.72 27.742 1135.26 27.742C1135.07 27.742 1134.87 27.756 1134.66 27.784C1134.46 27.812 1134.27 27.8587 1134.07 27.924C1134.01 27.9333 1133.95 27.9473 1133.89 27.966C1133.83 27.9753 1133.78 27.98 1133.72 27.98C1133.53 27.98 1133.37 27.9147 1133.25 27.784C1133.13 27.644 1133.05 27.49 1132.99 27.322C1132.95 27.1447 1132.92 26.9953 1132.92 26.874C1132.92 26.65 1132.99 26.4633 1133.12 26.314C1133.25 26.1553 1133.42 26.0293 1133.64 25.936C1133.9 25.8333 1134.17 25.754 1134.45 25.698C1134.74 25.642 1135.05 25.614 1135.39 25.614C1136.18 25.614 1136.9 25.81 1137.54 26.202C1138.19 26.5847 1138.7 27.1633 1139.08 27.938C1139.48 28.7033 1139.67 29.66 1139.67 30.808ZM1143.65 34.238C1143.25 34.238 1142.89 34.2053 1142.56 34.14C1142.24 34.084 1141.95 34.0047 1141.68 33.902C1141.47 33.818 1141.31 33.7153 1141.2 33.594C1141.1 33.4727 1141.05 33.3047 1141.05 33.09C1141.05 32.95 1141.07 32.7867 1141.12 32.6C1141.17 32.404 1141.25 32.2313 1141.36 32.082C1141.47 31.9327 1141.62 31.858 1141.8 31.858C1141.91 31.858 1142.01 31.872 1142.11 31.9C1142.22 31.928 1142.33 31.9607 1142.42 31.998C1142.62 32.054 1142.82 32.1053 1143.04 32.152C1143.26 32.1893 1143.49 32.208 1143.72 32.208C1144.11 32.208 1144.47 32.1333 1144.8 31.984C1145.14 31.8253 1145.4 31.5827 1145.6 31.256C1145.79 30.92 1145.89 30.4767 1145.89 29.926C1145.89 29.506 1145.82 29.128 1145.68 28.792C1145.55 28.4467 1145.35 28.1713 1145.08 27.966C1144.81 27.7607 1144.48 27.658 1144.09 27.658C1143.75 27.658 1143.47 27.714 1143.25 27.826C1143.03 27.938 1142.82 28.0873 1142.62 28.274C1142.46 28.414 1142.33 28.5167 1142.22 28.582C1142.12 28.6473 1142 28.68 1141.86 28.68C1141.73 28.68 1141.59 28.6333 1141.43 28.54C1141.27 28.4467 1141.13 28.316 1141.02 28.148C1140.91 27.98 1140.85 27.7793 1140.85 27.546C1140.85 27.4433 1140.87 27.3453 1140.91 27.252C1140.95 27.1587 1141.01 27.0607 1141.1 26.958C1141.44 26.5847 1141.86 26.272 1142.35 26.02C1142.85 25.768 1143.43 25.642 1144.07 25.642C1144.76 25.642 1145.38 25.81 1145.92 26.146C1146.46 26.482 1146.89 26.958 1147.21 27.574C1147.53 28.19 1147.68 28.9133 1147.68 29.744C1147.68 30.5373 1147.58 31.2187 1147.38 31.788C1147.17 32.348 1146.89 32.81 1146.52 33.174C1146.16 33.538 1145.73 33.8087 1145.23 33.986C1144.75 34.154 1144.22 34.238 1143.65 34.238ZM1153.29 29.618C1153.3 29.31 1153.31 28.9647 1153.32 28.582C1153.34 28.1993 1153.35 27.8167 1153.36 27.434C1153.37 27.042 1153.38 26.6827 1153.39 26.356C1153.4 26.132 1153.45 25.964 1153.53 25.852C1153.62 25.74 1153.72 25.6653 1153.85 25.628C1153.99 25.5907 1154.14 25.572 1154.3 25.572C1154.57 25.572 1154.77 25.642 1154.89 25.782C1155.01 25.922 1155.08 26.1133 1155.09 26.356C1155.1 26.692 1155.11 27.0607 1155.11 27.462C1155.11 27.8633 1155.11 28.2553 1155.11 28.638C1155.11 29.0207 1155.11 29.3613 1155.1 29.66C1155.09 29.9493 1155.02 30.1687 1154.88 30.318C1154.74 30.458 1154.53 30.528 1154.22 30.528C1153.92 30.528 1153.69 30.458 1153.52 30.318C1153.36 30.1687 1153.28 29.9353 1153.29 29.618ZM1157.52 34.252C1157.25 34.252 1156.98 34.2007 1156.72 34.098C1156.46 33.9953 1156.21 33.818 1155.97 33.566C1155.86 33.4633 1155.77 33.3467 1155.69 33.216C1155.6 33.0853 1155.56 32.95 1155.56 32.81C1155.56 32.642 1155.62 32.4927 1155.73 32.362C1155.84 32.222 1155.97 32.152 1156.13 32.152C1156.21 32.152 1156.29 32.166 1156.39 32.194C1156.48 32.2127 1156.59 32.2547 1156.71 32.32C1156.78 32.3573 1156.85 32.39 1156.92 32.418C1156.99 32.4367 1157.07 32.446 1157.16 32.446C1157.32 32.446 1157.45 32.3853 1157.55 32.264C1157.64 32.1333 1157.7 31.928 1157.73 31.648C1157.77 31.3587 1157.79 30.9667 1157.79 30.472C1157.79 29.6133 1157.79 28.848 1157.8 28.176C1157.82 27.4947 1157.85 26.888 1157.88 26.356C1157.92 25.824 1157.98 25.3387 1158.07 24.9C1158.16 24.396 1158.29 23.9853 1158.47 23.668C1158.66 23.3413 1158.88 23.0847 1159.13 22.898C1159.38 22.702 1159.66 22.548 1159.96 22.436C1160.02 22.4173 1160.09 22.4033 1160.15 22.394C1160.22 22.3753 1160.27 22.366 1160.32 22.366C1160.55 22.366 1160.74 22.4733 1160.89 22.688C1161.04 22.9027 1161.12 23.1267 1161.12 23.36C1161.12 23.5187 1161.07 23.6493 1160.96 23.752C1160.87 23.8547 1160.73 23.9527 1160.56 24.046C1160.43 24.1113 1160.31 24.1907 1160.21 24.284C1160.1 24.3773 1160.01 24.494 1159.93 24.634C1159.85 24.774 1159.78 24.9467 1159.72 25.152C1159.66 25.348 1159.61 25.5907 1159.58 25.88C1159.54 26.1973 1159.51 26.5567 1159.48 26.958C1159.46 27.3593 1159.45 27.7607 1159.44 28.162C1159.44 28.5633 1159.44 28.9273 1159.44 29.254C1159.44 29.5713 1159.43 29.8653 1159.42 30.136C1159.42 30.4067 1159.42 30.668 1159.42 30.92C1159.42 31.592 1159.37 32.18 1159.26 32.684C1159.15 33.1787 1158.97 33.566 1158.7 33.846C1158.42 34.1167 1158.03 34.252 1157.52 34.252ZM1163.53 30.29C1163.53 30.402 1163.53 30.584 1163.52 30.836C1163.52 31.088 1163.52 31.3727 1163.51 31.69C1163.51 31.998 1163.5 32.306 1163.48 32.614C1163.47 32.9127 1163.45 33.174 1163.44 33.398C1163.4 33.7527 1163.31 33.986 1163.17 34.098C1163.03 34.21 1162.87 34.266 1162.68 34.266C1162.33 34.266 1162.09 34.1493 1161.95 33.916C1161.82 33.6827 1161.76 33.272 1161.76 32.684C1161.76 32.5907 1161.76 32.4927 1161.76 32.39C1161.76 32.2873 1161.76 32.1893 1161.76 32.096C1161.76 31.5827 1161.76 31.0087 1161.77 30.374C1161.78 29.7393 1161.79 29.0767 1161.81 28.386C1161.83 27.686 1161.85 26.9953 1161.88 26.314C1161.91 25.8193 1161.98 25.4973 1162.11 25.348C1162.24 25.1893 1162.44 25.11 1162.72 25.11C1162.96 25.11 1163.14 25.1567 1163.27 25.25C1163.4 25.334 1163.49 25.4647 1163.55 25.642C1163.6 25.8193 1163.63 26.034 1163.63 26.286C1163.63 26.454 1163.63 26.6547 1163.62 26.888C1163.62 27.112 1163.62 27.3593 1163.62 27.63C1163.62 27.9007 1163.61 28.19 1163.6 28.498C1163.59 28.7967 1163.59 29.1 1163.58 29.408C1163.57 29.7067 1163.55 30.0007 1163.53 30.29ZM1164.32 30.304C1164.32 29.6693 1164.38 29.0673 1164.5 28.498C1164.63 27.9287 1164.83 27.4293 1165.09 27C1165.36 26.5707 1165.71 26.2347 1166.14 25.992C1166.58 25.74 1167.1 25.614 1167.72 25.614C1168.02 25.614 1168.28 25.6467 1168.52 25.712C1168.75 25.7773 1168.96 25.8753 1169.15 26.006C1169.29 26.0993 1169.39 26.216 1169.46 26.356C1169.52 26.4867 1169.55 26.636 1169.55 26.804C1169.55 26.9347 1169.52 27.0887 1169.46 27.266C1169.39 27.4433 1169.3 27.5973 1169.18 27.728C1169.06 27.8587 1168.93 27.924 1168.78 27.924C1168.73 27.924 1168.67 27.91 1168.6 27.882C1168.42 27.8073 1168.25 27.7513 1168.08 27.714C1167.93 27.6673 1167.76 27.644 1167.58 27.644C1167.27 27.644 1167.02 27.714 1166.81 27.854C1166.6 27.994 1166.44 28.1853 1166.32 28.428C1166.2 28.6613 1166.11 28.932 1166.05 29.24C1166.01 29.5387 1165.98 29.856 1165.98 30.192C1165.98 30.5653 1166.02 30.8967 1166.1 31.186C1166.18 31.4753 1166.3 31.704 1166.45 31.872C1166.6 32.0307 1166.78 32.11 1167.01 32.11C1167.27 32.11 1167.5 32.0353 1167.71 31.886C1167.92 31.7367 1168.13 31.536 1168.34 31.284C1168.43 31.1813 1168.53 31.0973 1168.63 31.032C1168.73 30.9667 1168.85 30.934 1168.98 30.934C1169.16 30.934 1169.3 30.9993 1169.41 31.13C1169.54 31.2607 1169.63 31.4193 1169.69 31.606C1169.76 31.7927 1169.79 31.9653 1169.79 32.124C1169.79 32.2453 1169.77 32.3573 1169.72 32.46C1169.68 32.5627 1169.62 32.6653 1169.54 32.768C1169.19 33.2253 1168.8 33.5707 1168.35 33.804C1167.91 34.0373 1167.45 34.154 1166.98 34.154C1166.44 34.154 1165.97 34.014 1165.56 33.734C1165.17 33.4447 1164.86 33.0153 1164.64 32.446C1164.43 31.8767 1164.32 31.1627 1164.32 30.304ZM1178.12 31.2C1178.12 31.5827 1178.1 31.9653 1178.06 32.348C1178.02 32.7307 1177.97 33.09 1177.89 33.426C1177.85 33.6687 1177.75 33.8553 1177.6 33.986C1177.45 34.1073 1177.25 34.168 1177 34.168C1176.73 34.168 1176.52 34.1027 1176.37 33.972C1176.22 33.8413 1176.14 33.6453 1176.14 33.384C1176.14 33.3373 1176.14 33.286 1176.14 33.23C1176.15 33.1647 1176.16 33.0993 1176.17 33.034C1176.2 32.8193 1176.23 32.5673 1176.25 32.278C1176.29 31.9793 1176.31 31.6807 1176.31 31.382C1176.31 30.8127 1176.25 30.3087 1176.13 29.87C1176.02 29.422 1175.84 29.044 1175.6 28.736C1175.35 28.4187 1175.05 28.1807 1174.69 28.022C1174.32 27.8633 1173.89 27.784 1173.38 27.784C1173.14 27.784 1172.92 27.8027 1172.71 27.84C1172.52 27.868 1172.3 27.9147 1172.05 27.98C1171.92 28.008 1171.8 28.036 1171.68 28.064C1171.56 28.0827 1171.44 28.092 1171.34 28.092C1171.17 28.092 1171.03 28.036 1170.92 27.924C1170.81 27.8027 1170.73 27.6627 1170.68 27.504C1170.64 27.3453 1170.61 27.2053 1170.61 27.084C1170.61 26.888 1170.67 26.706 1170.79 26.538C1170.93 26.3607 1171.14 26.216 1171.44 26.104C1171.75 25.992 1172.08 25.9033 1172.43 25.838C1172.79 25.7727 1173.18 25.74 1173.62 25.74C1174.44 25.74 1175.14 25.8753 1175.71 26.146C1176.28 26.4073 1176.74 26.7807 1177.09 27.266C1177.46 27.7513 1177.72 28.33 1177.88 29.002C1178.04 29.6647 1178.12 30.3973 1178.12 31.2ZM1185.35 27.098C1185.35 27.9473 1185.16 28.7453 1184.77 29.492C1184.38 30.2387 1183.75 30.976 1182.88 31.704C1183.1 31.9187 1183.34 32.096 1183.59 32.236C1183.85 32.3667 1184.12 32.432 1184.39 32.432C1184.64 32.432 1184.86 32.3807 1185.05 32.278C1185.23 32.166 1185.39 32.0213 1185.52 31.844C1185.65 31.6667 1185.75 31.48 1185.82 31.284C1185.89 31.0973 1185.97 30.9387 1186.07 30.808C1186.17 30.6773 1186.3 30.612 1186.46 30.612C1186.67 30.612 1186.87 30.6867 1187.05 30.836C1187.22 30.9853 1187.31 31.186 1187.31 31.438C1187.31 31.494 1187.31 31.5547 1187.3 31.62C1187.3 31.6853 1187.29 31.7507 1187.26 31.816C1187.11 32.32 1186.89 32.754 1186.6 33.118C1186.32 33.4727 1185.98 33.7433 1185.59 33.93C1185.21 34.1167 1184.78 34.21 1184.3 34.21C1183.69 34.21 1183.1 34.0513 1182.54 33.734C1181.98 33.4167 1181.48 32.992 1181.06 32.46C1180.63 31.928 1180.29 31.34 1180.03 30.696C1179.79 30.0427 1179.67 29.3847 1179.67 28.722C1179.67 28.2273 1179.75 27.7373 1179.91 27.252C1180.08 26.7667 1180.31 26.328 1180.61 25.936C1180.91 25.544 1181.26 25.2313 1181.66 24.998C1182.07 24.7553 1182.52 24.634 1183.02 24.634C1183.71 24.634 1184.27 24.8487 1184.7 25.278C1185.13 25.698 1185.35 26.3047 1185.35 27.098ZM1181.39 28.554C1181.39 28.8713 1181.44 29.2073 1181.55 29.562C1181.66 29.9073 1181.81 30.2387 1181.99 30.556C1182.38 30.2387 1182.69 29.9073 1182.93 29.562C1183.17 29.2073 1183.35 28.8433 1183.46 28.47C1183.58 28.0967 1183.65 27.728 1183.65 27.364C1183.65 27.0467 1183.58 26.7993 1183.46 26.622C1183.34 26.4353 1183.15 26.342 1182.89 26.342C1182.71 26.342 1182.53 26.4073 1182.36 26.538C1182.18 26.6687 1182.02 26.8413 1181.87 27.056C1181.72 27.2707 1181.6 27.5087 1181.52 27.77C1181.43 28.022 1181.39 28.2833 1181.39 28.554ZM1187.99 29.618C1188 29.31 1188.01 28.9647 1188.02 28.582C1188.04 28.1993 1188.05 27.8167 1188.06 27.434C1188.07 27.042 1188.08 26.6827 1188.09 26.356C1188.1 26.132 1188.15 25.964 1188.23 25.852C1188.31 25.74 1188.42 25.6653 1188.55 25.628C1188.69 25.5907 1188.84 25.572 1189 25.572C1189.27 25.572 1189.47 25.642 1189.59 25.782C1189.71 25.922 1189.78 26.1133 1189.78 26.356C1189.8 26.692 1189.81 27.0607 1189.81 27.462C1189.81 27.8633 1189.81 28.2553 1189.81 28.638C1189.81 29.0207 1189.81 29.3613 1189.8 29.66C1189.79 29.9493 1189.71 30.1687 1189.57 30.318C1189.44 30.458 1189.22 30.528 1188.92 30.528C1188.62 30.528 1188.38 30.458 1188.22 30.318C1188.06 30.1687 1187.98 29.9353 1187.99 29.618ZM1198.99 30.556C1198.99 31.004 1198.98 31.4333 1198.96 31.844C1198.94 32.2547 1198.91 32.628 1198.86 32.964C1198.81 33.384 1198.7 33.692 1198.54 33.888C1198.38 34.0747 1198.15 34.168 1197.84 34.168C1197.54 34.168 1197.34 34.1213 1197.22 34.028C1197.11 33.9347 1197.06 33.7713 1197.06 33.538C1197.05 33.482 1197.04 33.4167 1197.04 33.342C1197.05 33.2673 1197.06 33.202 1197.07 33.146C1197.11 32.7073 1197.14 32.2733 1197.15 31.844C1197.18 31.4147 1197.2 31.0133 1197.2 30.64C1197.2 30.22 1197.17 29.8327 1197.11 29.478C1197.07 29.1233 1196.97 28.8153 1196.83 28.554C1196.7 28.2833 1196.51 28.0733 1196.24 27.924C1195.99 27.7747 1195.66 27.7 1195.24 27.7C1194.83 27.7 1194.44 27.742 1194.09 27.826C1193.73 27.9007 1193.38 28.0033 1193.02 28.134C1192.84 28.19 1192.67 28.2367 1192.52 28.274C1192.37 28.302 1192.24 28.316 1192.13 28.316C1191.92 28.316 1191.76 28.2087 1191.62 27.994C1191.49 27.77 1191.43 27.5227 1191.43 27.252C1191.43 27.056 1191.49 26.874 1191.61 26.706C1191.73 26.538 1191.91 26.398 1192.14 26.286C1192.63 26.0713 1193.11 25.9127 1193.58 25.81C1194.07 25.698 1194.63 25.642 1195.26 25.642C1196.01 25.642 1196.63 25.7587 1197.11 25.992C1197.6 26.2253 1197.98 26.5613 1198.25 27C1198.52 27.4293 1198.71 27.9473 1198.82 28.554C1198.93 29.1513 1198.99 29.8187 1198.99 30.556ZM1192.76 34.14C1192.5 34.14 1192.3 34.07 1192.17 33.93C1192.04 33.7807 1191.99 33.5753 1192.03 33.314C1192.09 32.9313 1192.13 32.5487 1192.16 32.166C1192.19 31.7833 1192.21 31.3867 1192.2 30.976C1192.2 30.836 1192.19 30.696 1192.18 30.556C1192.18 30.416 1192.17 30.2807 1192.16 30.15C1192.14 29.9913 1192.18 29.828 1192.3 29.66C1192.42 29.492 1192.6 29.408 1192.84 29.408C1193.14 29.408 1193.36 29.4733 1193.5 29.604C1193.65 29.7253 1193.74 29.9307 1193.77 30.22C1193.79 30.416 1193.81 30.6213 1193.82 30.836C1193.83 31.0507 1193.84 31.27 1193.84 31.494C1193.84 31.8113 1193.83 32.1287 1193.81 32.446C1193.79 32.754 1193.76 33.0527 1193.71 33.342C1193.66 33.6407 1193.56 33.8507 1193.39 33.972C1193.23 34.084 1193.02 34.14 1192.76 34.14Z" fill="#717680"/>
</svg>
