<svg width="375" height="40" viewBox="0 0 375 40" fill="none" xmlns="http://www.w3.org/2000/svg">
<path fill-rule="evenodd" clip-rule="evenodd" d="M153.89 14.5538C153.611 14.1738 152.349 13.764 149.153 13.0053C142.616 11.4473 137.883 11.6831 132.233 13.8323C129.128 15.0138 126.183 16.7068 124.447 18.309C122.877 19.7645 121.547 21.6256 120.861 23.3093C120.68 23.7462 120.515 24.1073 120.492 24.0953C120.459 24.0897 120.32 23.3537 120.182 22.4423C119.994 21.1902 119.871 20.7497 119.697 20.6094C119.43 20.3829 119.17 20.4967 119.011 20.907C118.919 21.1531 119.422 25.9204 119.66 27.0062C119.791 27.6146 120.057 27.9369 120.452 27.9871C120.766 28.0236 120.786 28.0108 121.104 27.5655C122.508 25.631 123.652 24.5309 125.063 23.7776L125.819 23.3817L125.603 23.1477C125.437 22.9613 125.258 22.9312 124.805 22.9984C124.328 23.0537 124.058 23.1739 123.329 23.6459C122.843 23.9601 122.243 24.4146 121.996 24.6425C121.753 24.8794 121.514 25.0613 121.482 25.0549C121.357 25.0421 122.156 23.2582 122.692 22.3661C123.319 21.3064 124.094 20.3121 125.026 19.3904C125.997 18.429 129.333 16.2707 130.908 15.5844C134.242 14.1475 137.941 13.2474 140.9 13.1729C143.423 13.1131 145.596 13.4144 149.987 14.4142C153.028 15.0995 153.54 15.1693 153.889 14.9433C154.036 14.8488 154.037 14.7542 153.891 14.555L153.89 14.5538Z" fill="#717680"/>
<path d="M178.254 9.142C178.254 9.68333 178.189 10.178 178.058 10.626C177.937 11.0647 177.755 11.4753 177.512 11.858C177.279 12.2407 176.994 12.614 176.658 12.978C176.425 13.23 176.192 13.356 175.958 13.356C175.837 13.356 175.711 13.3233 175.58 13.258C175.459 13.1833 175.352 13.09 175.258 12.978C175.174 12.8567 175.132 12.7213 175.132 12.572C175.132 12.3947 175.193 12.222 175.314 12.054C175.632 11.6807 175.907 11.2793 176.14 10.85C176.374 10.4207 176.49 9.93533 176.49 9.394C176.49 8.974 176.402 8.62867 176.224 8.358C176.047 8.078 175.804 7.87267 175.496 7.742C175.198 7.602 174.852 7.532 174.46 7.532C174.031 7.532 173.634 7.58333 173.27 7.686C172.916 7.78867 172.5 7.94733 172.024 8.162C171.95 8.19 171.866 8.218 171.772 8.246C171.688 8.274 171.609 8.288 171.534 8.288C171.366 8.288 171.217 8.22733 171.086 8.106C170.965 7.98467 170.867 7.84 170.792 7.672C170.727 7.49467 170.694 7.336 170.694 7.196C170.694 7.028 170.736 6.88333 170.82 6.762C170.914 6.64067 171.04 6.538 171.198 6.454C171.553 6.258 171.898 6.09933 172.234 5.978C172.58 5.84733 172.939 5.754 173.312 5.698C173.686 5.63267 174.101 5.6 174.558 5.6C175.221 5.6 175.832 5.72133 176.392 5.964C176.952 6.20667 177.4 6.58933 177.736 7.112C178.082 7.63467 178.254 8.31133 178.254 9.142ZM173.578 10.136C173.569 11.2187 173.527 12.2967 173.452 13.37C173.387 14.434 173.284 15.5167 173.144 16.618C173.042 17.3087 172.696 17.654 172.108 17.654C171.81 17.654 171.609 17.5793 171.506 17.43C171.404 17.29 171.366 17.0987 171.394 16.856C171.413 16.716 171.432 16.576 171.45 16.436C171.469 16.296 171.483 16.1513 171.492 16.002C171.567 15.1527 171.628 14.2333 171.674 13.244C171.721 12.2547 171.763 11.2653 171.8 10.276C171.81 9.97733 171.861 9.758 171.954 9.618C172.057 9.478 172.183 9.38467 172.332 9.338C172.482 9.29133 172.636 9.268 172.794 9.268C173.018 9.268 173.205 9.32867 173.354 9.45C173.513 9.562 173.588 9.79067 173.578 10.136ZM185.169 7.308C185.169 7.84 185.067 8.35333 184.861 8.848C184.665 9.34267 184.362 9.81867 183.951 10.276C183.541 10.7333 183.013 11.1767 182.369 11.606C182.593 11.8487 182.836 12.0493 183.097 12.208C183.368 12.3573 183.648 12.432 183.937 12.432C184.161 12.432 184.362 12.39 184.539 12.306C184.726 12.222 184.894 12.1053 185.043 11.956C185.193 11.8067 185.333 11.634 185.463 11.438C185.585 11.2607 185.706 11.1113 185.827 10.99C185.958 10.8593 186.098 10.794 186.247 10.794C186.35 10.794 186.457 10.8267 186.569 10.892C186.691 10.948 186.793 11.0367 186.877 11.158C186.961 11.2793 187.003 11.438 187.003 11.634C187.003 11.7927 186.971 11.9607 186.905 12.138C186.84 12.306 186.756 12.4693 186.653 12.628C186.317 13.1507 185.902 13.5473 185.407 13.818C184.922 14.0793 184.39 14.21 183.811 14.21C183.214 14.21 182.654 14.0653 182.131 13.776C181.618 13.4867 181.161 13.0947 180.759 12.6C180.367 12.1053 180.059 11.55 179.835 10.934C179.611 10.3087 179.499 9.66467 179.499 9.002C179.499 8.47933 179.574 7.97067 179.723 7.476C179.873 6.98133 180.087 6.538 180.367 6.146C180.647 5.754 180.988 5.446 181.389 5.222C181.791 4.98867 182.243 4.872 182.747 4.872C183.223 4.872 183.643 4.97 184.007 5.166C184.371 5.362 184.656 5.642 184.861 6.006C185.067 6.36067 185.169 6.79467 185.169 7.308ZM181.221 8.834C181.221 9.07667 181.249 9.32867 181.305 9.59C181.371 9.85133 181.45 10.0987 181.543 10.332C182.234 9.89333 182.724 9.44533 183.013 8.988C183.312 8.53067 183.461 8.05933 183.461 7.574C183.461 7.27533 183.382 7.03733 183.223 6.86C183.074 6.67333 182.869 6.58 182.607 6.58C182.346 6.58 182.108 6.68733 181.893 6.902C181.688 7.10733 181.525 7.38267 181.403 7.728C181.282 8.064 181.221 8.43267 181.221 8.834ZM195.497 11.158C195.497 11.5033 195.501 11.8533 195.511 12.208C195.52 12.5533 195.534 12.894 195.553 13.23C195.571 13.5753 195.506 13.818 195.357 13.958C195.207 14.098 195.007 14.168 194.755 14.168C194.559 14.168 194.377 14.1447 194.209 14.098C194.041 14.0513 193.891 13.9347 193.761 13.748C193.481 13.3373 193.196 12.936 192.907 12.544C192.617 12.152 192.319 11.76 192.011 11.368C191.712 10.9667 191.399 10.556 191.073 10.136C190.998 10.024 190.905 9.898 190.793 9.758C190.681 9.618 190.569 9.478 190.457 9.338C190.345 9.198 190.242 9.07667 190.149 8.974C190.139 9.26333 190.125 9.58533 190.107 9.94C190.097 10.2947 190.083 10.6493 190.065 11.004C190.065 11.3307 190.06 11.6293 190.051 11.9C190.041 12.1613 190.032 12.404 190.023 12.628C190.023 12.8427 190.013 13.0573 189.995 13.272C189.976 13.636 189.897 13.8787 189.757 14C189.626 14.1213 189.43 14.182 189.169 14.182C188.889 14.182 188.669 14.126 188.511 14.014C188.361 13.9113 188.277 13.6873 188.259 13.342C188.249 12.978 188.254 12.642 188.273 12.334C188.301 12.026 188.324 11.6947 188.343 11.34C188.361 11.0787 188.38 10.7753 188.399 10.43C188.427 10.0753 188.45 9.716 188.469 9.352C188.487 8.97867 188.501 8.61933 188.511 8.274C188.529 7.92867 188.539 7.62067 188.539 7.35C188.539 6.92067 188.599 6.61733 188.721 6.44C188.851 6.25333 189.08 6.16 189.407 6.16C189.659 6.16 189.883 6.22067 190.079 6.342C190.275 6.454 190.503 6.66867 190.765 6.986C190.979 7.22867 191.171 7.45267 191.339 7.658C191.516 7.86333 191.693 8.07333 191.871 8.288C192.048 8.49333 192.23 8.722 192.417 8.974C192.566 9.16067 192.725 9.36133 192.893 9.576C193.061 9.79067 193.224 10.0053 193.383 10.22C193.551 10.4253 193.695 10.6167 193.817 10.794C193.817 10.4953 193.821 10.206 193.831 9.926C193.84 9.63667 193.849 9.37067 193.859 9.128C193.877 8.876 193.891 8.67067 193.901 8.512C193.975 7.90533 194.055 7.38267 194.139 6.944C194.232 6.496 194.358 6.15533 194.517 5.922C194.675 5.67933 194.89 5.558 195.161 5.558C195.422 5.558 195.599 5.614 195.693 5.726C195.786 5.838 195.833 6.006 195.833 6.23C195.833 6.35133 195.814 6.524 195.777 6.748C195.739 6.96267 195.697 7.252 195.651 7.616C195.613 7.98 195.576 8.45133 195.539 9.03C195.511 9.60867 195.497 10.318 195.497 11.158ZM204.889 10.556C204.889 11.004 204.88 11.4333 204.861 11.844C204.842 12.2547 204.81 12.628 204.763 12.964C204.707 13.384 204.6 13.692 204.441 13.888C204.282 14.0747 204.049 14.168 203.741 14.168C203.442 14.168 203.237 14.1213 203.125 14.028C203.013 13.9347 202.957 13.7713 202.957 13.538C202.948 13.482 202.943 13.4167 202.943 13.342C202.952 13.2673 202.962 13.202 202.971 13.146C203.008 12.7073 203.036 12.2733 203.055 11.844C203.083 11.4147 203.097 11.0133 203.097 10.64C203.097 10.22 203.069 9.83267 203.013 9.478C202.966 9.12333 202.873 8.81533 202.733 8.554C202.602 8.28333 202.406 8.07333 202.145 7.924C201.893 7.77467 201.557 7.7 201.137 7.7C200.726 7.7 200.344 7.742 199.989 7.826C199.634 7.90067 199.28 8.00333 198.925 8.134C198.738 8.19 198.57 8.23667 198.421 8.274C198.272 8.302 198.141 8.316 198.029 8.316C197.824 8.316 197.656 8.20867 197.525 7.994C197.394 7.77 197.329 7.52267 197.329 7.252C197.329 7.056 197.39 6.874 197.511 6.706C197.632 6.538 197.81 6.398 198.043 6.286C198.528 6.07133 199.009 5.91267 199.485 5.81C199.97 5.698 200.53 5.642 201.165 5.642C201.912 5.642 202.528 5.75867 203.013 5.992C203.498 6.22533 203.876 6.56133 204.147 7C204.418 7.42933 204.609 7.94733 204.721 8.554C204.833 9.15133 204.889 9.81867 204.889 10.556ZM198.659 14.14C198.398 14.14 198.202 14.07 198.071 13.93C197.94 13.7807 197.894 13.5753 197.931 13.314C197.987 12.9313 198.029 12.5487 198.057 12.166C198.094 11.7833 198.108 11.3867 198.099 10.976C198.099 10.836 198.094 10.696 198.085 10.556C198.076 10.416 198.066 10.2807 198.057 10.15C198.038 9.99133 198.085 9.828 198.197 9.66C198.318 9.492 198.5 9.408 198.743 9.408C199.042 9.408 199.261 9.47333 199.401 9.604C199.55 9.72533 199.639 9.93067 199.667 10.22C199.695 10.416 199.714 10.6213 199.723 10.836C199.732 11.0507 199.737 11.27 199.737 11.494C199.737 11.8113 199.728 12.1287 199.709 12.446C199.69 12.754 199.658 13.0527 199.611 13.342C199.564 13.6407 199.457 13.8507 199.289 13.972C199.13 14.084 198.92 14.14 198.659 14.14ZM207.321 9.184C207.321 8.95067 207.321 8.722 207.321 8.498C207.321 8.26467 207.321 8.036 207.321 7.812C207.321 7.588 207.311 7.364 207.293 7.14C207.283 6.79467 207.363 6.524 207.531 6.328C207.699 6.12267 207.913 6.02 208.175 6.02C208.445 6.02 208.669 6.08533 208.847 6.216C209.033 6.33733 209.178 6.50067 209.281 6.706C209.729 7.47133 210.116 8.134 210.443 8.694C210.779 9.24467 211.068 9.71133 211.311 10.094C211.553 10.4673 211.759 10.7707 211.927 11.004C212.095 11.228 212.235 11.3913 212.347 11.494C212.468 11.5873 212.566 11.634 212.641 11.634C212.743 11.634 212.823 11.5733 212.879 11.452C212.944 11.3213 212.991 11.074 213.019 10.71C213.047 10.3367 213.061 9.79067 213.061 9.072C213.061 8.736 213.056 8.43733 213.047 8.176C213.047 7.90533 213.047 7.658 213.047 7.434C213.047 7.20067 213.051 6.98133 213.061 6.776C213.079 6.412 213.163 6.12733 213.313 5.922C213.471 5.71667 213.728 5.614 214.083 5.614C214.307 5.614 214.475 5.66533 214.587 5.768C214.699 5.87067 214.759 6.06667 214.769 6.356C214.778 6.51467 214.783 6.72 214.783 6.972C214.783 7.21467 214.783 7.47133 214.783 7.742C214.783 8.00333 214.778 8.25533 214.769 8.498C214.769 8.74067 214.769 8.946 214.769 9.114C214.769 10.0847 214.727 10.8827 214.643 11.508C214.568 12.124 214.451 12.6047 214.293 12.95C214.143 13.286 213.952 13.5193 213.719 13.65C213.485 13.7807 213.215 13.846 212.907 13.846C212.645 13.846 212.389 13.7807 212.137 13.65C211.885 13.51 211.609 13.2813 211.311 12.964C211.012 12.6373 210.676 12.1987 210.303 11.648C209.929 11.088 209.486 10.388 208.973 9.548C208.973 9.772 208.968 10.0007 208.959 10.234C208.959 10.458 208.959 10.6727 208.959 10.878C208.959 11.074 208.954 11.2513 208.945 11.41C208.926 11.858 208.898 12.2453 208.861 12.572C208.833 12.8987 208.791 13.1833 208.735 13.426C208.669 13.6687 208.571 13.8553 208.441 13.986C208.319 14.1167 208.151 14.182 207.937 14.182C207.694 14.182 207.517 14.1073 207.405 13.958C207.293 13.8087 207.237 13.5987 207.237 13.328C207.246 13.1413 207.255 12.8427 207.265 12.432C207.274 12.012 207.283 11.522 207.293 10.962C207.311 10.402 207.321 9.80933 207.321 9.184ZM228.554 11.508C228.554 11.6947 228.54 11.9093 228.512 12.152C228.493 12.3947 228.461 12.628 228.414 12.852C228.367 13.076 228.311 13.2767 228.246 13.454C228.153 13.6873 228.031 13.8553 227.882 13.958C227.742 14.0607 227.579 14.112 227.392 14.112C227.28 14.112 227.159 14.0933 227.028 14.056C226.897 14.028 226.785 13.9673 226.692 13.874C226.599 13.7713 226.552 13.6267 226.552 13.44C226.552 13.272 226.589 13.0153 226.664 12.67C226.748 12.3247 226.79 11.9793 226.79 11.634C226.79 10.99 226.655 10.4393 226.384 9.982C226.123 9.51533 225.717 9.12333 225.166 8.806C224.615 8.47933 223.901 8.21333 223.024 8.008C223.211 8.68 223.351 9.34267 223.444 9.996C223.537 10.64 223.584 11.2747 223.584 11.9C223.584 12.5347 223.5 13.09 223.332 13.566C223.164 14.042 222.94 14.4527 222.66 14.798C222.38 15.1433 222.072 15.4233 221.736 15.638C221.409 15.8527 221.083 16.0207 220.756 16.142C220.588 16.198 220.429 16.2353 220.28 16.254C220.131 16.282 219.995 16.296 219.874 16.296C219.603 16.296 219.407 16.226 219.286 16.086C219.165 15.9553 219.104 15.8013 219.104 15.624C219.104 15.484 219.123 15.3673 219.16 15.274C219.197 15.19 219.272 15.106 219.384 15.022C219.496 14.938 219.655 14.84 219.86 14.728C220.233 14.5413 220.569 14.3127 220.868 14.042C221.167 13.7807 221.4 13.4633 221.568 13.09C221.745 12.7073 221.834 12.25 221.834 11.718C221.834 11.298 221.801 10.8453 221.736 10.36C221.68 9.87467 221.596 9.38 221.484 8.876C221.372 8.36267 221.237 7.86333 221.078 7.378C221.05 7.266 221.022 7.14933 220.994 7.028C220.966 6.90667 220.952 6.79 220.952 6.678C220.952 6.342 221.027 6.09 221.176 5.922C221.335 5.74467 221.549 5.656 221.82 5.656C221.857 5.656 221.899 5.656 221.946 5.656C221.993 5.656 222.035 5.66067 222.072 5.67C223.603 5.96867 224.844 6.36067 225.796 6.846C226.748 7.33133 227.443 7.952 227.882 8.708C228.33 9.464 228.554 10.3973 228.554 11.508ZM232.439 8.862C232.439 9.478 232.425 10.122 232.397 10.794C232.369 11.466 232.322 12.1473 232.257 12.838C232.219 13.3233 232.107 13.678 231.921 13.902C231.743 14.126 231.51 14.238 231.221 14.238C230.959 14.238 230.773 14.1587 230.661 14C230.558 13.832 230.511 13.6033 230.521 13.314C230.549 12.782 230.572 12.2687 230.591 11.774C230.609 11.27 230.623 10.7753 230.633 10.29C230.642 9.79533 230.647 9.31467 230.647 8.848C230.647 8.61467 230.647 8.344 230.647 8.036C230.647 7.728 230.647 7.42933 230.647 7.14C230.647 6.84133 230.647 6.61733 230.647 6.468C230.665 6.19733 230.731 5.98733 230.843 5.838C230.955 5.67933 231.155 5.6 231.445 5.6C231.753 5.6 231.972 5.66533 232.103 5.796C232.233 5.92667 232.317 6.16 232.355 6.496C232.373 6.68267 232.387 6.91133 232.397 7.182C232.415 7.45267 232.425 7.73267 232.425 8.022C232.434 8.31133 232.439 8.59133 232.439 8.862ZM235.771 14.252C235.501 14.252 235.235 14.2007 234.973 14.098C234.712 13.9953 234.46 13.818 234.217 13.566C234.115 13.4633 234.021 13.3467 233.937 13.216C233.853 13.0853 233.811 12.95 233.811 12.81C233.811 12.642 233.867 12.4927 233.979 12.362C234.091 12.222 234.227 12.152 234.385 12.152C234.46 12.152 234.544 12.166 234.637 12.194C234.731 12.2127 234.838 12.2547 234.959 12.32C235.034 12.3573 235.104 12.39 235.169 12.418C235.244 12.4367 235.323 12.446 235.407 12.446C235.575 12.446 235.706 12.3853 235.799 12.264C235.893 12.1333 235.953 11.928 235.981 11.648C236.019 11.3587 236.037 10.9667 236.037 10.472C236.037 9.61333 236.042 8.848 236.051 8.176C236.07 7.49467 236.098 6.888 236.135 6.356C236.173 5.824 236.233 5.33867 236.317 4.9C236.411 4.396 236.546 3.98533 236.723 3.668C236.91 3.34133 237.129 3.08467 237.381 2.898C237.633 2.702 237.909 2.548 238.207 2.436C238.273 2.41733 238.338 2.40333 238.403 2.394C238.469 2.37533 238.525 2.366 238.571 2.366C238.805 2.366 238.996 2.47333 239.145 2.688C239.295 2.90267 239.369 3.12667 239.369 3.36C239.369 3.51867 239.318 3.64933 239.215 3.752C239.122 3.85467 238.987 3.95267 238.809 4.046C238.679 4.11133 238.562 4.19067 238.459 4.284C238.357 4.37733 238.263 4.494 238.179 4.634C238.105 4.774 238.035 4.94667 237.969 5.152C237.913 5.348 237.867 5.59067 237.829 5.88C237.792 6.19733 237.759 6.55667 237.731 6.958C237.713 7.35933 237.699 7.76067 237.689 8.162C237.689 8.56333 237.689 8.92733 237.689 9.254C237.689 9.57133 237.685 9.86533 237.675 10.136C237.675 10.4067 237.675 10.668 237.675 10.92C237.675 11.592 237.619 12.18 237.507 12.684C237.405 13.1787 237.218 13.566 236.947 13.846C236.677 14.1167 236.285 14.252 235.771 14.252ZM239.801 6.482C239.792 6.16467 239.88 5.94067 240.067 5.81C240.263 5.67933 240.51 5.614 240.809 5.614C241.117 5.614 241.322 5.69333 241.425 5.852C241.528 6.00133 241.584 6.22067 241.593 6.51C241.602 6.986 241.602 7.504 241.593 8.064C241.593 8.624 241.574 9.17 241.537 9.702C241.509 10.206 241.238 10.458 240.725 10.458C240.566 10.458 240.417 10.4393 240.277 10.402C240.146 10.3553 240.039 10.276 239.955 10.164C239.88 10.0427 239.843 9.87 239.843 9.646C239.834 9.13267 239.829 8.60067 239.829 8.05C239.829 7.49933 239.82 6.97667 239.801 6.482ZM249.93 10.934C249.93 11.998 249.711 12.81 249.272 13.37C248.834 13.93 248.232 14.21 247.466 14.21C247.046 14.21 246.687 14.14 246.388 14C246.09 13.8693 245.824 13.692 245.59 13.468C245.366 13.2347 245.142 12.9733 244.918 12.684C244.881 12.628 244.848 12.5907 244.82 12.572C244.802 12.5533 244.774 12.544 244.736 12.544C244.69 12.544 244.652 12.5627 244.624 12.6C244.606 12.628 244.578 12.6747 244.54 12.74C244.438 12.9733 244.335 13.1973 244.232 13.412C244.13 13.6173 244.027 13.818 243.924 14.014C243.756 14.322 243.546 14.476 243.294 14.476C243.201 14.476 243.07 14.4433 242.902 14.378C242.744 14.322 242.604 14.238 242.482 14.126C242.361 14.014 242.3 13.888 242.3 13.748C242.3 13.6733 242.31 13.594 242.328 13.51C242.356 13.426 242.394 13.342 242.44 13.258C242.59 12.978 242.744 12.6793 242.902 12.362C243.061 12.0353 243.21 11.718 243.35 11.41C243.49 11.102 243.649 10.8687 243.826 10.71C244.004 10.5513 244.2 10.472 244.414 10.472C244.61 10.472 244.783 10.5187 244.932 10.612C245.082 10.7053 245.231 10.85 245.38 11.046C245.586 11.3073 245.772 11.536 245.94 11.732C246.118 11.9187 246.295 12.0633 246.472 12.166C246.659 12.2687 246.874 12.32 247.116 12.32C247.462 12.32 247.723 12.194 247.9 11.942C248.078 11.6807 248.166 11.2933 248.166 10.78C248.166 10.2947 248.087 9.87 247.928 9.506C247.779 9.13267 247.574 8.82467 247.312 8.582C247.06 8.33 246.78 8.14333 246.472 8.022C246.164 7.90067 245.856 7.84 245.548 7.84C245.268 7.84 245.012 7.87267 244.778 7.938C244.554 7.994 244.326 8.07333 244.092 8.176C243.99 8.21333 243.892 8.24133 243.798 8.26C243.705 8.27867 243.621 8.288 243.546 8.288C243.378 8.288 243.234 8.218 243.112 8.078C242.991 7.92867 242.902 7.76533 242.846 7.588C242.79 7.40133 242.762 7.252 242.762 7.14C242.762 6.944 242.818 6.776 242.93 6.636C243.052 6.496 243.201 6.37933 243.378 6.286C243.78 6.08067 244.144 5.936 244.47 5.852C244.806 5.75867 245.208 5.712 245.674 5.712C246.244 5.712 246.785 5.83333 247.298 6.076C247.812 6.30933 248.264 6.65 248.656 7.098C249.048 7.546 249.356 8.09667 249.58 8.75C249.814 9.394 249.93 10.122 249.93 10.934ZM251.961 6.79C251.979 6.55667 252.012 6.34667 252.059 6.16C252.115 5.97333 252.199 5.82867 252.311 5.726C252.423 5.614 252.591 5.558 252.815 5.558C253.123 5.558 253.351 5.66067 253.501 5.866C253.659 6.07133 253.734 6.31867 253.725 6.608C253.715 6.86933 253.706 7.14 253.697 7.42C253.697 7.69067 253.697 7.98 253.697 8.288C253.697 8.82 253.692 9.366 253.683 9.926C253.673 10.486 253.669 11.0507 253.669 11.62C253.669 12.18 253.678 12.74 253.697 13.3C253.706 13.5893 253.645 13.8133 253.515 13.972C253.384 14.1213 253.141 14.196 252.787 14.196C252.479 14.196 252.283 14.1353 252.199 14.014C252.115 13.8927 252.059 13.72 252.031 13.496C251.993 12.9827 251.961 12.4693 251.933 11.956C251.905 11.4427 251.886 10.934 251.877 10.43C251.867 9.91667 251.867 9.41267 251.877 8.918C251.877 8.50733 251.886 8.12 251.905 7.756C251.923 7.38267 251.942 7.06067 251.961 6.79ZM263.107 11.004C263.107 11.3587 263.111 11.7133 263.121 12.068C263.13 12.4133 263.144 12.754 263.163 13.09C263.191 13.4447 263.13 13.6967 262.981 13.846C262.831 13.986 262.631 14.056 262.379 14.056C262.183 14.056 261.996 14.028 261.819 13.972C261.651 13.9067 261.492 13.79 261.343 13.622C261.016 13.2207 260.708 12.852 260.419 12.516C260.139 12.1707 259.859 11.8207 259.579 11.466C259.299 11.1113 258.991 10.7287 258.655 10.318C258.58 10.2247 258.496 10.122 258.403 10.01C258.309 9.898 258.211 9.78133 258.109 9.66C258.015 9.53867 257.922 9.42667 257.829 9.324C257.735 9.22133 257.651 9.128 257.577 9.044C257.567 9.27733 257.563 9.548 257.563 9.856C257.563 10.1547 257.558 10.4627 257.549 10.78C257.539 11.284 257.53 11.746 257.521 12.166C257.521 12.5767 257.511 12.9407 257.493 13.258C257.474 13.622 257.399 13.8693 257.269 14C257.138 14.1307 256.942 14.196 256.681 14.196C256.401 14.196 256.177 14.14 256.009 14.028C255.85 13.916 255.761 13.6873 255.743 13.342C255.733 12.978 255.738 12.6093 255.757 12.236C255.785 11.8533 255.803 11.4753 255.813 11.102C255.831 10.7287 255.845 10.3787 255.855 10.052C255.864 9.72533 255.873 9.41267 255.883 9.114C255.901 8.81533 255.915 8.51667 255.925 8.218L255.953 7.574C255.962 7.13533 256.046 6.818 256.205 6.622C256.363 6.426 256.587 6.328 256.877 6.328C257.129 6.328 257.357 6.398 257.563 6.538C257.777 6.66867 258.02 6.89267 258.291 7.21C258.487 7.434 258.669 7.644 258.837 7.84C259.005 8.036 259.173 8.23667 259.341 8.442C259.518 8.64733 259.709 8.876 259.915 9.128C260.083 9.324 260.255 9.534 260.433 9.758C260.61 9.982 260.787 10.2013 260.965 10.416C261.142 10.6307 261.301 10.8267 261.441 11.004C261.441 10.6867 261.441 10.3787 261.441 10.08C261.441 9.772 261.441 9.48733 261.441 9.226C261.45 8.96467 261.459 8.74067 261.469 8.554C261.497 7.89133 261.543 7.35 261.609 6.93C261.674 6.51 261.777 6.202 261.917 6.006C262.057 5.81 262.253 5.712 262.505 5.712C262.747 5.712 262.925 5.782 263.037 5.922C263.158 6.05267 263.219 6.23 263.219 6.454C263.219 6.57533 263.214 6.73867 263.205 6.944C263.195 7.14 263.181 7.406 263.163 7.742C263.144 8.06867 263.13 8.498 263.121 9.03C263.111 9.55267 263.107 10.2107 263.107 11.004ZM277.185 11.508C277.185 11.6947 277.171 11.9093 277.143 12.152C277.124 12.3947 277.092 12.628 277.045 12.852C276.998 13.076 276.942 13.2767 276.877 13.454C276.784 13.6873 276.662 13.8553 276.513 13.958C276.373 14.0607 276.21 14.112 276.023 14.112C275.911 14.112 275.79 14.0933 275.659 14.056C275.528 14.028 275.416 13.9673 275.323 13.874C275.23 13.7713 275.183 13.6267 275.183 13.44C275.183 13.272 275.22 13.0153 275.295 12.67C275.379 12.3247 275.421 11.9793 275.421 11.634C275.421 10.99 275.286 10.4393 275.015 9.982C274.754 9.51533 274.348 9.12333 273.797 8.806C273.246 8.47933 272.532 8.21333 271.655 8.008C271.842 8.68 271.982 9.34267 272.075 9.996C272.168 10.64 272.215 11.2747 272.215 11.9C272.215 12.5347 272.131 13.09 271.963 13.566C271.795 14.042 271.571 14.4527 271.291 14.798C271.011 15.1433 270.703 15.4233 270.367 15.638C270.04 15.8527 269.714 16.0207 269.387 16.142C269.219 16.198 269.06 16.2353 268.911 16.254C268.762 16.282 268.626 16.296 268.505 16.296C268.234 16.296 268.038 16.226 267.917 16.086C267.796 15.9553 267.735 15.8013 267.735 15.624C267.735 15.484 267.754 15.3673 267.791 15.274C267.828 15.19 267.903 15.106 268.015 15.022C268.127 14.938 268.286 14.84 268.491 14.728C268.864 14.5413 269.2 14.3127 269.499 14.042C269.798 13.7807 270.031 13.4633 270.199 13.09C270.376 12.7073 270.465 12.25 270.465 11.718C270.465 11.298 270.432 10.8453 270.367 10.36C270.311 9.87467 270.227 9.38 270.115 8.876C270.003 8.36267 269.868 7.86333 269.709 7.378C269.681 7.266 269.653 7.14933 269.625 7.028C269.597 6.90667 269.583 6.79 269.583 6.678C269.583 6.342 269.658 6.09 269.807 5.922C269.966 5.74467 270.18 5.656 270.451 5.656C270.488 5.656 270.53 5.656 270.577 5.656C270.624 5.656 270.666 5.66067 270.703 5.67C272.234 5.96867 273.475 6.36067 274.427 6.846C275.379 7.33133 276.074 7.952 276.513 8.708C276.961 9.464 277.185 10.3973 277.185 11.508ZM281.07 8.862C281.07 9.478 281.056 10.122 281.028 10.794C281 11.466 280.953 12.1473 280.888 12.838C280.85 13.3233 280.738 13.678 280.552 13.902C280.374 14.126 280.141 14.238 279.852 14.238C279.59 14.238 279.404 14.1587 279.292 14C279.189 13.832 279.142 13.6033 279.152 13.314C279.18 12.782 279.203 12.2687 279.222 11.774C279.24 11.27 279.254 10.7753 279.264 10.29C279.273 9.79533 279.278 9.31467 279.278 8.848C279.278 8.61467 279.278 8.344 279.278 8.036C279.278 7.728 279.278 7.42933 279.278 7.14C279.278 6.84133 279.278 6.61733 279.278 6.468C279.296 6.19733 279.362 5.98733 279.474 5.838C279.586 5.67933 279.786 5.6 280.076 5.6C280.384 5.6 280.603 5.66533 280.734 5.796C280.864 5.92667 280.948 6.16 280.986 6.496C281.004 6.68267 281.018 6.91133 281.028 7.182C281.046 7.45267 281.056 7.73267 281.056 8.022C281.065 8.31133 281.07 8.59133 281.07 8.862ZM289.568 11.032C289.568 11.4707 289.549 11.9047 289.512 12.334C289.475 12.754 289.423 13.1133 289.358 13.412C289.311 13.664 289.199 13.8553 289.022 13.986C288.854 14.1167 288.644 14.182 288.392 14.182C288.121 14.182 287.916 14.14 287.776 14.056C287.636 13.972 287.566 13.832 287.566 13.636C287.566 13.608 287.566 13.58 287.566 13.552C287.575 13.524 287.58 13.496 287.58 13.468C287.636 13.16 287.683 12.824 287.72 12.46C287.757 12.096 287.776 11.6993 287.776 11.27C287.776 10.3927 287.655 9.69733 287.412 9.184C287.179 8.67067 286.847 8.302 286.418 8.078C285.989 7.84467 285.48 7.728 284.892 7.728C284.5 7.728 284.127 7.76533 283.772 7.84C283.679 7.868 283.59 7.88667 283.506 7.896C283.422 7.90533 283.343 7.91 283.268 7.91C283.035 7.91 282.857 7.84467 282.736 7.714C282.615 7.58333 282.535 7.434 282.498 7.266C282.461 7.098 282.442 6.95333 282.442 6.832C282.442 6.68267 282.484 6.54733 282.568 6.426C282.652 6.30467 282.783 6.19733 282.96 6.104C283.24 5.964 283.557 5.85667 283.912 5.782C284.267 5.70733 284.612 5.67 284.948 5.67C285.863 5.67 286.665 5.852 287.356 6.216C288.056 6.57067 288.597 7.14467 288.98 7.938C289.372 8.722 289.568 9.75333 289.568 11.032ZM298.427 11.06C298.427 12.1053 298.212 12.894 297.783 13.426C297.354 13.9487 296.789 14.21 296.089 14.21C295.716 14.21 295.375 14.1447 295.067 14.014C294.768 13.8833 294.493 13.734 294.241 13.566C293.989 13.398 293.765 13.2487 293.569 13.118C293.382 12.978 293.214 12.908 293.065 12.908C292.934 12.908 292.808 12.9733 292.687 13.104C292.566 13.2253 292.449 13.3933 292.337 13.608C292.234 13.8133 292.132 14.0467 292.029 14.308C291.889 14.672 291.679 14.854 291.399 14.854C291.296 14.854 291.17 14.826 291.021 14.77C290.881 14.7233 290.755 14.644 290.643 14.532C290.531 14.4293 290.475 14.2987 290.475 14.14C290.475 14 290.512 13.8413 290.587 13.664C290.783 13.188 290.979 12.7447 291.175 12.334C291.38 11.914 291.609 11.5733 291.861 11.312C292.122 11.0507 292.426 10.92 292.771 10.92C293.042 10.92 293.308 10.99 293.569 11.13C293.83 11.27 294.087 11.4333 294.339 11.62C294.591 11.8067 294.834 11.97 295.067 12.11C295.31 12.25 295.538 12.32 295.753 12.32C296.052 12.32 296.276 12.208 296.425 11.984C296.584 11.76 296.663 11.4193 296.663 10.962C296.663 10.5047 296.612 10.08 296.509 9.688C296.406 9.296 296.252 8.95533 296.047 8.666C295.851 8.37667 295.604 8.15267 295.305 7.994C295.006 7.83533 294.656 7.756 294.255 7.756C293.966 7.756 293.704 7.784 293.471 7.84C293.238 7.896 293 7.97533 292.757 8.078C292.654 8.11533 292.556 8.14333 292.463 8.162C292.379 8.18067 292.295 8.19 292.211 8.19C292.043 8.19 291.898 8.12 291.777 7.98C291.656 7.84 291.567 7.68133 291.511 7.504C291.455 7.31733 291.427 7.16333 291.427 7.042C291.427 6.83667 291.483 6.66867 291.595 6.538C291.716 6.398 291.866 6.28133 292.043 6.188C292.454 5.992 292.827 5.852 293.163 5.768C293.508 5.684 293.91 5.642 294.367 5.642C295.039 5.642 295.627 5.77733 296.131 6.048C296.635 6.30933 297.055 6.68267 297.391 7.168C297.736 7.65333 297.993 8.22733 298.161 8.89C298.338 9.55267 298.427 10.276 298.427 11.06ZM308.126 11.438C308.126 11.774 308.107 12.0867 308.07 12.376C308.042 12.656 307.995 12.9453 307.93 13.244C307.883 13.496 307.78 13.7247 307.622 13.93C307.472 14.126 307.253 14.224 306.964 14.224C306.721 14.224 306.534 14.1773 306.404 14.084C306.273 13.9907 306.208 13.8087 306.208 13.538C306.208 13.5007 306.208 13.4587 306.208 13.412C306.208 13.3653 306.212 13.314 306.222 13.258C306.259 12.9967 306.287 12.7447 306.306 12.502C306.334 12.25 306.348 11.9887 306.348 11.718C306.348 11.1487 306.296 10.6213 306.194 10.136C306.091 9.64133 305.923 9.212 305.69 8.848C305.456 8.47467 305.139 8.18533 304.738 7.98C304.346 7.77467 303.851 7.672 303.254 7.672C303.17 7.672 303.076 7.67667 302.974 7.686C302.88 7.686 302.792 7.69533 302.708 7.714C302.633 7.72333 302.582 7.75133 302.554 7.798C302.535 7.83533 302.526 7.896 302.526 7.98C302.516 8.46533 302.502 8.95067 302.484 9.436C302.465 9.912 302.442 10.3787 302.414 10.836C302.395 11.2933 302.367 11.732 302.33 12.152C302.292 12.5627 302.25 12.9407 302.204 13.286C302.157 13.678 302.045 13.9253 301.868 14.028C301.7 14.1307 301.485 14.182 301.224 14.182C300.906 14.182 300.682 14.1027 300.552 13.944C300.421 13.776 300.379 13.4633 300.426 13.006C300.482 12.558 300.524 12.1053 300.552 11.648C300.589 11.1907 300.622 10.7147 300.65 10.22C300.678 9.72533 300.696 9.20733 300.706 8.666C300.715 8.47933 300.687 8.28333 300.622 8.078C300.566 7.87267 300.51 7.66733 300.454 7.462C300.407 7.24733 300.384 7.04667 300.384 6.86C300.402 6.65467 300.454 6.45867 300.538 6.272C300.622 6.08533 300.734 5.93133 300.874 5.81C301.014 5.68867 301.163 5.628 301.322 5.628C301.48 5.628 301.625 5.642 301.756 5.67C301.896 5.68867 302.017 5.698 302.12 5.698C302.278 5.698 302.465 5.68867 302.68 5.67C302.894 5.65133 303.1 5.642 303.296 5.642C304.22 5.642 304.99 5.796 305.606 6.104C306.222 6.40267 306.712 6.818 307.076 7.35C307.449 7.882 307.715 8.498 307.874 9.198C308.042 9.898 308.126 10.6447 308.126 11.438ZM318.382 12.166C318.382 12.3993 318.303 12.5767 318.144 12.698C317.995 12.81 317.794 12.866 317.542 12.866C317.281 12.866 317.071 12.81 316.912 12.698C316.754 12.5767 316.674 12.3993 316.674 12.166C316.674 11.9513 316.674 11.662 316.674 11.298C316.684 10.934 316.688 10.5373 316.688 10.108C316.698 9.67867 316.702 9.24933 316.702 8.82C316.712 8.38133 316.716 7.98 316.716 7.616C316.716 7.252 316.716 6.96267 316.716 6.748C316.707 6.51467 316.777 6.342 316.926 6.23C317.085 6.10867 317.295 6.048 317.556 6.048C317.818 6.048 318.023 6.10867 318.172 6.23C318.322 6.342 318.401 6.51467 318.41 6.748C318.42 6.944 318.424 7.21933 318.424 7.574C318.434 7.91933 318.434 8.30667 318.424 8.736C318.424 9.156 318.42 9.58533 318.41 10.024C318.41 10.4627 318.406 10.8733 318.396 11.256C318.396 11.6293 318.392 11.9327 318.382 12.166ZM314.826 10.29C314.612 10.29 314.444 10.22 314.322 10.08C314.21 9.94 314.154 9.74867 314.154 9.506C314.154 9.254 314.21 9.05333 314.322 8.904C314.444 8.74533 314.612 8.666 314.826 8.666C315.069 8.666 315.4 8.666 315.82 8.666C316.24 8.666 316.688 8.67067 317.164 8.68C317.65 8.68 318.116 8.68467 318.564 8.694C319.022 8.70333 319.409 8.71267 319.726 8.722C320.053 8.722 320.263 8.722 320.356 8.722C320.562 8.722 320.716 8.79667 320.818 8.946C320.921 9.086 320.972 9.27733 320.972 9.52C320.972 9.76267 320.921 9.95867 320.818 10.108C320.716 10.248 320.562 10.318 320.356 10.318C320.3 10.318 320.118 10.318 319.81 10.318C319.512 10.318 319.134 10.318 318.676 10.318C318.228 10.3087 317.757 10.304 317.262 10.304C316.777 10.2947 316.315 10.29 315.876 10.29C315.447 10.29 315.097 10.29 314.826 10.29ZM322.882 6.3C322.919 5.89867 323.045 5.516 323.26 5.152C323.474 4.77867 323.754 4.44733 324.1 4.158C324.445 3.86867 324.842 3.64467 325.29 3.486C325.747 3.318 326.232 3.234 326.746 3.234C327.259 3.234 327.744 3.31333 328.202 3.472C328.668 3.63067 329.084 3.85933 329.448 4.158C329.812 4.44733 330.096 4.80667 330.302 5.236C330.516 5.656 330.624 6.132 330.624 6.664C330.624 7.224 330.516 7.756 330.302 8.26C330.096 8.75467 329.816 9.226 329.462 9.674C329.107 10.122 328.715 10.5373 328.286 10.92C327.856 11.3027 327.422 11.662 326.984 11.998C327.376 11.9887 327.735 11.9933 328.062 12.012C328.388 12.0213 328.692 12.0447 328.972 12.082C329.261 12.11 329.532 12.1473 329.784 12.194C330.045 12.2407 330.297 12.2873 330.54 12.334C330.838 12.3993 331.058 12.5113 331.198 12.67C331.347 12.8193 331.394 13.0433 331.338 13.342C331.291 13.6687 331.16 13.8927 330.946 14.014C330.74 14.1353 330.502 14.1727 330.232 14.126C329.774 14.042 329.242 13.9533 328.636 13.86C328.038 13.7667 327.394 13.7153 326.704 13.706C326.489 13.6967 326.265 13.7013 326.032 13.72C325.798 13.7293 325.584 13.7433 325.388 13.762C325.192 13.7713 325.038 13.79 324.926 13.818C324.795 13.93 324.65 14.0233 324.492 14.098C324.333 14.1727 324.156 14.21 323.96 14.21C323.773 14.21 323.605 14.1493 323.456 14.028C323.316 13.916 323.222 13.7573 323.176 13.552C323.12 13.3373 323.124 13.146 323.19 12.978C323.255 12.8007 323.381 12.656 323.568 12.544C324.184 12.1613 324.79 11.746 325.388 11.298C325.994 10.8407 326.545 10.3693 327.04 9.884C327.534 9.38933 327.931 8.89 328.23 8.386C328.528 7.882 328.678 7.392 328.678 6.916C328.678 6.496 328.598 6.132 328.44 5.824C328.281 5.516 328.052 5.278 327.754 5.11C327.455 4.942 327.096 4.858 326.676 4.858C326.358 4.858 326.06 4.92333 325.78 5.054C325.5 5.18467 325.257 5.37133 325.052 5.614C324.856 5.84733 324.716 6.12733 324.632 6.454C324.604 6.60333 324.524 6.72933 324.394 6.832C324.263 6.93467 324.048 6.986 323.75 6.986C323.479 6.986 323.264 6.92533 323.106 6.804C322.956 6.68267 322.882 6.51467 322.882 6.3ZM333.92 3.878C333.948 3.74733 334.013 3.64933 334.116 3.584C334.228 3.50933 334.344 3.472 334.466 3.472C334.867 3.444 335.161 3.50467 335.348 3.654C335.534 3.80333 335.618 3.92933 335.6 4.032C335.59 4.116 335.558 4.31667 335.502 4.634C335.446 4.95133 335.38 5.32933 335.306 5.768C335.231 6.20667 335.147 6.65467 335.054 7.112C334.97 7.56933 334.886 7.98467 334.802 8.358L333.85 8.442C334.344 8.00333 334.83 7.7 335.306 7.532C335.791 7.35467 336.239 7.266 336.65 7.266C337.294 7.266 337.858 7.41533 338.344 7.714C338.838 8.00333 339.221 8.4 339.492 8.904C339.772 9.408 339.912 9.97733 339.912 10.612C339.912 11.2747 339.762 11.8813 339.464 12.432C339.165 12.9827 338.74 13.426 338.19 13.762C337.648 14.0887 337 14.252 336.244 14.252C335.87 14.252 335.488 14.2193 335.096 14.154C334.713 14.0887 334.349 13.9907 334.004 13.86C333.668 13.7293 333.364 13.58 333.094 13.412C333 13.356 332.93 13.2813 332.884 13.188C332.837 13.0853 332.814 12.9873 332.814 12.894C332.814 12.7727 332.846 12.6327 332.912 12.474C332.986 12.3153 333.075 12.18 333.178 12.068C333.29 11.9467 333.402 11.886 333.514 11.886C333.588 11.886 333.668 11.9 333.752 11.928C333.836 11.956 333.915 11.9887 333.99 12.026C334.214 12.138 334.438 12.2407 334.662 12.334C334.895 12.418 335.133 12.488 335.376 12.544C335.618 12.5907 335.884 12.614 336.174 12.614C336.603 12.614 336.948 12.516 337.21 12.32C337.471 12.124 337.658 11.8767 337.77 11.578C337.891 11.27 337.952 10.9527 337.952 10.626C337.952 10.346 337.891 10.0753 337.77 9.814C337.658 9.55267 337.476 9.338 337.224 9.17C336.972 8.99267 336.64 8.904 336.23 8.904C335.791 8.904 335.399 8.97867 335.054 9.128C334.718 9.268 334.335 9.51533 333.906 9.87C333.803 9.94467 333.7 9.982 333.598 9.982C333.486 9.982 333.374 9.95867 333.262 9.912C333.15 9.856 333.066 9.76267 333.01 9.632C332.954 9.50133 332.944 9.32867 332.982 9.114C333.122 8.47933 333.243 7.87733 333.346 7.308C333.448 6.72933 333.546 6.16 333.64 5.6C333.733 5.03067 333.826 4.45667 333.92 3.878ZM333.388 4.13C333.388 3.92467 333.425 3.766 333.5 3.654C333.584 3.53267 333.682 3.44867 333.794 3.402C333.906 3.346 334.008 3.32267 334.102 3.332C334.382 3.34133 334.718 3.346 335.11 3.346C335.502 3.346 335.922 3.34133 336.37 3.332C336.818 3.32267 337.266 3.30867 337.714 3.29C338.162 3.262 338.582 3.22933 338.974 3.192C339.16 3.17333 339.314 3.22933 339.436 3.36C339.557 3.49067 339.618 3.71 339.618 4.018C339.618 4.354 339.548 4.58733 339.408 4.718C339.277 4.83933 339.09 4.914 338.848 4.942C338.456 4.97933 338.003 5.01667 337.49 5.054C336.986 5.082 336.454 5.10067 335.894 5.11C335.343 5.11933 334.797 5.11933 334.256 5.11C334.153 5.10067 334.032 5.07733 333.892 5.04C333.752 4.99333 333.63 4.9 333.528 4.76C333.434 4.62 333.388 4.41 333.388 4.13ZM345.942 14.224C345.139 14.224 344.449 14.0793 343.87 13.79C343.291 13.4913 342.811 13.09 342.428 12.586C342.055 12.0727 341.775 11.4893 341.588 10.836C341.411 10.1827 341.322 9.50133 341.322 8.792C341.322 8.092 341.411 7.41067 341.588 6.748C341.775 6.076 342.055 5.46933 342.428 4.928C342.801 4.38667 343.268 3.95733 343.828 3.64C344.397 3.31333 345.06 3.15 345.816 3.15C345.965 3.15 346.143 3.15933 346.348 3.178C346.563 3.19667 346.787 3.22467 347.02 3.262C347.263 3.29933 347.491 3.35533 347.706 3.43C348.331 3.83133 348.84 4.34467 349.232 4.97C349.633 5.59533 349.932 6.272 350.128 7C350.324 7.728 350.422 8.44667 350.422 9.156C350.422 9.83733 350.333 10.4813 350.156 11.088C349.979 11.6947 349.703 12.236 349.33 12.712C348.957 13.1787 348.49 13.5473 347.93 13.818C347.37 14.0887 346.707 14.224 345.942 14.224ZM343.198 8.68C343.198 9.14667 343.245 9.60867 343.338 10.066C343.441 10.514 343.599 10.9247 343.814 11.298C344.029 11.662 344.309 11.956 344.654 12.18C345.009 12.404 345.433 12.516 345.928 12.516C346.451 12.516 346.899 12.3807 347.272 12.11C347.645 11.8393 347.935 11.452 348.14 10.948C348.345 10.444 348.448 9.842 348.448 9.142C348.448 8.582 348.383 8.02667 348.252 7.476C348.121 6.916 347.925 6.412 347.664 5.964C347.403 5.516 347.076 5.18933 346.684 4.984C346.544 4.93733 346.404 4.90467 346.264 4.886C346.124 4.86733 345.979 4.858 345.83 4.858C345.391 4.858 345.013 4.95133 344.696 5.138C344.388 5.32467 344.136 5.56733 343.94 5.866C343.744 6.16467 343.59 6.49133 343.478 6.846C343.375 7.19133 343.301 7.52733 343.254 7.854C343.217 8.17133 343.198 8.44667 343.198 8.68ZM211.561 34.28C211.244 34.2707 210.969 34.1773 210.735 34C210.511 33.832 210.399 33.5987 210.399 33.3C210.399 33.0853 210.446 32.88 210.539 32.684C210.633 32.488 210.773 32.3247 210.959 32.194C211.155 32.0633 211.398 31.998 211.687 31.998C212.061 31.998 212.331 32.1053 212.499 32.32C212.677 32.5347 212.765 32.782 212.765 33.062C212.765 33.3887 212.649 33.6733 212.415 33.916C212.182 34.1587 211.897 34.28 211.561 34.28ZM214.746 26.79C214.764 26.5567 214.797 26.3467 214.844 26.16C214.9 25.9733 214.984 25.8287 215.096 25.726C215.208 25.614 215.376 25.558 215.6 25.558C215.908 25.558 216.136 25.6607 216.286 25.866C216.444 26.0713 216.519 26.3187 216.51 26.608C216.5 26.8693 216.491 27.14 216.482 27.42C216.482 27.6907 216.482 27.98 216.482 28.288C216.482 28.82 216.477 29.366 216.468 29.926C216.458 30.486 216.454 31.0507 216.454 31.62C216.454 32.18 216.463 32.74 216.482 33.3C216.491 33.5893 216.43 33.8133 216.3 33.972C216.169 34.1213 215.926 34.196 215.572 34.196C215.264 34.196 215.068 34.1353 214.984 34.014C214.9 33.8927 214.844 33.72 214.816 33.496C214.778 32.9827 214.746 32.4693 214.718 31.956C214.69 31.4427 214.671 30.934 214.662 30.43C214.652 29.9167 214.652 29.4127 214.662 28.918C214.662 28.5073 214.671 28.12 214.69 27.756C214.708 27.3827 214.727 27.0607 214.746 26.79ZM220.894 27.504C220.903 27.7187 220.908 27.9707 220.908 28.26C220.917 28.5493 220.922 28.8667 220.922 29.212C220.931 29.548 220.936 29.9027 220.936 30.276C220.936 31.1067 220.922 31.8113 220.894 32.39C220.875 32.9687 220.838 33.4587 220.782 33.86C220.735 34.2613 220.675 34.5973 220.6 34.868C220.535 35.148 220.451 35.3813 220.348 35.568C220.255 35.764 220.143 35.9553 220.012 36.142C219.853 36.3567 219.667 36.5433 219.452 36.702C219.237 36.87 219.013 36.996 218.78 37.08C218.547 37.1733 218.323 37.22 218.108 37.22C217.865 37.22 217.66 37.1547 217.492 37.024C217.324 36.8933 217.24 36.7393 217.24 36.562C217.24 36.4033 217.296 36.2633 217.408 36.142C217.52 36.03 217.641 35.9227 217.772 35.82C218.071 35.6147 218.309 35.3673 218.486 35.078C218.663 34.7887 218.794 34.4293 218.878 34C218.971 33.58 219.032 33.0667 219.06 32.46C219.097 31.844 219.116 31.1067 219.116 30.248C219.116 29.7347 219.111 29.268 219.102 28.848C219.093 28.4187 219.083 28.0267 219.074 27.672C219.065 27.3173 219.06 26.9907 219.06 26.692C219.06 26.384 219.121 26.132 219.242 25.936C219.373 25.7307 219.606 25.628 219.942 25.628C220.185 25.628 220.376 25.684 220.516 25.796C220.656 25.908 220.749 26.076 220.796 26.3C220.824 26.4493 220.843 26.6407 220.852 26.874C220.871 27.1073 220.885 27.3173 220.894 27.504ZM229.845 31.2C229.845 32.1613 229.649 32.88 229.257 33.356C228.865 33.832 228.333 34.07 227.661 34.07C227.185 34.07 226.742 33.9813 226.331 33.804C225.93 33.6173 225.543 33.3327 225.169 32.95C224.796 32.5673 224.413 32.0727 224.021 31.466L225.099 31.2C224.987 31.4987 224.847 31.83 224.679 32.194C224.511 32.558 224.339 32.9127 224.161 33.258C223.984 33.6033 223.825 33.8927 223.685 34.126C223.592 34.2847 223.499 34.406 223.405 34.49C223.312 34.574 223.2 34.616 223.069 34.616C222.976 34.616 222.845 34.5787 222.677 34.504C222.519 34.4387 222.374 34.3453 222.243 34.224C222.122 34.1027 222.061 33.9767 222.061 33.846C222.061 33.7807 222.071 33.7107 222.089 33.636C222.117 33.5613 222.155 33.482 222.201 33.398C222.36 33.1367 222.528 32.8287 222.705 32.474C222.892 32.11 223.069 31.746 223.237 31.382C223.405 31.018 223.55 30.6913 223.671 30.402C223.727 30.262 223.83 30.1547 223.979 30.08C224.138 29.996 224.292 29.954 224.441 29.954C224.665 29.954 224.829 30.024 224.931 30.164C225.221 30.612 225.491 30.9853 225.743 31.284C226.005 31.5827 226.261 31.8067 226.513 31.956C226.775 32.1053 227.045 32.18 227.325 32.18C227.587 32.18 227.778 32.0727 227.899 31.858C228.021 31.634 228.081 31.326 228.081 30.934C228.081 30.29 227.969 29.7393 227.745 29.282C227.531 28.8153 227.251 28.4607 226.905 28.218C226.56 27.966 226.196 27.84 225.813 27.84C225.543 27.84 225.3 27.8773 225.085 27.952C224.88 28.0173 224.67 28.1153 224.455 28.246C224.213 28.3673 224.007 28.428 223.839 28.428C223.681 28.428 223.536 28.3627 223.405 28.232C223.284 28.092 223.186 27.9333 223.111 27.756C223.037 27.5787 222.999 27.4293 222.999 27.308C222.999 27.1307 223.051 26.9767 223.153 26.846C223.256 26.7153 223.382 26.5987 223.531 26.496C223.923 26.2253 224.306 26.0293 224.679 25.908C225.053 25.7773 225.473 25.712 225.939 25.712C226.481 25.712 226.985 25.8473 227.451 26.118C227.927 26.3793 228.343 26.7573 228.697 27.252C229.052 27.7373 229.332 28.316 229.537 28.988C229.743 29.6507 229.845 30.388 229.845 31.2ZM237.443 28.862C237.443 29.478 237.429 30.122 237.401 30.794C237.373 31.466 237.326 32.1473 237.261 32.838C237.223 33.3233 237.111 33.678 236.925 33.902C236.747 34.126 236.514 34.238 236.225 34.238C235.963 34.238 235.777 34.1587 235.665 34C235.562 33.832 235.515 33.6033 235.525 33.314C235.553 32.782 235.576 32.2687 235.595 31.774C235.613 31.27 235.627 30.7753 235.637 30.29C235.646 29.7953 235.651 29.3147 235.651 28.848C235.651 28.6147 235.651 28.344 235.651 28.036C235.651 27.728 235.651 27.4293 235.651 27.14C235.651 26.8413 235.651 26.6173 235.651 26.468C235.669 26.1973 235.735 25.9873 235.847 25.838C235.959 25.6793 236.159 25.6 236.449 25.6C236.757 25.6 236.976 25.6653 237.107 25.796C237.237 25.9267 237.321 26.16 237.359 26.496C237.377 26.6827 237.391 26.9113 237.401 27.182C237.419 27.4527 237.429 27.7327 237.429 28.022C237.438 28.3113 237.443 28.5913 237.443 28.862ZM241.839 27.588C241.83 27.7187 241.82 27.9007 241.811 28.134C241.811 28.358 241.806 28.6193 241.797 28.918C241.788 29.2073 241.778 29.52 241.769 29.856C241.769 30.192 241.764 30.5373 241.755 30.892C241.755 31.2467 241.75 31.5967 241.741 31.942C241.732 32.6327 241.704 33.23 241.657 33.734C241.62 34.2287 241.564 34.6533 241.489 35.008C241.414 35.3627 241.316 35.68 241.195 35.96C240.98 36.4453 240.682 36.828 240.299 37.108C239.926 37.3973 239.515 37.542 239.067 37.542C238.834 37.542 238.633 37.4767 238.465 37.346C238.288 37.2153 238.199 37.0427 238.199 36.828C238.199 36.688 238.255 36.5713 238.367 36.478C238.479 36.3847 238.61 36.2913 238.759 36.198C238.918 36.1047 239.058 35.988 239.179 35.848C239.31 35.708 239.417 35.5447 239.501 35.358C239.604 35.1247 239.683 34.84 239.739 34.504C239.804 34.168 239.851 33.7853 239.879 33.356C239.916 32.9173 239.935 32.4367 239.935 31.914C239.944 31.4847 239.949 31.0553 239.949 30.626C239.958 30.1967 239.963 29.7813 239.963 29.38C239.972 28.9693 239.982 28.5867 239.991 28.232C240 27.8773 240.01 27.56 240.019 27.28C240.038 27 240.056 26.7667 240.075 26.58C240.112 26.2813 240.192 26.0433 240.313 25.866C240.444 25.6887 240.654 25.6 240.943 25.6C241.204 25.6 241.4 25.6513 241.531 25.754C241.671 25.8473 241.764 25.9733 241.811 26.132C241.858 26.2907 241.876 26.4633 241.867 26.65C241.867 26.7993 241.862 26.9533 241.853 27.112C241.853 27.2613 241.848 27.42 241.839 27.588ZM250.33 31.032C250.33 31.4707 250.311 31.9047 250.274 32.334C250.236 32.754 250.185 33.1133 250.12 33.412C250.073 33.664 249.961 33.8553 249.784 33.986C249.616 34.1167 249.406 34.182 249.154 34.182C248.883 34.182 248.678 34.14 248.538 34.056C248.398 33.972 248.328 33.832 248.328 33.636C248.328 33.608 248.328 33.58 248.328 33.552C248.337 33.524 248.342 33.496 248.342 33.468C248.398 33.16 248.444 32.824 248.482 32.46C248.519 32.096 248.538 31.6993 248.538 31.27C248.538 30.3927 248.416 29.6973 248.174 29.184C247.94 28.6707 247.609 28.302 247.18 28.078C246.75 27.8447 246.242 27.728 245.654 27.728C245.262 27.728 244.888 27.7653 244.534 27.84C244.44 27.868 244.352 27.8867 244.268 27.896C244.184 27.9053 244.104 27.91 244.03 27.91C243.796 27.91 243.619 27.8447 243.498 27.714C243.376 27.5833 243.297 27.434 243.26 27.266C243.222 27.098 243.204 26.9533 243.204 26.832C243.204 26.6827 243.246 26.5473 243.33 26.426C243.414 26.3047 243.544 26.1973 243.722 26.104C244.002 25.964 244.319 25.8567 244.674 25.782C245.028 25.7073 245.374 25.67 245.71 25.67C246.624 25.67 247.427 25.852 248.118 26.216C248.818 26.5707 249.359 27.1447 249.742 27.938C250.134 28.722 250.33 29.7533 250.33 31.032ZM253.37 27.994C253.342 28.0033 253.309 28.008 253.272 28.008C253.244 28.008 253.22 28.008 253.202 28.008C253.071 28.008 252.954 27.9613 252.852 27.868C252.758 27.7747 252.684 27.658 252.628 27.518C252.572 27.378 252.525 27.238 252.488 27.098C252.46 26.958 252.446 26.8413 252.446 26.748C252.446 26.4213 252.623 26.1927 252.978 26.062C253.342 25.9407 253.748 25.8427 254.196 25.768C254.644 25.684 255.101 25.642 255.568 25.642C257.257 25.642 258.475 26.0527 259.222 26.874C259.978 27.686 260.356 28.8993 260.356 30.514C260.356 30.8407 260.342 31.1673 260.314 31.494C260.286 31.8207 260.248 32.138 260.202 32.446C260.155 32.7447 260.094 33.0293 260.02 33.3C259.945 33.5427 259.842 33.7433 259.712 33.902C259.59 34.0607 259.413 34.14 259.18 34.14C258.862 34.14 258.629 34.0887 258.48 33.986C258.34 33.8833 258.27 33.72 258.27 33.496C258.27 33.44 258.274 33.384 258.284 33.328C258.302 33.2627 258.316 33.1927 258.326 33.118C258.372 32.8753 258.414 32.614 258.452 32.334C258.489 32.0447 258.522 31.7553 258.55 31.466C258.578 31.1673 258.592 30.8827 258.592 30.612C258.592 29.9493 258.484 29.3987 258.27 28.96C258.064 28.5213 257.738 28.1947 257.29 27.98C256.842 27.7653 256.249 27.658 255.512 27.658C255.148 27.658 254.793 27.686 254.448 27.742C254.112 27.7887 253.752 27.8727 253.37 27.994ZM254.868 26.608C254.868 26.8413 254.858 27.098 254.84 27.378C254.83 27.6487 254.821 27.9193 254.812 28.19C254.802 28.4607 254.793 28.7033 254.784 28.918C254.774 29.2167 254.765 29.5153 254.756 29.814C254.746 30.1127 254.737 30.416 254.728 30.724C254.718 31.0227 254.709 31.3307 254.7 31.648C254.7 31.7787 254.69 31.9513 254.672 32.166C254.662 32.3713 254.648 32.5813 254.63 32.796C254.62 33.0013 254.611 33.1787 254.602 33.328C254.592 33.72 254.522 33.972 254.392 34.084C254.261 34.2053 254.065 34.266 253.804 34.266C253.598 34.266 253.416 34.2427 253.258 34.196C253.099 34.1587 252.982 34.0653 252.908 33.916C252.833 33.7573 252.8 33.524 252.81 33.216C252.828 32.9453 252.842 32.6513 252.852 32.334C252.87 32.0167 252.884 31.6993 252.894 31.382C252.903 31.0647 252.912 30.7707 252.922 30.5C252.931 30.2667 252.936 30.0333 252.936 29.8C252.945 29.5667 252.954 29.3287 252.964 29.086C252.973 28.8433 252.982 28.6007 252.992 28.358C253.001 28.0593 253.006 27.8213 253.006 27.644C253.015 27.4573 253.02 27.2753 253.02 27.098C253.029 26.9113 253.043 26.6733 253.062 26.384C253.071 26.0853 253.155 25.8753 253.314 25.754C253.472 25.6233 253.682 25.558 253.944 25.558C254.28 25.558 254.522 25.642 254.672 25.81C254.821 25.978 254.886 26.244 254.868 26.608ZM269.125 30.934C269.125 31.998 268.906 32.81 268.467 33.37C268.029 33.93 267.427 34.21 266.661 34.21C266.241 34.21 265.882 34.14 265.583 34C265.285 33.8693 265.019 33.692 264.785 33.468C264.561 33.2347 264.337 32.9733 264.113 32.684C264.076 32.628 264.043 32.5907 264.015 32.572C263.997 32.5533 263.969 32.544 263.931 32.544C263.885 32.544 263.847 32.5627 263.819 32.6C263.801 32.628 263.773 32.6747 263.735 32.74C263.633 32.9733 263.53 33.1973 263.427 33.412C263.325 33.6173 263.222 33.818 263.119 34.014C262.951 34.322 262.741 34.476 262.489 34.476C262.396 34.476 262.265 34.4433 262.097 34.378C261.939 34.322 261.799 34.238 261.677 34.126C261.556 34.014 261.495 33.888 261.495 33.748C261.495 33.6733 261.505 33.594 261.523 33.51C261.551 33.426 261.589 33.342 261.635 33.258C261.785 32.978 261.939 32.6793 262.097 32.362C262.256 32.0353 262.405 31.718 262.545 31.41C262.685 31.102 262.844 30.8687 263.021 30.71C263.199 30.5513 263.395 30.472 263.609 30.472C263.805 30.472 263.978 30.5187 264.127 30.612C264.277 30.7053 264.426 30.85 264.575 31.046C264.781 31.3073 264.967 31.536 265.135 31.732C265.313 31.9187 265.49 32.0633 265.667 32.166C265.854 32.2687 266.069 32.32 266.311 32.32C266.657 32.32 266.918 32.194 267.095 31.942C267.273 31.6807 267.361 31.2933 267.361 30.78C267.361 30.2947 267.282 29.87 267.123 29.506C266.974 29.1327 266.769 28.8247 266.507 28.582C266.255 28.33 265.975 28.1433 265.667 28.022C265.359 27.9007 265.051 27.84 264.743 27.84C264.463 27.84 264.207 27.8727 263.973 27.938C263.749 27.994 263.521 28.0733 263.287 28.176C263.185 28.2133 263.087 28.2413 262.993 28.26C262.9 28.2787 262.816 28.288 262.741 28.288C262.573 28.288 262.429 28.218 262.307 28.078C262.186 27.9287 262.097 27.7653 262.041 27.588C261.985 27.4013 261.957 27.252 261.957 27.14C261.957 26.944 262.013 26.776 262.125 26.636C262.247 26.496 262.396 26.3793 262.573 26.286C262.975 26.0807 263.339 25.936 263.665 25.852C264.001 25.7587 264.403 25.712 264.869 25.712C265.439 25.712 265.98 25.8333 266.493 26.076C267.007 26.3093 267.459 26.65 267.851 27.098C268.243 27.546 268.551 28.0967 268.775 28.75C269.009 29.394 269.125 30.122 269.125 30.934ZM281.894 31.2C281.894 31.5827 281.875 31.9653 281.838 32.348C281.801 32.7307 281.745 33.09 281.67 33.426C281.623 33.6687 281.525 33.8553 281.376 33.986C281.227 34.1073 281.026 34.168 280.774 34.168C280.503 34.168 280.293 34.1027 280.144 33.972C279.995 33.8413 279.92 33.6453 279.92 33.384C279.92 33.3373 279.92 33.286 279.92 33.23C279.929 33.1647 279.939 33.0993 279.948 33.034C279.976 32.8193 280.004 32.5673 280.032 32.278C280.069 31.9793 280.088 31.6807 280.088 31.382C280.088 30.8127 280.027 30.3087 279.906 29.87C279.794 29.422 279.617 29.044 279.374 28.736C279.131 28.4187 278.828 28.1807 278.464 28.022C278.1 27.8633 277.666 27.784 277.162 27.784C276.919 27.784 276.695 27.8027 276.49 27.84C276.294 27.868 276.075 27.9147 275.832 27.98C275.701 28.008 275.575 28.036 275.454 28.064C275.333 28.0827 275.221 28.092 275.118 28.092C274.95 28.092 274.81 28.036 274.698 27.924C274.586 27.8027 274.507 27.6627 274.46 27.504C274.413 27.3453 274.39 27.2053 274.39 27.084C274.39 26.888 274.451 26.706 274.572 26.538C274.703 26.3607 274.917 26.216 275.216 26.104C275.524 25.992 275.855 25.9033 276.21 25.838C276.565 25.7727 276.961 25.74 277.4 25.74C278.221 25.74 278.917 25.8753 279.486 26.146C280.055 26.4073 280.517 26.7807 280.872 27.266C281.236 27.7513 281.497 28.33 281.656 29.002C281.815 29.6647 281.894 30.3973 281.894 31.2ZM290.672 30.808C290.672 31.8627 290.443 32.67 289.986 33.23C289.528 33.79 288.922 34.07 288.166 34.07C287.755 34.07 287.363 33.958 286.99 33.734C286.626 33.51 286.276 33.1833 285.94 32.754C285.613 32.3153 285.31 31.7833 285.03 31.158L286.024 31.046C285.874 31.3447 285.711 31.676 285.534 32.04C285.366 32.3947 285.207 32.74 285.058 33.076C284.908 33.4027 284.778 33.692 284.666 33.944C284.6 34.1027 284.516 34.224 284.414 34.308C284.311 34.392 284.199 34.434 284.078 34.434C284.003 34.434 283.924 34.42 283.84 34.392C283.765 34.364 283.676 34.3267 283.574 34.28C283.396 34.1773 283.266 34.0793 283.182 33.986C283.107 33.8927 283.07 33.7807 283.07 33.65C283.07 33.5847 283.079 33.5147 283.098 33.44C283.116 33.3653 283.144 33.2907 283.182 33.216C283.303 32.936 283.448 32.6187 283.616 32.264C283.784 31.9 283.961 31.5267 284.148 31.144C284.344 30.7613 284.53 30.4067 284.708 30.08C284.773 29.9587 284.876 29.8607 285.016 29.786C285.156 29.7113 285.305 29.674 285.464 29.674C285.585 29.674 285.697 29.702 285.8 29.758C285.902 29.8047 285.982 29.884 286.038 29.996C286.215 30.3973 286.397 30.766 286.584 31.102C286.77 31.4287 286.971 31.69 287.186 31.886C287.41 32.082 287.657 32.18 287.928 32.18C288.142 32.18 288.32 32.1193 288.46 31.998C288.609 31.8767 288.721 31.7087 288.796 31.494C288.87 31.2793 288.908 31.0273 288.908 30.738C288.908 30.01 288.782 29.4267 288.53 28.988C288.278 28.5493 287.951 28.232 287.55 28.036C287.148 27.84 286.719 27.742 286.262 27.742C286.066 27.742 285.865 27.756 285.66 27.784C285.464 27.812 285.268 27.8587 285.072 27.924C285.006 27.9333 284.946 27.9473 284.89 27.966C284.834 27.9753 284.778 27.98 284.722 27.98C284.526 27.98 284.367 27.9147 284.246 27.784C284.134 27.644 284.05 27.49 283.994 27.322C283.947 27.1447 283.924 26.9953 283.924 26.874C283.924 26.65 283.989 26.4633 284.12 26.314C284.25 26.1553 284.423 26.0293 284.638 25.936C284.899 25.8333 285.17 25.754 285.45 25.698C285.739 25.642 286.052 25.614 286.388 25.614C287.181 25.614 287.9 25.81 288.544 26.202C289.188 26.5847 289.701 27.1633 290.084 27.938C290.476 28.7033 290.672 29.66 290.672 30.808ZM294.653 34.238C294.252 34.238 293.888 34.2053 293.561 34.14C293.244 34.084 292.95 34.0047 292.679 33.902C292.474 33.818 292.315 33.7153 292.203 33.594C292.1 33.4727 292.049 33.3047 292.049 33.09C292.049 32.95 292.072 32.7867 292.119 32.6C292.175 32.404 292.254 32.2313 292.357 32.082C292.469 31.9327 292.618 31.858 292.805 31.858C292.908 31.858 293.01 31.872 293.113 31.9C293.225 31.928 293.328 31.9607 293.421 31.998C293.617 32.054 293.822 32.1053 294.037 32.152C294.261 32.1893 294.49 32.208 294.723 32.208C295.115 32.208 295.474 32.1333 295.801 31.984C296.137 31.8253 296.403 31.5827 296.599 31.256C296.795 30.92 296.893 30.4767 296.893 29.926C296.893 29.506 296.823 29.128 296.683 28.792C296.552 28.4467 296.352 28.1713 296.081 27.966C295.81 27.7607 295.479 27.658 295.087 27.658C294.751 27.658 294.471 27.714 294.247 27.826C294.032 27.938 293.822 28.0873 293.617 28.274C293.458 28.414 293.328 28.5167 293.225 28.582C293.122 28.6473 293.001 28.68 292.861 28.68C292.73 28.68 292.586 28.6333 292.427 28.54C292.268 28.4467 292.133 28.316 292.021 28.148C291.909 27.98 291.853 27.7793 291.853 27.546C291.853 27.4433 291.872 27.3453 291.909 27.252C291.946 27.1587 292.012 27.0607 292.105 26.958C292.441 26.5847 292.856 26.272 293.351 26.02C293.855 25.768 294.429 25.642 295.073 25.642C295.764 25.642 296.38 25.81 296.921 26.146C297.462 26.482 297.892 26.958 298.209 27.574C298.526 28.19 298.685 28.9133 298.685 29.744C298.685 30.5373 298.582 31.2187 298.377 31.788C298.172 32.348 297.887 32.81 297.523 33.174C297.159 33.538 296.73 33.8087 296.235 33.986C295.75 34.154 295.222 34.238 294.653 34.238ZM304.293 29.618C304.303 29.31 304.312 28.9647 304.321 28.582C304.34 28.1993 304.354 27.8167 304.363 27.434C304.373 27.042 304.382 26.6827 304.391 26.356C304.401 26.132 304.447 25.964 304.531 25.852C304.615 25.74 304.723 25.6653 304.853 25.628C304.993 25.5907 305.143 25.572 305.301 25.572C305.572 25.572 305.768 25.642 305.889 25.782C306.011 25.922 306.076 26.1133 306.085 26.356C306.104 26.692 306.113 27.0607 306.113 27.462C306.113 27.8633 306.113 28.2553 306.113 28.638C306.113 29.0207 306.109 29.3613 306.099 29.66C306.09 29.9493 306.015 30.1687 305.875 30.318C305.745 30.458 305.525 30.528 305.217 30.528C304.919 30.528 304.685 30.458 304.517 30.318C304.359 30.1687 304.284 29.9353 304.293 29.618ZM308.519 34.252C308.249 34.252 307.983 34.2007 307.721 34.098C307.46 33.9953 307.208 33.818 306.965 33.566C306.863 33.4633 306.769 33.3467 306.685 33.216C306.601 33.0853 306.559 32.95 306.559 32.81C306.559 32.642 306.615 32.4927 306.727 32.362C306.839 32.222 306.975 32.152 307.133 32.152C307.208 32.152 307.292 32.166 307.385 32.194C307.479 32.2127 307.586 32.2547 307.707 32.32C307.782 32.3573 307.852 32.39 307.917 32.418C307.992 32.4367 308.071 32.446 308.155 32.446C308.323 32.446 308.454 32.3853 308.547 32.264C308.641 32.1333 308.701 31.928 308.729 31.648C308.767 31.3587 308.785 30.9667 308.785 30.472C308.785 29.6133 308.79 28.848 308.799 28.176C308.818 27.4947 308.846 26.888 308.883 26.356C308.921 25.824 308.981 25.3387 309.065 24.9C309.159 24.396 309.294 23.9853 309.471 23.668C309.658 23.3413 309.877 23.0847 310.129 22.898C310.381 22.702 310.657 22.548 310.955 22.436C311.021 22.4173 311.086 22.4033 311.151 22.394C311.217 22.3753 311.273 22.366 311.319 22.366C311.553 22.366 311.744 22.4733 311.893 22.688C312.043 22.9027 312.117 23.1267 312.117 23.36C312.117 23.5187 312.066 23.6493 311.963 23.752C311.87 23.8547 311.735 23.9527 311.557 24.046C311.427 24.1113 311.31 24.1907 311.207 24.284C311.105 24.3773 311.011 24.494 310.927 24.634C310.853 24.774 310.783 24.9467 310.717 25.152C310.661 25.348 310.615 25.5907 310.577 25.88C310.54 26.1973 310.507 26.5567 310.479 26.958C310.461 27.3593 310.447 27.7607 310.437 28.162C310.437 28.5633 310.437 28.9273 310.437 29.254C310.437 29.5713 310.433 29.8653 310.423 30.136C310.423 30.4067 310.423 30.668 310.423 30.92C310.423 31.592 310.367 32.18 310.255 32.684C310.153 33.1787 309.966 33.566 309.695 33.846C309.425 34.1167 309.033 34.252 308.519 34.252ZM314.534 30.29C314.534 30.402 314.529 30.584 314.52 30.836C314.52 31.088 314.515 31.3727 314.506 31.69C314.506 31.998 314.496 32.306 314.478 32.614C314.468 32.9127 314.454 33.174 314.436 33.398C314.398 33.7527 314.31 33.986 314.17 34.098C314.03 34.21 313.866 34.266 313.68 34.266C313.334 34.266 313.092 34.1493 312.952 33.916C312.821 33.6827 312.756 33.272 312.756 32.684C312.756 32.5907 312.756 32.4927 312.756 32.39C312.756 32.2873 312.756 32.1893 312.756 32.096C312.756 31.5827 312.76 31.0087 312.77 30.374C312.779 29.7393 312.793 29.0767 312.812 28.386C312.83 27.686 312.854 26.9953 312.882 26.314C312.91 25.8193 312.984 25.4973 313.106 25.348C313.236 25.1893 313.442 25.11 313.722 25.11C313.955 25.11 314.137 25.1567 314.268 25.25C314.398 25.334 314.492 25.4647 314.548 25.642C314.604 25.8193 314.632 26.034 314.632 26.286C314.632 26.454 314.627 26.6547 314.618 26.888C314.618 27.112 314.618 27.3593 314.618 27.63C314.618 27.9007 314.613 28.19 314.604 28.498C314.594 28.7967 314.585 29.1 314.576 29.408C314.566 29.7067 314.552 30.0007 314.534 30.29ZM315.318 30.304C315.318 29.6693 315.378 29.0673 315.5 28.498C315.63 27.9287 315.826 27.4293 316.088 27C316.358 26.5707 316.708 26.2347 317.138 25.992C317.576 25.74 318.104 25.614 318.72 25.614C319.018 25.614 319.284 25.6467 319.518 25.712C319.751 25.7773 319.961 25.8753 320.148 26.006C320.288 26.0993 320.39 26.216 320.456 26.356C320.521 26.4867 320.554 26.636 320.554 26.804C320.554 26.9347 320.521 27.0887 320.456 27.266C320.39 27.4433 320.297 27.5973 320.176 27.728C320.064 27.8587 319.933 27.924 319.784 27.924C319.728 27.924 319.667 27.91 319.602 27.882C319.424 27.8073 319.252 27.7513 319.084 27.714C318.925 27.6673 318.757 27.644 318.58 27.644C318.272 27.644 318.015 27.714 317.81 27.854C317.604 27.994 317.441 28.1853 317.32 28.428C317.198 28.6613 317.11 28.932 317.054 29.24C317.007 29.5387 316.984 29.856 316.984 30.192C316.984 30.5653 317.021 30.8967 317.096 31.186C317.18 31.4753 317.296 31.704 317.446 31.872C317.595 32.0307 317.782 32.11 318.006 32.11C318.267 32.11 318.5 32.0353 318.706 31.886C318.92 31.7367 319.13 31.536 319.336 31.284C319.429 31.1813 319.527 31.0973 319.63 31.032C319.732 30.9667 319.849 30.934 319.98 30.934C320.157 30.934 320.302 30.9993 320.414 31.13C320.535 31.2607 320.628 31.4193 320.694 31.606C320.759 31.7927 320.792 31.9653 320.792 32.124C320.792 32.2453 320.768 32.3573 320.722 32.46C320.684 32.5627 320.624 32.6653 320.54 32.768C320.194 33.2253 319.798 33.5707 319.35 33.804C318.911 34.0373 318.454 34.154 317.978 34.154C317.436 34.154 316.965 34.014 316.564 33.734C316.172 33.4447 315.864 33.0153 315.64 32.446C315.425 31.8767 315.318 31.1627 315.318 30.304ZM329.117 31.2C329.117 31.5827 329.098 31.9653 329.061 32.348C329.023 32.7307 328.967 33.09 328.893 33.426C328.846 33.6687 328.748 33.8553 328.599 33.986C328.449 34.1073 328.249 34.168 327.997 34.168C327.726 34.168 327.516 34.1027 327.367 33.972C327.217 33.8413 327.143 33.6453 327.143 33.384C327.143 33.3373 327.143 33.286 327.143 33.23C327.152 33.1647 327.161 33.0993 327.171 33.034C327.199 32.8193 327.227 32.5673 327.255 32.278C327.292 31.9793 327.311 31.6807 327.311 31.382C327.311 30.8127 327.25 30.3087 327.129 29.87C327.017 29.422 326.839 29.044 326.597 28.736C326.354 28.4187 326.051 28.1807 325.687 28.022C325.323 27.8633 324.889 27.784 324.385 27.784C324.142 27.784 323.918 27.8027 323.713 27.84C323.517 27.868 323.297 27.9147 323.055 27.98C322.924 28.008 322.798 28.036 322.677 28.064C322.555 28.0827 322.443 28.092 322.341 28.092C322.173 28.092 322.033 28.036 321.921 27.924C321.809 27.8027 321.729 27.6627 321.683 27.504C321.636 27.3453 321.613 27.2053 321.613 27.084C321.613 26.888 321.673 26.706 321.795 26.538C321.925 26.3607 322.14 26.216 322.439 26.104C322.747 25.992 323.078 25.9033 323.433 25.838C323.787 25.7727 324.184 25.74 324.623 25.74C325.444 25.74 326.139 25.8753 326.709 26.146C327.278 26.4073 327.74 26.7807 328.095 27.266C328.459 27.7513 328.72 28.33 328.879 29.002C329.037 29.6647 329.117 30.3973 329.117 31.2ZM336.353 27.098C336.353 27.9473 336.157 28.7453 335.765 29.492C335.383 30.2387 334.753 30.976 333.875 31.704C334.099 31.9187 334.337 32.096 334.589 32.236C334.851 32.3667 335.117 32.432 335.387 32.432C335.639 32.432 335.859 32.3807 336.045 32.278C336.232 32.166 336.391 32.0213 336.521 31.844C336.652 31.6667 336.75 31.48 336.815 31.284C336.89 31.0973 336.974 30.9387 337.067 30.808C337.17 30.6773 337.301 30.612 337.459 30.612C337.674 30.612 337.87 30.6867 338.047 30.836C338.225 30.9853 338.313 31.186 338.313 31.438C338.313 31.494 338.309 31.5547 338.299 31.62C338.299 31.6853 338.285 31.7507 338.257 31.816C338.108 32.32 337.889 32.754 337.599 33.118C337.319 33.4727 336.983 33.7433 336.591 33.93C336.209 34.1167 335.779 34.21 335.303 34.21C334.687 34.21 334.099 34.0513 333.539 33.734C332.979 33.4167 332.485 32.992 332.055 32.46C331.626 31.928 331.285 31.34 331.033 30.696C330.791 30.0427 330.669 29.3847 330.669 28.722C330.669 28.2273 330.749 27.7373 330.907 27.252C331.075 26.7667 331.309 26.328 331.607 25.936C331.906 25.544 332.256 25.2313 332.657 24.998C333.068 24.7553 333.521 24.634 334.015 24.634C334.706 24.634 335.266 24.8487 335.695 25.278C336.134 25.698 336.353 26.3047 336.353 27.098ZM332.391 28.554C332.391 28.8713 332.443 29.2073 332.545 29.562C332.657 29.9073 332.807 30.2387 332.993 30.556C333.376 30.2387 333.689 29.9073 333.931 29.562C334.174 29.2073 334.351 28.8433 334.463 28.47C334.585 28.0967 334.645 27.728 334.645 27.364C334.645 27.0467 334.585 26.7993 334.463 26.622C334.342 26.4353 334.151 26.342 333.889 26.342C333.712 26.342 333.535 26.4073 333.357 26.538C333.18 26.6687 333.017 26.8413 332.867 27.056C332.718 27.2707 332.601 27.5087 332.517 27.77C332.433 28.022 332.391 28.2833 332.391 28.554ZM338.993 29.618C339.002 29.31 339.011 28.9647 339.021 28.582C339.039 28.1993 339.053 27.8167 339.063 27.434C339.072 27.042 339.081 26.6827 339.091 26.356C339.1 26.132 339.147 25.964 339.231 25.852C339.315 25.74 339.422 25.6653 339.553 25.628C339.693 25.5907 339.842 25.572 340.001 25.572C340.271 25.572 340.467 25.642 340.589 25.782C340.71 25.922 340.775 26.1133 340.785 26.356C340.803 26.692 340.813 27.0607 340.813 27.462C340.813 27.8633 340.813 28.2553 340.813 28.638C340.813 29.0207 340.808 29.3613 340.799 29.66C340.789 29.9493 340.715 30.1687 340.575 30.318C340.444 30.458 340.225 30.528 339.917 30.528C339.618 30.528 339.385 30.458 339.217 30.318C339.058 30.1687 338.983 29.9353 338.993 29.618ZM349.989 30.556C349.989 31.004 349.979 31.4333 349.961 31.844C349.942 32.2547 349.909 32.628 349.863 32.964C349.807 33.384 349.699 33.692 349.541 33.888C349.382 34.0747 349.149 34.168 348.841 34.168C348.542 34.168 348.337 34.1213 348.225 34.028C348.113 33.9347 348.057 33.7713 348.057 33.538C348.047 33.482 348.043 33.4167 348.043 33.342C348.052 33.2673 348.061 33.202 348.071 33.146C348.108 32.7073 348.136 32.2733 348.155 31.844C348.183 31.4147 348.197 31.0133 348.197 30.64C348.197 30.22 348.169 29.8327 348.113 29.478C348.066 29.1233 347.973 28.8153 347.833 28.554C347.702 28.2833 347.506 28.0733 347.245 27.924C346.993 27.7747 346.657 27.7 346.237 27.7C345.826 27.7 345.443 27.742 345.089 27.826C344.734 27.9007 344.379 28.0033 344.025 28.134C343.838 28.19 343.67 28.2367 343.521 28.274C343.371 28.302 343.241 28.316 343.129 28.316C342.923 28.316 342.755 28.2087 342.625 27.994C342.494 27.77 342.429 27.5227 342.429 27.252C342.429 27.056 342.489 26.874 342.611 26.706C342.732 26.538 342.909 26.398 343.143 26.286C343.628 26.0713 344.109 25.9127 344.585 25.81C345.07 25.698 345.63 25.642 346.265 25.642C347.011 25.642 347.627 25.7587 348.113 25.992C348.598 26.2253 348.976 26.5613 349.247 27C349.517 27.4293 349.709 27.9473 349.821 28.554C349.933 29.1513 349.989 29.8187 349.989 30.556ZM343.759 34.14C343.497 34.14 343.301 34.07 343.171 33.93C343.04 33.7807 342.993 33.5753 343.031 33.314C343.087 32.9313 343.129 32.5487 343.157 32.166C343.194 31.7833 343.208 31.3867 343.199 30.976C343.199 30.836 343.194 30.696 343.185 30.556C343.175 30.416 343.166 30.2807 343.157 30.15C343.138 29.9913 343.185 29.828 343.297 29.66C343.418 29.492 343.6 29.408 343.843 29.408C344.141 29.408 344.361 29.4733 344.501 29.604C344.65 29.7253 344.739 29.9307 344.767 30.22C344.795 30.416 344.813 30.6213 344.823 30.836C344.832 31.0507 344.837 31.27 344.837 31.494C344.837 31.8113 344.827 32.1287 344.809 32.446C344.79 32.754 344.757 33.0527 344.711 33.342C344.664 33.6407 344.557 33.8507 344.389 33.972C344.23 34.084 344.02 34.14 343.759 34.14Z" fill="#717680"/>
</svg>
