<svg width="84" height="38" viewBox="0 0 84 38" fill="none" xmlns="http://www.w3.org/2000/svg">
<g clip-path="url(#clip0_258_17166)">
<path d="M0.5 23.833H3.61254C3.61254 25.1839 4.75476 26.0649 6.21109 26.476C6.89642 26.6816 7.63886 26.7697 8.3813 26.7697C9.12374 26.7697 9.86618 26.6816 10.5515 26.476C12.0078 26.0649 13.1501 25.1839 13.1501 23.833C13.1501 22.7464 12.6932 22.1004 12.0364 21.748C11.1226 21.2487 9.78052 21.1019 8.3813 21.1019C6.58231 21.1019 4.75476 20.867 3.29843 20.1034C1.61366 19.1931 0.5 17.666 0.5 15.1698C0.5 12.1157 2.64166 10.2362 5.38298 9.41398C6.32531 9.14968 7.3533 9.00285 8.3813 9.00285C9.4093 9.00285 10.4373 9.14968 11.3796 9.41398C14.1209 10.2362 16.2626 12.1157 16.2626 15.1698H13.1501C13.1501 13.819 12.0078 12.938 10.5515 12.5268C9.86618 12.3213 9.12374 12.2332 8.3813 12.2332C7.63886 12.2332 6.89642 12.3213 6.21109 12.5268C4.75476 12.938 3.61254 13.819 3.61254 15.1698C3.61254 16.2564 4.06943 16.9025 4.7262 17.2549C5.63998 17.7541 6.98208 17.9009 8.3813 17.9009C10.1803 17.9009 12.0078 18.1359 13.4642 18.8994C15.1489 19.8098 16.2912 21.3368 16.2912 23.833C16.2912 26.8871 14.1209 28.796 11.3796 29.5889C10.4373 29.8532 9.4093 30 8.3813 30C7.3533 30 6.32531 29.8532 5.38298 29.5889C2.64166 28.796 0.5 26.8871 0.5 23.833Z" fill="white"/>
<path d="M32.1835 11.2641C33.3828 12.4975 34.1538 14.2301 34.1538 16.1389C34.1538 18.0478 33.3828 19.7804 32.1835 21.0138C30.9556 22.2766 29.2708 23.0401 27.4147 23.0401H21.9321V29.7651H18.8195V9.20841H27.4147C29.2708 9.20841 30.9556 10.0013 32.1835 11.2641ZM29.9562 18.7526C30.6129 18.0771 31.0127 17.1374 31.0127 16.1389C31.0127 15.1111 30.6129 14.2007 29.9562 13.5253C29.2994 12.8499 28.4142 12.4387 27.4147 12.4387H21.9321V19.8391H27.4147C28.4142 19.8391 29.2994 19.428 29.9562 18.7526Z" fill="white"/>
<path d="M57.8703 12.4387H52.3876V19.8391H57.8703C58.8697 19.8391 59.7549 19.428 60.4117 18.7526C61.0685 18.0771 61.4683 17.1668 61.4683 16.1389C61.4683 15.1111 61.0685 14.2007 60.4117 13.5253C59.7549 12.8499 58.8697 12.4387 57.8703 12.4387ZM49.2751 9.20841H57.8703C59.7264 9.20841 61.4111 10.0013 62.639 11.2641C63.8384 12.4975 64.6094 14.2301 64.6094 16.1389C64.6094 18.0478 63.8384 19.7804 62.639 21.0138C61.7253 21.9535 60.5545 22.629 59.2409 22.9226C60.8972 25.2132 62.5534 27.4745 64.2096 29.7651H60.326C58.6984 27.5332 57.0707 25.3013 55.4431 23.0401H52.3876V29.7651H49.2751V9.20841Z" fill="white"/>
<path d="M66.8807 29.7651V9.20841H69.9933V17.9009H73.6484L79.6736 9.20841H83.5L76.3611 19.5161L83.5 29.7651H79.6736L73.6484 21.1019H69.9933V29.7651H66.8807Z" fill="white"/>
<path d="M47.6301 30H44.2238L40.039 19.6595L35.8542 30H32.47L39.0109 13.8744H41.0669L47.6301 30Z" fill="white"/>
<path d="M39.6221 0C40.1445 5.52648 39.6027 6.53452 34.7828 9.006C40.1401 8.46705 41.1173 9.02601 43.5131 13.9981C42.9906 8.47162 43.5325 7.46358 48.3523 4.99211C42.9951 5.53105 42.0179 4.9721 39.6221 0Z" fill="url(#paint0_linear_258_17166)"/>
</g>
<defs>
<linearGradient id="paint0_linear_258_17166" x1="34.8649" y1="14.1" x2="50.8662" y2="9.88215" gradientUnits="userSpaceOnUse">
<stop offset="0.1" stop-color="#F7797D"/>
<stop offset="0.520833" stop-color="#C471ED"/>
<stop offset="1" stop-color="#12C2E9"/>
</linearGradient>
<clipPath id="clip0_258_17166">
<rect width="83" height="38" fill="white" transform="translate(0.5)"/>
</clipPath>
</defs>
</svg>
