<svg width="266" height="96" viewBox="0 0 266 96" fill="none" xmlns="http://www.w3.org/2000/svg">
<g clip-path="url(#clip0_358_3007)">
<path d="M0.5 76.3026H10.4376C10.4376 80.6276 14.0845 83.4482 18.7342 84.7643C20.9223 85.4226 23.2927 85.7046 25.6632 85.7046C28.0336 85.7046 30.4041 85.4226 32.5921 84.7643C37.2418 83.4482 40.8889 80.6276 40.8889 76.3026C40.8889 72.8238 39.4301 70.7556 37.3331 69.6274C34.4155 68.0289 30.1306 67.5589 25.6632 67.5589C19.9194 67.5589 14.0845 66.8068 9.43475 64.3621C4.05566 61.4478 0.5 56.5587 0.5 48.567C0.5 38.7891 7.33783 32.7718 16.0902 30.1394C19.0989 29.2932 22.381 28.8232 25.6632 28.8232C28.9454 28.8232 32.2275 29.2932 35.2361 30.1394C43.9884 32.7718 50.8264 38.7891 50.8264 48.567H40.8889C40.8889 44.2423 37.2418 41.4217 32.5921 40.1053C30.4041 39.4473 28.0336 39.1653 25.6632 39.1653C23.2927 39.1653 20.9223 39.4473 18.7342 40.1053C14.0845 41.4217 10.4376 44.2423 10.4376 48.567C10.4376 52.0458 11.8964 54.1143 13.9933 55.2425C16.9108 56.8407 21.1958 57.3107 25.6632 57.3107C31.407 57.3107 37.2418 58.0631 41.8917 60.5075C47.2706 63.4222 50.9177 68.3109 50.9177 76.3026C50.9177 86.0805 43.9884 92.1919 35.2361 94.7305C32.2275 95.5766 28.9454 96.0466 25.6632 96.0466C22.381 96.0466 19.0989 95.5766 16.0902 94.7305C7.33783 92.1919 0.5 86.0805 0.5 76.3026Z" fill="url(#paint0_linear_358_3007)"/>
<path d="M101.658 36.0625C105.487 40.0113 107.949 45.5583 107.949 51.6695C107.949 57.7809 105.487 63.3279 101.658 67.2767C97.7378 71.3196 92.3586 73.764 86.4325 73.764H68.9278V95.2944H58.99V29.4811H86.4325C92.3586 29.4811 97.7378 32.0196 101.658 36.0625ZM94.5466 60.0374C96.6436 57.8747 97.9201 54.8662 97.9201 51.6695C97.9201 48.3789 96.6436 45.4642 94.5466 43.3019C92.4499 41.1396 89.6237 39.8231 86.4325 39.8231H68.9278V63.5158H86.4325C89.6237 63.5158 92.4499 62.1997 94.5466 60.0374Z" fill="url(#paint1_linear_358_3007)"/>
<path d="M183.67 39.8231H166.165V63.5158H183.67C186.861 63.5158 189.687 62.1997 191.784 60.0374C193.881 57.8747 195.158 54.9603 195.158 51.6695C195.158 48.3789 193.881 45.4642 191.784 43.3019C189.687 41.1396 186.861 39.8231 183.67 39.8231ZM156.228 29.4811H183.67C189.596 29.4811 194.976 32.0196 198.896 36.0625C202.725 40.0113 205.187 45.5583 205.187 51.6695C205.187 57.7809 202.725 63.3279 198.896 67.2767C195.978 70.2852 192.24 72.4479 188.046 73.3878C193.334 80.7213 198.622 87.961 203.91 95.2944H191.511C186.314 88.1489 181.117 81.0034 175.921 73.764H166.165V95.2944H156.228V29.4811Z" fill="url(#paint2_linear_358_3007)"/>
<path d="M212.438 95.2944V29.4811H222.376V57.3106H234.046L253.283 29.4811H265.5L242.707 62.4817L265.5 95.2944H253.283L234.046 67.5588H222.376V95.2944H212.438Z" fill="url(#paint3_linear_358_3007)"/>
<path d="M150.976 96.0466H140.1L126.739 62.9409L113.378 96.0466H102.573L123.457 44.4196H130.021L150.976 96.0466Z" fill="url(#paint4_linear_358_3007)"/>
<path d="M125.408 0C127.076 17.6933 125.346 20.9206 109.957 28.8332C127.062 27.1077 130.182 28.8972 137.831 44.8157C136.163 27.1223 137.893 23.895 153.281 15.9825C136.177 17.7079 133.057 15.9184 125.408 0Z" fill="url(#paint5_linear_358_3007)"/>
</g>
<defs>
<linearGradient id="paint0_linear_358_3007" x1="2.10236" y1="96.7458" x2="215.943" y2="-63.6873" gradientUnits="userSpaceOnUse">
<stop offset="0.1" stop-color="#F7797D"/>
<stop offset="0.520833" stop-color="#C471ED"/>
<stop offset="1" stop-color="#12C2E9"/>
</linearGradient>
<linearGradient id="paint1_linear_358_3007" x1="2.10238" y1="96.7457" x2="215.943" y2="-63.6874" gradientUnits="userSpaceOnUse">
<stop offset="0.1" stop-color="#F7797D"/>
<stop offset="0.520833" stop-color="#C471ED"/>
<stop offset="1" stop-color="#12C2E9"/>
</linearGradient>
<linearGradient id="paint2_linear_358_3007" x1="2.10243" y1="96.7457" x2="215.943" y2="-63.6874" gradientUnits="userSpaceOnUse">
<stop offset="0.1" stop-color="#F7797D"/>
<stop offset="0.520833" stop-color="#C471ED"/>
<stop offset="1" stop-color="#12C2E9"/>
</linearGradient>
<linearGradient id="paint3_linear_358_3007" x1="2.10245" y1="96.7457" x2="215.943" y2="-63.6874" gradientUnits="userSpaceOnUse">
<stop offset="0.1" stop-color="#F7797D"/>
<stop offset="0.520833" stop-color="#C471ED"/>
<stop offset="1" stop-color="#12C2E9"/>
</linearGradient>
<linearGradient id="paint4_linear_358_3007" x1="2.10247" y1="96.7458" x2="215.943" y2="-63.6873" gradientUnits="userSpaceOnUse">
<stop offset="0.1" stop-color="#F7797D"/>
<stop offset="0.520833" stop-color="#C471ED"/>
<stop offset="1" stop-color="#12C2E9"/>
</linearGradient>
<linearGradient id="paint5_linear_358_3007" x1="2.10227" y1="96.7458" x2="215.943" y2="-63.6873" gradientUnits="userSpaceOnUse">
<stop offset="0.1" stop-color="#F7797D"/>
<stop offset="0.520833" stop-color="#C471ED"/>
<stop offset="1" stop-color="#12C2E9"/>
</linearGradient>
<clipPath id="clip0_358_3007">
<rect width="265" height="96" fill="white" transform="translate(0.5)"/>
</clipPath>
</defs>
</svg>
