<svg width="48" height="48" viewBox="0 0 48 48" fill="none" xmlns="http://www.w3.org/2000/svg">
<path d="M6 34H42M21.3974 11.1318C23.8578 10.7791 27.9348 10.9202 24.5606 14.3053C20.343 18.5367 14.0167 28.0578 21.3974 24.8842C28.7782 21.7108 31.9418 23.8264 28.7786 27M24 34V42M10 44L16 34M38 44L32 34M8 16C8 10.3431 8 7.51472 10.0084 5.75736C12.0168 4 15.2493 4 21.7142 4H26.2858C32.7506 4 35.9832 4 37.9916 5.75736C40 7.51472 40 10.3431 40 16V34H8V16Z" stroke="black" stroke-width="1.5" stroke-linecap="round" stroke-linejoin="round"/>
</svg>
