<svg width="95" height="65" viewBox="0 0 95 65" fill="none" xmlns="http://www.w3.org/2000/svg">
<path d="M23.6102 31.8129C23.6208 33.7872 21.6988 36.99 17.5692 39.2432C11.3625 42.6297 8.25919 44.3231 7.64122 44.9455C6.93417 45.658 7.08046 45.4491 6.71057 46.2713C6.38738 46.99 6.39251 48.0174 6.40278 50.0723L6.40376 50.2687C6.40618 50.7534 6.4074 50.9958 6.34395 51.2263C6.25193 51.5613 6.05972 51.8797 5.77892 52.1618C5.58609 52.3556 5.33459 52.5274 4.83159 52.8708C2.34971 54.5657 1.10915 55.413 0.877664 56.1123C0.539739 57.1332 1.17968 58.1865 2.47446 58.7405C3.36075 59.1196 5.11135 59.1108 8.61218 59.0934L36.522 58.9539C40.1542 58.9357 41.9703 58.9266 42.8725 58.5139C44.1122 57.9468 44.718 56.9186 44.3977 55.9254C44.1645 55.2026 42.8612 54.3413 40.2547 52.6187C39.7264 52.2696 39.4623 52.0951 39.2605 51.8955C38.9835 51.6219 38.7908 51.3123 38.694 50.9859C38.6234 50.7478 38.6221 50.4962 38.6196 49.993L38.5869 43.4426C38.5781 41.6868 38.5039 41.7676 40.3242 40.1342C50.903 30.6405 45.2928 21.5005 34.7301 18.0078C34.7086 13.7031 31.1133 11.4054 27.6661 10.269C26.07 9.74278 25.2719 9.4797 24.3871 9.84799C22.3136 10.7109 22.4609 14.6236 23.5366 17.0849C18.9735 17.1077 15.27 19.5929 15.2824 22.0596L8.2375 26.7542C6.94112 27.7719 5.65934 28.8391 6.65163 30.2448C7.29159 31.1513 8.8131 31.9434 9.91764 32.6044C11.3446 33.4586 13.5176 33.4477 14.936 32.5793C16.2237 31.7912 17.1751 31.1335 19.0447 31.3617C20.567 31.5474 22.0454 31.878 23.6102 31.8129ZM23.6102 31.8129C25.705 31.726 28.1758 31.0797 30.7948 29.3821M38.541 51.5437L8.31907 51.6947" stroke="black" stroke-width="1.5" stroke-linecap="round" stroke-linejoin="round"/>
</svg>
