<svg width="48" height="48" viewBox="0 0 48 48" fill="none" xmlns="http://www.w3.org/2000/svg">
<path d="M22 40C14.5005 40 10.7508 40 8.12214 38.0902C7.2732 37.4734 6.52662 36.7268 5.90982 35.8778C4 33.2492 4 29.4994 4 22C4 14.5005 4 10.7508 5.90982 8.12214C6.52662 7.2732 7.2732 6.52662 8.12214 5.90982C10.7508 4 14.5005 4 22 4H23C29.5468 4 32.8202 4 35.225 5.4736C36.5706 6.29816 37.7018 7.42946 38.5264 8.77502C40 11.1797 40 14.4531 40 21M22 14H14V16M22 14H30V16M22 14V30M22 30H20M22 30H24M34.8138 28.8071C35.2384 27.7309 36.7615 27.7309 37.1861 28.8071L37.2596 28.9937C38.2964 31.6225 40.3773 33.7035 43.0061 34.7403L43.1927 34.8138C44.2689 35.2384 44.2689 36.7615 43.1927 37.1861L43.0061 37.2596C40.3773 38.2964 38.2964 40.3773 37.2596 43.0061L37.1861 43.1927C36.7615 44.2689 35.2384 44.2689 34.8138 43.1927L34.7403 43.0061C33.7035 40.3773 31.6225 38.2964 28.9937 37.2596L28.8071 37.1861C27.7309 36.7615 27.7309 35.2384 28.8071 34.8138L28.9937 34.7403C31.6225 33.7035 33.7035 31.6225 34.7403 28.9937L34.8138 28.8071Z" stroke="black" stroke-width="1.5" stroke-linecap="round" stroke-linejoin="round"/>
</svg>
