<svg width="48" height="48" viewBox="0 0 48 48" fill="none" xmlns="http://www.w3.org/2000/svg">
<path d="M24.1477 21.9418C24.1481 23.5426 23.1221 26.1316 20.9299 27.9418C17.6351 30.6624 15.9877 32.0228 15.6589 32.525C15.2827 33.0998 15.3607 32.931 15.1627 33.5962C14.9897 34.1776 14.9897 35.0106 14.9897 36.6768V36.836C14.9897 37.229 14.9897 37.4256 14.9555 37.6122C14.9059 37.8834 14.8033 38.1408 14.6539 38.3684C14.5513 38.5248 14.4177 38.663 14.1505 38.9394C12.8321 40.3036 12.1731 40.9856 12.0487 41.5516C11.8671 42.378 12.2031 43.2346 12.8871 43.689C13.3553 44 14.2821 44 16.1355 44H30.9115C32.8344 44 33.7959 44 34.2746 43.669C34.9324 43.2142 35.2558 42.383 35.0889 41.5764C34.9674 40.9894 34.2797 40.2858 32.9043 38.8786C32.6256 38.5934 32.4862 38.4508 32.3799 38.2882C32.234 38.0652 32.1328 37.8134 32.0824 37.5484C32.0457 37.355 32.0457 37.151 32.0457 36.743V31.4318C32.0457 30.0082 32.0062 30.0734 32.9742 28.7564C38.5998 21.1018 35.6539 13.6683 30.0712 10.7936C30.0712 7.30326 28.1739 5.42576 26.3519 4.49036C25.5083 4.05726 25.0865 3.84072 24.6171 4.13574C23.5171 4.827 23.5847 8 24.1477 10C21.7319 10 19.7647 12 19.7647 14L16.0227 17.7778C15.3337 18.5978 14.6523 19.4579 15.1739 20.6016C15.5103 21.3392 16.3137 21.9876 16.8967 22.528C17.6499 23.2264 18.8003 23.2264 19.5535 22.528C20.2373 21.8942 20.7427 21.3648 21.7319 21.5574C22.5373 21.7142 23.3191 21.9882 24.1477 21.9418ZM24.1477 21.9418C25.2569 21.8798 26.5667 21.3658 27.9577 20M31.9999 38H15.9999" stroke="black" stroke-width="1.5" stroke-linecap="round" stroke-linejoin="round"/>
</svg>
