<svg width="24" height="24" viewBox="0 0 24 24" fill="none" xmlns="http://www.w3.org/2000/svg">
<path fill-rule="evenodd" clip-rule="evenodd" d="M19.6399 4.52931C17.6505 2.58222 15.0261 1.48169 12.2748 1.48169C6.51818 1.48169 1.81976 6.13777 1.81976 11.8944C1.81976 13.7145 2.28537 15.5346 3.21659 17.1007L1.73511 22.5187L7.28008 21.0796C8.80389 21.9261 10.497 22.3494 12.2748 22.3494C18.0314 22.3494 22.6875 17.651 22.6875 11.9367C22.6875 9.14307 21.587 6.51873 19.6399 4.52931ZM12.2748 20.5716C10.7087 20.5716 9.18484 20.1484 7.87267 19.3441L7.57638 19.1748L4.31712 20.0214L5.20601 16.8044L4.90971 16.5081C4.06315 15.1113 3.59754 13.5452 3.59754 11.8944C3.59754 7.11132 7.49172 3.21714 12.2748 3.21714C14.6028 3.21714 16.7616 4.10603 18.4124 5.75682C20.0631 7.40762 20.952 9.56635 20.952 11.8944C20.9097 16.6775 17.0155 20.5716 12.2748 20.5716Z" fill="white"/>
<path fill-rule="evenodd" clip-rule="evenodd" d="M17.0152 14.0956C16.7613 13.9687 15.4914 13.3337 15.2375 13.2491C14.9835 13.1644 14.8142 13.1221 14.6449 13.3761C14.4756 13.63 13.9676 14.2226 13.8406 14.3919C13.6713 14.5612 13.5443 14.6036 13.2904 14.4766C13.0364 14.3496 12.1898 14.0533 11.174 13.1644C10.4121 12.4872 9.8618 11.6406 9.73481 11.3443C9.5655 11.0903 9.73481 10.9634 9.8618 10.7941C9.98878 10.6671 10.1158 10.4978 10.2427 10.3284C10.3697 10.1591 10.4121 10.0745 10.4967 9.90516C10.5814 9.73585 10.539 9.56654 10.4544 9.43955C10.3697 9.31257 9.8618 8.04273 9.65016 7.49246C9.43852 6.98453 9.22688 7.06918 9.05756 7.02686C8.88825 7.02686 8.71894 7.02686 8.54963 7.02686C8.38032 7.02686 8.08402 7.11151 7.87238 7.36548C7.61841 7.61945 6.94116 8.25437 6.94116 9.52421C6.94116 10.7941 7.87238 12.0639 7.99936 12.2332C8.12635 12.4025 9.81947 15.0269 12.4438 16.1697C13.0787 16.4237 13.5443 16.593 13.9253 16.72C14.5602 16.9316 15.1105 16.8893 15.5761 16.8046C16.084 16.72 17.0999 16.1697 17.3539 15.5771C17.5655 14.9845 17.5655 14.4343 17.5232 14.3496C17.4385 14.265 17.2692 14.2226 17.0152 14.0956Z" fill="white"/>
</svg>
