<svg width="112" height="20" viewBox="0 0 112 20" fill="none" xmlns="http://www.w3.org/2000/svg">
<mask id="mask0_625_297" style="mask-type:luminance" maskUnits="userSpaceOnUse" x="92" y="0" width="20" height="20">
<path d="M92.8672 0.629883H111.14V19.3701H92.8672V0.629883Z" fill="white"/>
</mask>
<g mask="url(#mask0_625_297)">
<path d="M100.482 18.7192C101.312 19.587 102.659 19.587 103.507 18.7192L110.504 11.5597C111.35 10.7092 111.35 9.32672 110.504 8.45818L103.507 1.28138C102.659 0.41284 101.312 0.41284 100.482 1.28138L93.5024 8.45818C92.6555 9.32672 92.6555 10.7092 93.5024 11.5597L100.482 18.7192Z" fill="white"/>
</g>
<mask id="mask1_625_297" style="mask-type:luminance" maskUnits="userSpaceOnUse" x="0" y="6" width="11" height="11">
<path d="M0.859375 6.13672H10.1899V16.0791H0.859375V6.13672Z" fill="white"/>
</mask>
<g mask="url(#mask1_625_297)">
<path d="M7.97851 14.0941H3.08874V8.1931H4.91952C5.97402 8.1931 6.73373 8.42375 7.18349 8.90163C7.71903 9.45086 7.97851 10.2661 7.97851 11.3472V14.0941ZM8.98039 7.3779C8.13348 6.49134 6.90671 6.13672 4.97142 6.13672H0.859375V16.0784H10.1899V11.3818C10.1899 9.45014 9.75739 8.2104 8.98039 7.37718" fill="white"/>
</g>
<path d="M18.6187 16.0776H20.8992L23.3182 7.9429C23.6469 6.82641 23.1452 6.1359 22.0222 6.1359H17.8583V3.63696H15.6469V8.19157H20.9857L18.6187 16.0776ZM43.3803 16.3083C46.7673 16.3083 48.9786 14.6072 48.9786 11.0804C48.9786 7.73171 47.0433 5.90598 43.9332 5.90598C41.2036 5.90598 39.5617 7.51908 39.5617 9.55672C39.5617 11.3998 40.8576 12.7822 43.1562 12.7822C43.4841 12.7822 43.6391 12.7642 43.7436 12.7642V10.9392C43.6571 10.9925 43.5533 10.9925 43.4322 10.9925C42.465 10.9925 41.8429 10.3193 41.8429 9.45005C41.8429 8.52889 42.5688 7.85568 43.8813 7.85568C45.5924 7.85568 46.7154 8.95415 46.7154 11.1165C46.7154 13.4201 45.4021 14.36 43.3638 14.36C42.5342 14.36 41.2555 14.1639 40.1671 13.792L39.6655 15.5824C40.6162 16.0603 42.2401 16.3083 43.3803 16.3083ZM74.9173 16.1317C77.2325 16.1317 78.3554 14.9092 78.3554 12.517V6.13663H76.1614V12.6042C76.1614 13.5794 75.6777 14.2 74.7962 14.2C74.4677 14.1949 74.1417 14.1409 73.8289 14.04L73.3619 15.8124C73.8801 16.0603 74.433 16.1317 74.9173 16.1317ZM11.7598 11.5064H14.0057V6.13663H11.7598V11.5064ZM24.7713 16.0791H28.2613C30.1786 16.0791 31.406 15.7424 32.2522 14.8739C33.0473 14.0407 33.4451 12.7822 33.4451 10.9039V6.13735H31.2331V10.9392C31.2331 12.0564 30.9736 12.8709 30.4907 13.3495C30.1966 13.6334 29.6618 13.8987 29.2466 13.952L27.1383 6.13735H24.7367L26.9826 14.0947H24.7713V16.0791ZM35.5188 16.0791H37.7475V6.13663H35.5188V16.0791ZM56.8928 16.0791H59.1041V11.3825C59.1041 9.48681 58.7236 8.21103 57.912 7.37709C57.0824 6.52657 55.8217 6.13735 53.9203 6.13735H50.3784V8.19229H53.8165C54.9049 8.19229 55.7172 8.42294 56.2016 8.90153C56.7198 9.45077 56.8928 10.266 56.8928 11.3471V16.0791ZM68.9543 16.0791H71.2176L73.6898 7.73243C74.0178 6.71613 73.6769 6.13735 72.5539 6.13735H64.4595V8.19229H71.2868L68.9543 16.0791ZM80.0139 16.0791H88.8262V14.094H87.3753V11.3825C87.3753 9.48681 86.9774 8.21103 86.1651 7.37709C85.3362 6.49125 84.0748 6.13735 82.1914 6.13735H80.1869V8.19229H82.0876C83.1933 8.19229 83.9537 8.3523 84.3855 8.8482C84.9037 9.39743 85.1459 10.266 85.1459 11.3471V14.094H80.0139V16.0791Z" fill="white"/>
<path d="M50.5156 16.0791H52.7616V10.8333H50.5156V16.0791ZM64.5795 18.7907H66.8427V10.9406H64.5795V18.7907Z" fill="white"/>
</svg>
