<svg width="148" height="80" viewBox="0 0 148 80" fill="none" xmlns="http://www.w3.org/2000/svg">
<path d="M56.1458 35.2966V32.5978C56.1458 30.445 55.7714 29.6806 54.305 29.6806H50.9822V32.239H51.9182C52.433 32.239 52.4798 32.4574 52.4798 33.6586V35.6242C52.4798 36.6538 52.0118 37.3246 51.0602 37.3246C50.0774 37.3246 49.5782 36.7006 49.5782 35.6242V29.6806H45.9746V35.2966C45.9746 38.6818 48.0338 39.9298 51.0602 39.9298C54.149 39.9298 56.1458 38.713 56.1458 35.2966Z" fill="white"/>
<path d="M62.0728 37.1062V33.2374C62.0728 30.679 61.792 29.6806 60.154 29.6806H56.8312V32.239H57.8296C58.36 32.239 58.3912 32.785 58.3912 33.4558V36.139C58.3912 37.0438 58.2976 37.1218 58.0324 37.1218H56.2852V39.6802H60.856C61.6828 39.6646 62.0728 39.1654 62.0728 37.1062Z" fill="white"/>
<path d="M66.7843 39.6646V31.615C66.7843 30.4606 66.1915 29.6806 64.8031 29.6806H62.6191V32.239C62.9779 32.239 63.1339 32.4418 63.1339 32.8006V39.6646H66.7843Z" fill="white"/>
<path d="M77.5014 33.877C77.5014 30.3982 76.659 29.6806 74.7402 29.6806H67.377V32.239H72.7278C73.5546 32.239 73.7418 32.4574 73.7418 34.2982C73.7418 36.2482 72.9462 37.1062 71.8074 37.1062V39.6646H72.915C74.8806 39.6646 77.5014 38.4634 77.5014 33.877ZM67.455 43.237H71.0274V33.9706H67.455V43.237Z" fill="white"/>
<path d="M88.2337 35.3746V31.8178C88.2337 30.133 87.5161 29.6806 86.6112 29.6806H79.6693C78.7177 29.6806 78.0312 30.1642 78.0312 31.8178V35.3746C78.0312 38.9158 80.6521 39.9298 83.1793 39.9298C85.8156 39.9298 88.2337 38.9938 88.2337 35.3746ZM84.6145 35.6242C84.6145 36.7162 84.1309 37.3246 83.1637 37.3246C82.2121 37.3246 81.6349 36.7006 81.6349 35.6242V33.2842C81.6349 32.4574 81.7129 32.2546 82.2277 32.2546H84.0529C84.5677 32.2546 84.6145 32.473 84.6145 33.2842V35.6242Z" fill="white"/>
<path d="M92.9308 35.4526V31.615C92.9308 30.4606 92.5408 29.6806 91.1524 29.6806H88.7812V32.239C89.1713 32.239 89.2648 32.4418 89.2648 32.8006V35.437H92.9308" fill="white"/>
<path d="M102.478 32.239V29.6806H93.4453V32.239H98.3749C97.8289 32.5978 97.1425 33.487 97.1425 34.9378V39.6646H100.777V34.189C100.777 33.175 100.98 32.4886 101.37 32.239H102.478Z" fill="white"/>
<path d="M73.4922 46.6066C81.027 46.6066 94.5366 45.4834 100.558 40.7254C100.605 40.6786 100.761 40.6006 100.87 40.6474C100.933 40.6786 100.948 40.7254 100.979 40.7878C101.12 41.0686 101.167 41.3806 101.198 41.7862C101.213 42.1762 101.229 42.4102 101.104 42.7846C101.057 42.925 101.026 43.003 100.948 43.1122C100.886 43.2058 100.808 43.2994 100.761 43.3462C100.605 43.4866 100.168 43.8142 100.121 43.8454C93.507 48.7594 81.6042 50.257 73.5234 50.257H73.305C65.2242 50.257 53.3214 48.7594 46.707 43.8454C46.6602 43.8142 46.2234 43.4866 46.0674 43.3462C46.0206 43.2994 45.9426 43.2214 45.8802 43.1122C45.8022 42.9874 45.771 42.925 45.7242 42.7846C45.5994 42.4102 45.5994 42.1762 45.6306 41.7862C45.6462 41.3962 45.7086 41.0842 45.849 40.7878C45.8802 40.7254 45.8958 40.6786 45.9582 40.6474C46.0674 40.585 46.2078 40.6786 46.2702 40.7254C52.2918 45.4834 65.7858 46.6066 73.3362 46.6066H73.4922Z" fill="white"/>
<path d="M73.4923 46.6066V46.6378C77.2675 46.6378 82.5247 46.357 87.5947 45.4834C92.6647 44.6098 97.5475 43.1434 100.574 40.741C100.605 40.7098 100.699 40.663 100.777 40.663C100.792 40.663 100.823 40.663 100.839 40.6786C100.886 40.7098 100.901 40.741 100.933 40.8034C101.073 41.0842 101.12 41.3806 101.135 41.7862C101.135 41.911 101.151 42.0202 101.151 42.1138C101.151 42.3322 101.12 42.5194 101.042 42.769C100.995 42.9094 100.964 42.9718 100.886 43.0966C100.823 43.1902 100.745 43.2838 100.714 43.315C100.558 43.4554 100.121 43.783 100.09 43.8142C93.4915 48.7282 81.5887 50.2258 73.5079 50.2258H73.2895C65.2087 50.2258 53.3059 48.7282 46.7071 43.8142C46.6759 43.783 46.2235 43.4554 46.0675 43.315C46.0207 43.2838 45.9427 43.1902 45.8959 43.0966C45.8179 42.9718 45.7867 42.9094 45.7399 42.769C45.6619 42.5194 45.6307 42.3322 45.6307 42.1138C45.6307 42.0202 45.6307 41.911 45.6463 41.7862C45.6619 41.3962 45.7243 41.0842 45.8491 40.8034C45.8803 40.741 45.8959 40.7098 45.9427 40.6786C45.9583 40.663 45.9895 40.663 46.0051 40.663C46.0831 40.663 46.1767 40.7098 46.2079 40.741C49.2187 43.1278 54.1171 44.5942 59.1871 45.4834C64.2571 46.357 69.5299 46.6378 73.2895 46.6378H73.4923V46.6066V46.5754H73.2895C69.5143 46.5754 64.2571 46.2946 59.1871 45.421C54.1171 44.5474 49.2499 43.081 46.2391 40.6942C46.1923 40.663 46.0987 40.6006 45.9895 40.6006C45.9583 40.6006 45.9271 40.6006 45.8959 40.6318C45.8179 40.663 45.7867 40.7254 45.7555 40.7878C45.6151 41.0842 45.5683 41.3962 45.5371 41.8018C45.5371 41.9266 45.5215 42.0358 45.5215 42.145C45.5215 42.3634 45.5527 42.5662 45.6307 42.8158C45.6775 42.9562 45.7243 43.0342 45.8023 43.159C45.8647 43.2526 45.9427 43.3462 45.9895 43.393C46.1455 43.5334 46.5823 43.861 46.6291 43.8922C53.2591 48.8218 65.1619 50.3194 73.2583 50.3194H73.4767C81.5731 50.3194 93.4759 48.8218 100.106 43.8922C100.153 43.861 100.589 43.5334 100.745 43.393C100.792 43.3462 100.87 43.2526 100.933 43.159C101.011 43.0342 101.057 42.9562 101.104 42.8158C101.198 42.5662 101.213 42.3634 101.213 42.145C101.213 42.0358 101.213 41.9266 101.198 41.8018C101.182 41.4118 101.12 41.0842 100.979 40.7878C100.948 40.7254 100.917 40.663 100.839 40.6318C100.808 40.6162 100.777 40.6006 100.745 40.6006C100.636 40.6006 100.543 40.663 100.496 40.6942C97.5007 43.0654 92.6179 44.5318 87.5479 45.421C82.4779 46.2946 77.2207 46.5754 73.4455 46.5754V46.6066H73.4923Z" fill="white"/>
</svg>
