<svg width="114" height="18" viewBox="0 0 114 18" fill="none" xmlns="http://www.w3.org/2000/svg">
<g clip-path="url(#clip0_625_259)">
<mask id="mask0_625_259" style="mask-type:luminance" maskUnits="userSpaceOnUse" x="-27" y="-52" width="168" height="122">
<path d="M-26.8105 -51.4792H140.32V69.1857H-26.8105V-51.4792Z" fill="white"/>
</mask>
<g mask="url(#mask0_625_259)">
<path d="M102.601 17.7497V9.72547C102.601 7.41953 104.142 5.86905 106.389 5.86905C108.322 5.86905 109.177 6.79095 109.177 8.94872V17.7497H110.273V8.82588C110.273 6.12223 109.007 4.80831 106.383 4.80831C104.651 4.80831 103.321 5.64385 102.511 7.22676L102.377 7.48622L102.31 7.20264C101.915 5.65845 100.713 4.80831 98.9159 4.80831C98.3631 4.80831 97.8525 4.89973 97.3895 5.07263C95.4915 5.71804 94.9291 7.17993 94.9291 7.17993V5.28061H93.6782V17.7497H94.9291V9.82216C94.9291 7.49635 96.437 5.86905 98.664 5.86905C100.478 5.86905 101.349 6.95493 101.349 9.09406V17.7497H102.601ZM76.5356 5.80074C78.8215 5.80074 80.315 7.59243 80.4359 10.3733L72.519 10.3723C72.6617 7.63399 74.2397 5.80074 76.5356 5.80074ZM80.2991 13.9119C79.9729 15.6707 78.4485 16.7615 76.5136 16.7615C73.9876 16.7615 72.3266 14.6949 72.3266 11.5948V11.5141H81.5645V11.0347C81.5645 7.04818 79.7341 4.77953 76.5013 4.77953C73.2005 4.77953 71.2536 7.2377 71.2536 11.3317C71.2536 15.3738 73.2164 17.817 76.5036 17.817C79.2049 17.817 81.1516 16.3099 81.5015 13.9119H80.2991ZM67.5997 10.5497C67.5997 7.56101 68.9181 6.07946 71.4242 6.07946H71.5131V4.95953H71.448C70.1777 4.95953 69.2045 5.29601 68.4845 6.04541C67.9781 6.49318 67.6281 7.10797 67.4425 7.49108V7.16534V5.28061H66.3475V17.7497H67.5997V10.5497ZM18.0075 15.5811C15.7738 15.5811 14.5241 14.01 14.5241 11.0655C14.5241 8.12311 15.7738 6.52966 18.0075 6.52966C20.218 6.52966 21.4657 8.09899 21.4657 11.0655C21.4657 14.01 20.218 15.5811 18.0075 15.5811ZM17.9839 4.17365C14.1158 4.17365 11.7856 6.72405 11.7856 11.0655C11.7856 15.4086 14.1404 17.9353 18.0075 17.9353C21.8514 17.9353 24.2076 15.3841 24.2076 11.0655C24.2076 6.74919 21.8514 4.17365 17.9839 4.17365ZM84.4156 12.4472C84.5405 12.329 84.6846 12.2185 84.841 12.1155C85.0314 12.0041 86.0736 11.4458 87.7827 11.3278C89.0544 11.2362 90.0597 11.1067 90.8182 10.8071L90.9671 10.7495L90.9842 12.012L90.98 12.0146C90.98 12.0146 90.9812 12.0276 90.9842 12.0523L90.9877 12.3837L90.9939 12.6681C90.9915 12.6772 90.9915 12.6859 90.9915 12.6934C90.9907 12.7455 90.9865 12.7932 90.9842 12.8428C90.9663 13.1601 90.9097 13.6074 90.7513 14.0832C90.3781 15.1212 89.498 16.2345 87.4847 16.592C87.1871 16.6362 86.8746 16.6601 86.5479 16.6601C84.7979 16.6601 83.6666 15.6855 83.6666 14.177C83.6666 13.7757 83.7545 13.4122 83.9268 13.0834C83.9419 13.0551 83.9562 13.0265 83.9719 13.002C83.984 12.9817 83.9979 12.9616 84.0096 12.9405C84.0934 12.808 84.1901 12.6837 84.2931 12.57C84.3094 12.5538 84.3253 12.5372 84.3409 12.5205C84.3648 12.496 84.3904 12.4719 84.4156 12.4472ZM82.4209 14.2028C82.4209 16.3687 83.9249 17.7156 86.347 17.7156C88.0683 17.7156 89.582 17.0126 90.8009 15.6253L91.0159 15.4048V15.8947C91.0159 16.8156 91.3292 17.6055 92.1111 17.7497V8.44601C92.1111 6.03872 90.6236 4.78257 87.7634 4.78257C84.9708 4.78257 83.1435 6.39872 83.0397 8.63777H84.2171C84.3513 6.87831 85.5243 5.83662 87.8037 5.83662C90.0513 5.83662 90.9693 6.64581 90.9693 8.66595C90.9693 9.76237 90.6197 9.98453 89.6348 10.2053C88.9114 10.3632 87.8607 10.4649 87.4982 10.4972C87.4628 10.4988 87.4271 10.5018 87.3938 10.5057C87.3787 10.5065 87.3685 10.5065 87.3685 10.5065V10.5081C86.2721 10.6016 85.24 10.7351 84.3223 11.1614C83.0776 11.7501 82.4209 12.8005 82.4209 14.2028ZM31.2088 15.5311C29.1674 15.5311 27.8935 13.9358 27.8935 11.1397C27.8935 8.19669 29.1674 6.57831 31.2088 6.57831C33.3943 6.57831 34.5717 8.07446 34.5717 10.9678C34.5717 13.9609 33.3716 15.5311 31.2088 15.5311ZM34.5689 6.18568C33.6299 4.83568 32.3121 4.17365 30.6061 4.17365C27.508 4.17365 25.1911 6.82277 25.1911 11.1154C25.1911 15.2852 27.4554 17.9353 30.6235 17.9353C32.2825 17.9353 33.4725 17.2715 34.5689 15.824V17.7497H37.0746V0.00466156H34.5689V6.18568ZM6.8508 9.79054L5.2422 9.42304C3.87123 9.10419 3.12679 8.71237 3.12679 7.77993C3.12679 6.99426 3.84761 6.44656 5.26503 6.44656C6.92245 6.44656 7.85986 7.19818 7.93093 8.47682H10.5504C10.5504 5.91872 8.5789 4.24034 5.36112 4.24034C2.23843 4.24034 0.413449 5.82649 0.413449 8.23115C0.413449 10.3407 1.71076 11.2557 4.35343 11.9177L6.25067 12.3985C7.49915 12.7188 8.21997 13.0332 8.21997 13.964C8.21997 14.9704 7.30678 15.7346 5.67318 15.7346C3.80076 15.7346 2.81532 15.0314 2.69362 13.4323H0.0527344C0.0527344 16.3099 1.9744 17.9893 5.43278 17.9893C8.94199 17.9893 10.9103 16.3194 10.9103 13.6441C10.9103 11.2656 9.54171 10.4295 6.8508 9.79054ZM46.4375 12.66C46.4375 14.5001 44.9357 15.7269 43.0125 15.7269C41.6917 15.7269 40.9653 15.0393 40.9653 13.8626C40.9653 12.808 41.5389 12.1715 42.7885 11.925C44.0368 11.6783 45.3421 11.6315 46.4375 11.0412V12.66ZM44.059 4.17365C40.791 4.17365 38.9214 5.81635 38.9214 8.34365V8.63777H41.4273V8.46527C41.4273 7.16737 42.2972 6.43095 43.9544 6.43095C45.7089 6.43095 46.5401 6.99426 46.5401 8.24514C46.5401 9.44797 45.9585 9.47169 43.7259 9.76743C40.3384 10.2065 38.3429 11.0412 38.3429 14.1081C38.3429 16.4621 39.8312 17.9353 42.425 17.9353C44.0815 17.9353 45.5962 17.173 46.6298 15.8009C46.6525 17.1261 47.3916 17.762 49.0254 17.762C49.0587 17.762 49.0984 17.7592 49.0984 17.7592V8.00068C49.0984 5.47378 47.4211 4.17365 44.059 4.17365ZM64.781 16.5476C64.4687 16.6484 63.924 16.758 63.5603 16.758C62.6564 16.758 62.5899 16.1763 62.5899 15.2903V6.23858H64.781V5.28061H62.5899V0.484663H61.3379V15.2903C61.3379 17.1034 61.7613 17.7156 63.1543 17.7156C63.6452 17.7156 64.1548 17.6329 64.781 17.4752V16.5476ZM56.2278 10.8324C56.0041 10.7763 55.7899 10.728 55.5832 10.6772C53.437 10.1649 52.1409 9.85926 52.1409 8.0923C52.1409 6.73845 53.2621 5.87372 54.9998 5.87372C56.9651 5.87372 58.1612 6.87831 58.2997 8.63777H59.5446C59.338 6.23858 57.6968 4.81946 55.0232 4.81946C52.5534 4.81946 50.894 6.2098 50.894 8.29946C50.894 10.3624 52.2352 11.0457 55.2384 11.7878L55.3061 11.8127C57.4552 12.3365 58.6394 12.6416 58.6394 14.2622C58.6394 15.7782 57.302 16.7882 55.2372 16.7882C53.3884 16.7882 51.9692 15.5104 51.8846 13.9119H50.6389C50.7612 16.3099 52.5818 17.8401 55.3079 17.8401C58.0448 17.8401 59.8853 16.4003 59.8853 14.3007C59.8853 12.4395 58.9265 11.5082 56.2278 10.8324Z" fill="white"/>
<path d="M112.468 6.21994C112.721 6.21994 112.971 6.21102 112.971 5.92015C112.971 5.68197 112.776 5.62582 112.572 5.62582H112.194V6.21994H112.468ZM112.194 7.15866H111.989V5.44663H112.633C113.01 5.44663 113.177 5.61366 113.177 5.92015C113.177 6.22339 112.984 6.35839 112.756 6.39873L113.256 7.15866H113.014L112.542 6.39873H112.194V7.15866ZM111.29 6.30244C111.29 7.0119 111.813 7.57339 112.514 7.57339C113.217 7.57339 113.739 7.0119 113.739 6.30244C113.739 5.5942 113.217 5.03332 112.514 5.03332C111.813 5.03332 111.29 5.5942 111.29 6.30244ZM113.966 6.30244C113.966 7.13575 113.334 7.784 112.514 7.784C111.695 7.784 111.062 7.13575 111.062 6.30244C111.062 5.47015 111.695 4.82109 112.514 4.82109C113.334 4.82109 113.966 5.47015 113.966 6.30244Z" fill="white"/>
</g>
</g>
<defs>
<clipPath id="clip0_625_259">
<rect width="114" height="18" fill="white"/>
</clipPath>
</defs>
</svg>
