<svg width="118" height="80" viewBox="0 0 118 80" fill="none" xmlns="http://www.w3.org/2000/svg">
<path d="M42.0538 47.0125L36.5919 33.182C36.4631 32.8604 36.342 32.6735 36.2248 32.6215C36.0019 32.583 35.7751 32.5715 35.5502 32.583H33.2921C32.7905 32.583 32.4695 32.7698 32.3311 33.1435L26.85 47.0106C26.7981 47.1281 26.7654 47.2513 26.7539 47.3784C26.7539 47.442 26.8308 47.4747 26.9864 47.4747H29.6271C29.8173 47.4921 29.998 47.3823 30.071 47.2051L30.1671 46.9624L30.5995 45.8916L31.0762 44.6859H31.0877L34.401 36.4273V36.4003L36.515 41.5889L37.7546 44.6262L38.8078 47.1993C38.8693 47.3765 39.0461 47.4902 39.2325 47.469H41.9942C42.148 47.469 42.1672 47.3149 42.0519 47.0048" fill="white"/>
<path d="M22.4858 38.9754L17.7773 37.9431C16.8048 37.6041 16.3186 37.1611 16.3186 36.616C16.3186 35.9285 16.8048 35.5856 17.7773 35.5837H24.6844C25.5819 35.5837 26.0297 35.1407 26.0297 34.2567V32.7949C26.0297 32.5869 25.9336 32.4829 25.7395 32.4829H17.6216C16.1552 32.4867 14.9579 32.8507 14.0297 33.5749C13.0053 34.3684 12.4922 35.4797 12.4922 36.9069C12.4922 39.0255 13.8682 40.3968 16.6184 41.0208L21.1694 42.0589C22.2475 42.3054 22.7856 42.7465 22.7856 43.384C22.7856 44.0715 22.2475 44.4144 21.1694 44.4163H13.9451C13.1764 44.4163 12.792 44.813 12.792 45.6066V47.2051C12.7958 47.4093 12.8881 47.5114 13.0687 47.5114H20.8715C22.4666 47.5114 23.7446 47.2051 24.7037 46.5946C25.8702 45.8531 26.4525 44.736 26.4545 43.2395C26.4545 40.9784 25.1322 39.5551 22.4858 38.9696" fill="white"/>
<path d="M53.4536 37.8814C53.3997 38.4688 53.0096 38.9715 52.4542 39.168C52.1159 39.297 51.5355 39.3606 50.713 39.3606H46.8923V35.5452H50.6861C51.4779 35.5452 52.0602 35.6164 52.4369 35.759C52.9942 35.9458 53.3824 36.4562 53.4113 37.0455H53.4305C53.442 37.2381 53.4497 37.3441 53.4497 37.3961V37.8814H53.4536ZM57.403 37.5193C57.403 34.1816 55.4369 32.5117 51.5067 32.5117H44.3094C43.5406 32.5117 43.1562 32.8969 43.1562 33.6673V47.3553C43.1562 47.4593 43.2274 47.5113 43.3696 47.5113H45.7431C46.5118 47.5113 46.8962 47.1261 46.8962 46.3557V42.5038H51.5086C55.4388 42.5038 57.4049 40.8436 57.4049 37.5212" fill="white"/>
<path d="M62.1541 32.8334C62.1541 32.6004 62.0638 32.4829 61.8831 32.4829H59.3136C59.0157 32.4829 58.8216 32.5484 58.737 32.6755C58.6275 32.8854 58.5794 33.1223 58.6006 33.3592V46.6755C58.6006 47.0279 58.6486 47.2533 58.7466 47.3592C58.8446 47.4651 59.0599 47.5152 59.3981 47.5152H61.8485C61.9984 47.5364 62.1387 47.4324 62.1598 47.2822C62.1637 47.2552 62.1637 47.2302 62.1598 47.2032L62.1541 32.8334Z" fill="white"/>
<path d="M75.1559 32.7756C75.1559 32.583 75.0848 32.4829 74.9425 32.4829H64.9796C64.307 32.4829 63.9688 32.8796 63.9688 33.6731V47.1551C63.9688 47.4035 64.086 47.5268 64.3185 47.5268H74.8887C75.0579 47.5268 75.1424 47.4035 75.1424 47.1551V45.5757C75.1424 45.1212 75.1097 44.8362 75.0444 44.7187C74.9406 44.5261 74.6869 44.4259 74.2757 44.4259H67.2955V41.4927H73.6376C73.7798 41.5119 73.9105 41.4118 73.9297 41.2692C73.9336 41.2461 73.9336 41.223 73.9297 41.1999V38.8887C73.9297 38.6152 73.7875 38.4785 73.5012 38.4785H67.2955V35.524H74.2142C74.6178 35.524 74.8734 35.4855 74.9829 35.4085C75.0924 35.3314 75.1482 35.1022 75.1482 34.7247L75.1559 32.7756Z" fill="white"/>
<path d="M90.2256 32.8141C90.2256 32.5946 90.1468 32.4829 89.9912 32.4829H87.6849C87.1641 32.4829 86.9162 32.8527 86.9162 33.5942V41.6082L80.576 32.6813C80.4991 32.5599 80.3665 32.4887 80.2243 32.4887H77.6183C77.0609 32.4887 76.7822 32.8584 76.7822 33.6V47.0819C76.7746 47.1936 76.7822 47.3034 76.8015 47.4131C76.8399 47.4921 76.9437 47.5306 77.1128 47.5306H79.1942C79.6093 47.5306 79.8745 47.4401 79.9917 47.2571C80.0955 47.1281 80.1474 46.8411 80.1474 46.3981V37.9354L86.7624 47.3727C86.8143 47.4632 86.9431 47.5094 87.1468 47.5094H89.4819C89.8662 47.5094 90.0969 47.4112 90.1622 47.2167C90.2218 46.9355 90.241 46.6466 90.2218 46.3596L90.2256 32.8141Z" fill="white"/>
<path d="M101.546 38.9754L96.8397 37.9431C95.8653 37.6041 95.3771 37.1611 95.3791 36.616C95.3791 35.9285 95.8653 35.5856 96.8397 35.5837H103.745C104.642 35.5837 105.09 35.1407 105.09 34.2567V32.7949C105.09 32.5869 104.992 32.4829 104.798 32.4829H96.684C95.2176 32.4829 94.0184 32.8469 93.0844 33.5749C92.06 34.3684 91.5469 35.4797 91.5469 36.9069C91.5469 39.0255 92.921 40.3968 95.6712 41.0208L100.224 42.0589C101.3 42.3054 101.838 42.7465 101.838 43.384C101.838 44.0715 101.3 44.4144 100.224 44.4163H93.0056C92.2368 44.4163 91.8524 44.813 91.8524 45.6066V47.2051C91.8524 47.4131 91.9428 47.5171 92.1253 47.5171H99.9358C101.531 47.5171 102.809 47.2109 103.768 46.6004C104.929 45.8589 105.509 44.7418 105.509 43.2453C105.509 40.9842 104.185 39.5609 101.539 38.9754" fill="white"/>
<path d="M22.1269 41.196C28.2095 44.3315 32.8066 43.28 38.2704 39.4164C41.1532 37.3845 42.7195 40.7646 39.8617 42.5442C33.8117 46.3018 27.8194 45.2271 22.1211 41.196" fill="white"/>
</svg>
