<svg width="80" height="32" viewBox="0 0 80 32" fill="none" xmlns="http://www.w3.org/2000/svg">
<g clip-path="url(#clip0_625_243)">
<path d="M64.4663 0.5C72.9683 0.5 79.5 7.95413 79.5 15.9909C79.5 24.0256 72.9742 31.4746 64.4663 31.4798L15.3951 31.5C6.89307 31.5 0.5 24.0486 0.5 16.0119C0.5 7.97119 6.89307 0.5 15.3951 0.5H64.4663Z" fill="white"/>
<path d="M10.7793 10.6485C10.7793 9.97463 11.3864 9.41861 12.1002 9.41861C12.8321 9.41861 13.4238 10.0123 13.4238 10.7458V21.4539C13.4238 22.1881 12.8321 22.7818 12.1002 22.7818C11.3718 22.7818 10.7793 22.1881 10.7793 21.4539V10.6485Z" fill="black"/>
<path d="M14.2844 14.6891C14.2844 14.6891 18.6211 9.89129 18.6432 9.86827C19.135 9.38011 19.9321 9.35789 20.4527 9.82978C20.9986 10.3239 21.0428 11.1613 20.5534 11.709L17.8192 14.7776C17.8192 14.7776 20.9097 16.6501 20.9097 18.7813V21.4626C20.9097 22.0766 20.3646 22.7818 19.5762 22.7818C18.8478 22.7818 18.2517 22.1881 18.2517 21.4539L18.2474 19.5778C18.2474 19.1603 17.6667 16.9104 15.1806 16.9104C14.472 16.9104 13.8984 16.3302 13.8984 15.6162C13.8988 15.3928 13.9411 15.0689 14.2844 14.6891Z" fill="black"/>
<path d="M38.6737 11.8685H36.4199C35.7484 11.8685 35.1914 11.2601 35.1914 10.5354C35.1914 9.80872 35.7859 9.20905 36.5143 9.20905H43.5836C44.3135 9.20905 44.9045 9.80872 44.9045 10.5354C44.9045 11.2748 44.3112 11.8685 43.5808 11.8685H41.3186L41.3238 21.4539C41.3238 22.1881 40.7277 22.7818 39.9986 22.7818C39.2702 22.7818 38.6733 22.1881 38.6733 21.4539L38.6737 11.8685Z" fill="black"/>
<path d="M58.8426 10.5318C58.8426 9.85992 59.4327 9.29993 60.1477 9.29993H65.033C67.0467 9.29993 68.6726 10.9414 68.6726 12.9698C68.6726 14.7367 67.4516 15.7162 67.4516 15.7162C67.4516 15.7162 69.2212 17.7046 69.2212 18.698V21.4626C69.2212 22.3841 68.6607 22.7818 67.9821 22.7818C67.2545 22.7818 66.6288 22.1881 66.6288 21.4547V19.5778C66.6288 19.1825 65.8479 17.4633 64.7008 17.2398C63.846 17.0727 63.4096 16.6013 63.4096 15.8948C63.4096 15.3471 63.596 15.0217 64.2809 14.6673C65.0678 14.2541 65.902 13.8537 65.902 13.0639C65.902 12.3841 65.3672 11.8288 64.6878 11.8288H61.4346V21.4543C61.4346 22.1917 60.8725 22.7814 60.1469 22.7814C59.4149 22.7814 58.8418 22.1877 58.8418 21.4543V10.5318H58.8426Z" fill="black"/>
<path d="M52.1903 17.5879C51.7136 18.0955 50.9682 18.0907 50.4563 17.6101C49.9203 17.1101 49.8768 16.2496 50.3891 15.7285L53.634 12.4019C53.634 12.4019 52.7836 11.805 51.4829 11.805C49.2018 11.805 47.3472 13.6656 47.3472 15.9603C47.3472 18.2539 49.2014 20.1176 51.4829 20.1176C53.0957 20.1176 54.4884 19.1881 55.173 17.8387C55.4653 17.351 55.8887 17.0791 56.3734 17.0791C57.4553 17.0791 57.9581 18.2241 57.5284 18.9726C56.1024 21.4626 54.108 22.8156 51.4161 22.8156C47.6695 22.8156 44.6348 19.7656 44.6348 16.0004C44.6348 12.2368 47.6695 9.18604 51.4161 9.18604C53.7051 9.18604 55.5083 10.1044 56.7305 11.8328C57.0492 12.2809 56.5488 12.9702 56.42 13.1048C56.42 13.1048 52.2089 17.5879 52.1903 17.5879Z" fill="black"/>
<path d="M29.6774 17.5879C29.2019 18.0955 28.4585 18.0907 27.9434 17.6101C27.4101 17.1101 27.3675 16.2496 27.8826 15.7285L31.1255 12.4019C31.1255 12.4019 30.2699 11.805 28.9728 11.805C26.6897 11.805 24.8387 13.6656 24.8387 15.9603C24.8387 18.2539 26.6889 20.1176 28.9728 20.1176C30.5836 20.1176 31.9799 19.1881 32.6601 17.8387C32.9559 17.351 33.379 17.0791 33.8648 17.0791C34.944 17.0791 35.4496 18.2241 35.0214 18.9726C33.5911 21.4626 31.596 22.8156 28.9048 22.8156C25.1606 22.8156 22.1211 19.7656 22.1211 16.0004C22.1211 12.2368 25.1606 9.18604 28.9048 9.18604C31.195 9.18604 32.9974 10.1044 34.2235 11.8328C34.5415 12.2809 34.0327 12.9702 33.9071 13.1048C33.9071 13.1048 29.7019 17.5879 29.6774 17.5879Z" fill="black"/>
</g>
<defs>
<clipPath id="clip0_625_243">
<rect width="79" height="31" fill="white" transform="translate(0.5 0.5)"/>
</clipPath>
</defs>
</svg>
