<svg width="74" height="30" viewBox="0 0 74 30" fill="none" xmlns="http://www.w3.org/2000/svg">
<path d="M8.30683 29.4426C7.38359 29.4426 6.95537 28.8756 7.35531 28.1819L10.6931 22.3956L15.7163 13.7152C16.1163 13.0216 16.8211 13.1097 17.2831 13.9095L18.4028 15.8503C18.864 16.6509 18.9151 17.8722 18.5144 18.5666L13.4912 27.2469L12.9521 28.1819C12.553 28.8756 11.4694 29.4426 10.5462 29.4426H8.30683Z" fill="white"/>
<path d="M32.751 28.1793L17.2122 1.25982C16.8123 0.566997 15.7295 0 14.8063 0H12.5677C11.6437 0 11.2155 0.566997 11.6154 1.25982L27.1534 28.1793C27.5533 28.8729 28.6361 29.4399 29.5601 29.4399H31.7987C32.7219 29.4399 33.1509 28.8729 32.751 28.1793Z" fill="white"/>
<path d="M25.4111 27.9869L24.2914 26.0469C23.8302 25.2463 22.7977 24.5912 21.9978 24.5912H10.8812C10.0814 24.5912 9.04889 25.2463 8.58767 26.0469L7.468 27.9869C7.00599 28.7875 7.28255 29.4426 8.08243 29.4426H24.7967C25.5965 29.4426 25.8731 28.7875 25.4111 27.9869Z" fill="white"/>
<path d="M1.10223 29.4474H3.3408C4.26404 29.4474 5.34679 28.8796 5.74673 28.1868L14.9147 12.2935C15.3147 11.5999 15.2644 10.3786 14.8024 9.57806L13.6835 7.63721C13.2214 6.83665 12.5166 6.74935 12.1167 7.44218L0.149911 28.1868C-0.25003 28.8796 0.178202 29.4474 1.10223 29.4474Z" fill="white"/>
<path d="M39.8692 29.4095H34.6716C34.4995 29.4095 34.3604 29.2703 34.3604 29.0981V7.20608C34.3604 7.03386 34.4995 6.89467 34.6716 6.89467H39.8692C40.0413 6.89467 40.1796 7.03386 40.1796 7.20608V29.0981C40.1796 29.2703 40.0413 29.4095 39.8692 29.4095Z" fill="white"/>
<path d="M51.6071 30C48.5097 30 46.1109 28.98 44.2754 26.8803C42.4855 24.8624 41.5764 22.176 41.5764 18.8991C41.5764 16.1309 42.0533 13.9455 43.0771 12.022C44.8175 8.75916 48.0288 6.81202 51.6684 6.81202C53.8787 6.81202 56.1243 7.52215 57.3878 8.62233C57.5669 8.77804 57.6023 9.04306 57.4719 9.24123L55.5358 12.1682C55.4635 12.2768 55.3503 12.3507 55.2223 12.3727C55.0942 12.3955 54.9622 12.3641 54.8577 12.2862C53.8716 11.5517 52.8187 11.1789 51.7297 11.1789C50.4363 11.1789 49.1674 11.8222 48.4964 12.8178C47.7342 13.9502 47.379 15.6174 47.379 18.0671C47.379 20.939 47.6124 22.4812 48.2111 23.568C48.9953 24.9992 50.2415 25.7251 51.9143 25.7251C52.9735 25.7251 53.8842 25.4294 54.8655 24.7657C54.9834 24.6768 55.1288 24.5596 55.2741 24.4433C55.3755 24.3623 55.5059 24.3245 55.634 24.3434C55.7621 24.3607 55.8776 24.4299 55.9538 24.5345L57.9213 27.2452C58.0682 27.4481 58.0321 27.7312 57.838 27.8901C56.0583 29.3489 54.1372 30 51.6071 30Z" fill="white"/>
<path d="M72.7996 29.4095H59.7327C59.5614 29.4095 59.4224 29.2703 59.4224 29.0981V7.20608C59.4224 7.03464 59.5614 6.89545 59.7327 6.89545H64.8243C64.9956 6.89545 65.1347 7.03464 65.1347 7.20608V24.6541H73.689C73.7833 24.6541 73.8721 24.6965 73.931 24.7697C73.99 24.8428 74.0127 24.9388 73.9931 25.0308L73.1028 29.1641C73.0722 29.3072 72.9457 29.4095 72.7996 29.4095Z" fill="white"/>
</svg>
